G75*
%MOIN*%
%OFA0B0*%
%FSLAX24Y24*%
%IPPOS*%
%LPD*%
%AMOC8*
5,1,8,0,0,1.08239X$1,22.5*
%
%ADD10C,0.0000*%
%ADD11C,0.0050*%
%ADD12C,0.0040*%
%ADD13C,0.0080*%
D10*
X003074Y000574D02*
X006916Y000574D01*
X007473Y000804D02*
X008193Y001524D01*
X008749Y001755D02*
X019908Y001755D01*
X020465Y001524D02*
X021185Y000804D01*
X021741Y000574D02*
X025420Y000574D01*
X025977Y000804D02*
X026696Y001524D01*
X027253Y001755D02*
X039593Y001755D01*
X040150Y001524D02*
X040870Y000804D01*
X041426Y000574D02*
X043924Y000574D01*
X044481Y000804D02*
X045200Y001524D01*
X045757Y001755D02*
X057636Y001755D01*
X057675Y001757D01*
X057713Y001763D01*
X057750Y001772D01*
X057787Y001785D01*
X057822Y001802D01*
X057855Y001821D01*
X057886Y001844D01*
X057915Y001870D01*
X057941Y001899D01*
X057964Y001930D01*
X057983Y001963D01*
X058000Y001998D01*
X058013Y002035D01*
X058022Y002072D01*
X058028Y002110D01*
X058030Y002149D01*
X058029Y002149D02*
X058029Y008645D01*
X058030Y008645D02*
X058028Y008684D01*
X058022Y008722D01*
X058013Y008759D01*
X058000Y008796D01*
X057983Y008831D01*
X057964Y008864D01*
X057941Y008895D01*
X057915Y008924D01*
X057886Y008950D01*
X057855Y008973D01*
X057822Y008992D01*
X057787Y009009D01*
X057750Y009022D01*
X057713Y009031D01*
X057675Y009037D01*
X057636Y009039D01*
X057636Y009038D02*
X002518Y009038D01*
X002518Y009039D02*
X002479Y009037D01*
X002441Y009031D01*
X002404Y009022D01*
X002367Y009009D01*
X002332Y008992D01*
X002299Y008973D01*
X002268Y008950D01*
X002239Y008924D01*
X002213Y008895D01*
X002190Y008864D01*
X002171Y008831D01*
X002154Y008796D01*
X002141Y008759D01*
X002132Y008722D01*
X002126Y008684D01*
X002124Y008645D01*
X002124Y001524D01*
X002126Y001485D01*
X002132Y001447D01*
X002141Y001410D01*
X002154Y001373D01*
X002171Y001338D01*
X002190Y001305D01*
X002213Y001274D01*
X002239Y001245D01*
X002239Y001246D02*
X002796Y000689D01*
X002795Y000688D02*
X002824Y000662D01*
X002855Y000639D01*
X002888Y000620D01*
X002923Y000603D01*
X002960Y000590D01*
X002997Y000581D01*
X003035Y000575D01*
X003074Y000573D01*
X006916Y000574D02*
X006967Y000576D01*
X007019Y000581D01*
X007070Y000589D01*
X007120Y000601D01*
X007169Y000616D01*
X007217Y000634D01*
X007264Y000655D01*
X007310Y000679D01*
X007353Y000707D01*
X007395Y000737D01*
X007435Y000769D01*
X007472Y000805D01*
X008193Y001523D02*
X008230Y001559D01*
X008270Y001591D01*
X008312Y001621D01*
X008355Y001649D01*
X008401Y001673D01*
X008448Y001694D01*
X008496Y001712D01*
X008545Y001727D01*
X008595Y001739D01*
X008646Y001747D01*
X008698Y001752D01*
X008749Y001754D01*
X019908Y001754D02*
X019959Y001752D01*
X020011Y001747D01*
X020062Y001739D01*
X020112Y001727D01*
X020161Y001712D01*
X020209Y001694D01*
X020256Y001673D01*
X020302Y001649D01*
X020345Y001621D01*
X020387Y001591D01*
X020427Y001559D01*
X020464Y001523D01*
X021185Y000805D02*
X021222Y000769D01*
X021262Y000737D01*
X021304Y000707D01*
X021347Y000679D01*
X021393Y000655D01*
X021440Y000634D01*
X021488Y000616D01*
X021537Y000601D01*
X021587Y000589D01*
X021638Y000581D01*
X021690Y000576D01*
X021741Y000574D01*
X025420Y000574D02*
X025471Y000576D01*
X025523Y000581D01*
X025574Y000589D01*
X025624Y000601D01*
X025673Y000616D01*
X025721Y000634D01*
X025768Y000655D01*
X025814Y000679D01*
X025857Y000707D01*
X025899Y000737D01*
X025939Y000769D01*
X025976Y000805D01*
X026697Y001523D02*
X026734Y001559D01*
X026774Y001591D01*
X026816Y001621D01*
X026859Y001649D01*
X026905Y001673D01*
X026952Y001694D01*
X027000Y001712D01*
X027049Y001727D01*
X027099Y001739D01*
X027150Y001747D01*
X027202Y001752D01*
X027253Y001754D01*
X019348Y003330D02*
X019350Y003382D01*
X019356Y003434D01*
X019366Y003485D01*
X019379Y003535D01*
X019397Y003585D01*
X019418Y003632D01*
X019442Y003678D01*
X019471Y003722D01*
X019502Y003764D01*
X019536Y003803D01*
X019573Y003840D01*
X019613Y003873D01*
X019656Y003904D01*
X019700Y003931D01*
X019746Y003955D01*
X019795Y003975D01*
X019844Y003991D01*
X019895Y004004D01*
X019946Y004013D01*
X019998Y004018D01*
X020050Y004019D01*
X020102Y004016D01*
X020154Y004009D01*
X020205Y003998D01*
X020255Y003984D01*
X020304Y003965D01*
X020351Y003943D01*
X020396Y003918D01*
X020440Y003889D01*
X020481Y003857D01*
X020520Y003822D01*
X020555Y003784D01*
X020588Y003743D01*
X020618Y003701D01*
X020644Y003656D01*
X020667Y003609D01*
X020686Y003560D01*
X020702Y003510D01*
X020714Y003460D01*
X020722Y003408D01*
X020726Y003356D01*
X020726Y003304D01*
X020722Y003252D01*
X020714Y003200D01*
X020702Y003150D01*
X020686Y003100D01*
X020667Y003051D01*
X020644Y003004D01*
X020618Y002959D01*
X020588Y002917D01*
X020555Y002876D01*
X020520Y002838D01*
X020481Y002803D01*
X020440Y002771D01*
X020396Y002742D01*
X020351Y002717D01*
X020304Y002695D01*
X020255Y002676D01*
X020205Y002662D01*
X020154Y002651D01*
X020102Y002644D01*
X020050Y002641D01*
X019998Y002642D01*
X019946Y002647D01*
X019895Y002656D01*
X019844Y002669D01*
X019795Y002685D01*
X019746Y002705D01*
X019700Y002729D01*
X019656Y002756D01*
X019613Y002787D01*
X019573Y002820D01*
X019536Y002857D01*
X019502Y002896D01*
X019471Y002938D01*
X019442Y002982D01*
X019418Y003028D01*
X019397Y003075D01*
X019379Y003125D01*
X019366Y003175D01*
X019356Y003226D01*
X019350Y003278D01*
X019348Y003330D01*
X039593Y001754D02*
X039644Y001752D01*
X039696Y001747D01*
X039747Y001739D01*
X039797Y001727D01*
X039846Y001712D01*
X039894Y001694D01*
X039941Y001673D01*
X039987Y001649D01*
X040030Y001621D01*
X040072Y001591D01*
X040112Y001559D01*
X040149Y001523D01*
X040870Y000805D02*
X040907Y000769D01*
X040947Y000737D01*
X040989Y000707D01*
X041032Y000679D01*
X041078Y000655D01*
X041125Y000634D01*
X041173Y000616D01*
X041222Y000601D01*
X041272Y000589D01*
X041323Y000581D01*
X041375Y000576D01*
X041426Y000574D01*
X043924Y000574D02*
X043975Y000576D01*
X044027Y000581D01*
X044078Y000589D01*
X044128Y000601D01*
X044177Y000616D01*
X044225Y000634D01*
X044272Y000655D01*
X044318Y000679D01*
X044361Y000707D01*
X044403Y000737D01*
X044443Y000769D01*
X044480Y000805D01*
X045201Y001523D02*
X045238Y001559D01*
X045278Y001591D01*
X045320Y001621D01*
X045363Y001649D01*
X045409Y001673D01*
X045456Y001694D01*
X045504Y001712D01*
X045553Y001727D01*
X045603Y001739D01*
X045654Y001747D01*
X045706Y001752D01*
X045757Y001754D01*
X055963Y003330D02*
X055965Y003382D01*
X055971Y003434D01*
X055981Y003485D01*
X055994Y003535D01*
X056012Y003585D01*
X056033Y003632D01*
X056057Y003678D01*
X056086Y003722D01*
X056117Y003764D01*
X056151Y003803D01*
X056188Y003840D01*
X056228Y003873D01*
X056271Y003904D01*
X056315Y003931D01*
X056361Y003955D01*
X056410Y003975D01*
X056459Y003991D01*
X056510Y004004D01*
X056561Y004013D01*
X056613Y004018D01*
X056665Y004019D01*
X056717Y004016D01*
X056769Y004009D01*
X056820Y003998D01*
X056870Y003984D01*
X056919Y003965D01*
X056966Y003943D01*
X057011Y003918D01*
X057055Y003889D01*
X057096Y003857D01*
X057135Y003822D01*
X057170Y003784D01*
X057203Y003743D01*
X057233Y003701D01*
X057259Y003656D01*
X057282Y003609D01*
X057301Y003560D01*
X057317Y003510D01*
X057329Y003460D01*
X057337Y003408D01*
X057341Y003356D01*
X057341Y003304D01*
X057337Y003252D01*
X057329Y003200D01*
X057317Y003150D01*
X057301Y003100D01*
X057282Y003051D01*
X057259Y003004D01*
X057233Y002959D01*
X057203Y002917D01*
X057170Y002876D01*
X057135Y002838D01*
X057096Y002803D01*
X057055Y002771D01*
X057011Y002742D01*
X056966Y002717D01*
X056919Y002695D01*
X056870Y002676D01*
X056820Y002662D01*
X056769Y002651D01*
X056717Y002644D01*
X056665Y002641D01*
X056613Y002642D01*
X056561Y002647D01*
X056510Y002656D01*
X056459Y002669D01*
X056410Y002685D01*
X056361Y002705D01*
X056315Y002729D01*
X056271Y002756D01*
X056228Y002787D01*
X056188Y002820D01*
X056151Y002857D01*
X056117Y002896D01*
X056086Y002938D01*
X056057Y002982D01*
X056033Y003028D01*
X056012Y003075D01*
X055994Y003125D01*
X055981Y003175D01*
X055971Y003226D01*
X055965Y003278D01*
X055963Y003330D01*
X055963Y007267D02*
X055965Y007319D01*
X055971Y007371D01*
X055981Y007422D01*
X055994Y007472D01*
X056012Y007522D01*
X056033Y007569D01*
X056057Y007615D01*
X056086Y007659D01*
X056117Y007701D01*
X056151Y007740D01*
X056188Y007777D01*
X056228Y007810D01*
X056271Y007841D01*
X056315Y007868D01*
X056361Y007892D01*
X056410Y007912D01*
X056459Y007928D01*
X056510Y007941D01*
X056561Y007950D01*
X056613Y007955D01*
X056665Y007956D01*
X056717Y007953D01*
X056769Y007946D01*
X056820Y007935D01*
X056870Y007921D01*
X056919Y007902D01*
X056966Y007880D01*
X057011Y007855D01*
X057055Y007826D01*
X057096Y007794D01*
X057135Y007759D01*
X057170Y007721D01*
X057203Y007680D01*
X057233Y007638D01*
X057259Y007593D01*
X057282Y007546D01*
X057301Y007497D01*
X057317Y007447D01*
X057329Y007397D01*
X057337Y007345D01*
X057341Y007293D01*
X057341Y007241D01*
X057337Y007189D01*
X057329Y007137D01*
X057317Y007087D01*
X057301Y007037D01*
X057282Y006988D01*
X057259Y006941D01*
X057233Y006896D01*
X057203Y006854D01*
X057170Y006813D01*
X057135Y006775D01*
X057096Y006740D01*
X057055Y006708D01*
X057011Y006679D01*
X056966Y006654D01*
X056919Y006632D01*
X056870Y006613D01*
X056820Y006599D01*
X056769Y006588D01*
X056717Y006581D01*
X056665Y006578D01*
X056613Y006579D01*
X056561Y006584D01*
X056510Y006593D01*
X056459Y006606D01*
X056410Y006622D01*
X056361Y006642D01*
X056315Y006666D01*
X056271Y006693D01*
X056228Y006724D01*
X056188Y006757D01*
X056151Y006794D01*
X056117Y006833D01*
X056086Y006875D01*
X056057Y006919D01*
X056033Y006965D01*
X056012Y007012D01*
X055994Y007062D01*
X055981Y007112D01*
X055971Y007163D01*
X055965Y007215D01*
X055963Y007267D01*
X019348Y007267D02*
X019350Y007319D01*
X019356Y007371D01*
X019366Y007422D01*
X019379Y007472D01*
X019397Y007522D01*
X019418Y007569D01*
X019442Y007615D01*
X019471Y007659D01*
X019502Y007701D01*
X019536Y007740D01*
X019573Y007777D01*
X019613Y007810D01*
X019656Y007841D01*
X019700Y007868D01*
X019746Y007892D01*
X019795Y007912D01*
X019844Y007928D01*
X019895Y007941D01*
X019946Y007950D01*
X019998Y007955D01*
X020050Y007956D01*
X020102Y007953D01*
X020154Y007946D01*
X020205Y007935D01*
X020255Y007921D01*
X020304Y007902D01*
X020351Y007880D01*
X020396Y007855D01*
X020440Y007826D01*
X020481Y007794D01*
X020520Y007759D01*
X020555Y007721D01*
X020588Y007680D01*
X020618Y007638D01*
X020644Y007593D01*
X020667Y007546D01*
X020686Y007497D01*
X020702Y007447D01*
X020714Y007397D01*
X020722Y007345D01*
X020726Y007293D01*
X020726Y007241D01*
X020722Y007189D01*
X020714Y007137D01*
X020702Y007087D01*
X020686Y007037D01*
X020667Y006988D01*
X020644Y006941D01*
X020618Y006896D01*
X020588Y006854D01*
X020555Y006813D01*
X020520Y006775D01*
X020481Y006740D01*
X020440Y006708D01*
X020396Y006679D01*
X020351Y006654D01*
X020304Y006632D01*
X020255Y006613D01*
X020205Y006599D01*
X020154Y006588D01*
X020102Y006581D01*
X020050Y006578D01*
X019998Y006579D01*
X019946Y006584D01*
X019895Y006593D01*
X019844Y006606D01*
X019795Y006622D01*
X019746Y006642D01*
X019700Y006666D01*
X019656Y006693D01*
X019613Y006724D01*
X019573Y006757D01*
X019536Y006794D01*
X019502Y006833D01*
X019471Y006875D01*
X019442Y006919D01*
X019418Y006965D01*
X019397Y007012D01*
X019379Y007062D01*
X019366Y007112D01*
X019356Y007163D01*
X019350Y007215D01*
X019348Y007267D01*
D11*
X018266Y008645D02*
X018266Y001755D01*
X003305Y001755D01*
X003305Y008645D01*
X003307Y008684D01*
X003313Y008722D01*
X003322Y008759D01*
X003335Y008796D01*
X003352Y008831D01*
X003371Y008864D01*
X003394Y008895D01*
X003420Y008924D01*
X003449Y008950D01*
X003480Y008973D01*
X003513Y008992D01*
X003548Y009009D01*
X003585Y009022D01*
X003622Y009031D01*
X003660Y009037D01*
X003699Y009039D01*
X003699Y009038D02*
X017872Y009038D01*
X017872Y009039D02*
X017911Y009037D01*
X017949Y009031D01*
X017986Y009022D01*
X018023Y009009D01*
X018058Y008992D01*
X018091Y008973D01*
X018122Y008950D01*
X018151Y008924D01*
X018177Y008895D01*
X018200Y008864D01*
X018219Y008831D01*
X018236Y008796D01*
X018249Y008759D01*
X018258Y008722D01*
X018264Y008684D01*
X018266Y008645D01*
X021809Y008645D02*
X021809Y001755D01*
X036770Y001755D01*
X036770Y008645D01*
X036768Y008684D01*
X036762Y008722D01*
X036753Y008759D01*
X036740Y008796D01*
X036723Y008831D01*
X036704Y008864D01*
X036681Y008895D01*
X036655Y008924D01*
X036626Y008950D01*
X036595Y008973D01*
X036562Y008992D01*
X036527Y009009D01*
X036490Y009022D01*
X036453Y009031D01*
X036415Y009037D01*
X036376Y009039D01*
X036376Y009038D02*
X022203Y009038D01*
X022203Y009039D02*
X022164Y009037D01*
X022126Y009031D01*
X022089Y009022D01*
X022052Y009009D01*
X022017Y008992D01*
X021984Y008973D01*
X021953Y008950D01*
X021924Y008924D01*
X021898Y008895D01*
X021875Y008864D01*
X021856Y008831D01*
X021839Y008796D01*
X021826Y008759D01*
X021817Y008722D01*
X021811Y008684D01*
X021809Y008645D01*
X036924Y007468D02*
X036924Y007318D01*
X036999Y007243D01*
X037074Y007243D01*
X037149Y007318D01*
X037149Y007468D01*
X037224Y007543D01*
X037299Y007543D01*
X037374Y007468D01*
X037374Y007318D01*
X037299Y007243D01*
X037374Y007083D02*
X036924Y007083D01*
X036924Y006783D02*
X037374Y007083D01*
X037374Y006783D02*
X036924Y006783D01*
X036924Y006623D02*
X036924Y006322D01*
X037374Y006322D01*
X037374Y006623D01*
X037149Y006472D02*
X037149Y006322D01*
X037224Y006162D02*
X037299Y006162D01*
X037374Y006087D01*
X037374Y005937D01*
X037299Y005862D01*
X037149Y005937D02*
X037074Y005862D01*
X036999Y005862D01*
X036924Y005937D01*
X036924Y006087D01*
X036999Y006162D01*
X037149Y006087D02*
X037224Y006162D01*
X037149Y006087D02*
X037149Y005937D01*
X037449Y005702D02*
X037449Y005402D01*
X037224Y005241D02*
X036924Y005241D01*
X037224Y005241D02*
X037374Y005091D01*
X037224Y004941D01*
X036924Y004941D01*
X036924Y004781D02*
X037374Y004781D01*
X036924Y004481D01*
X037374Y004481D01*
X037374Y004324D02*
X037374Y004174D01*
X037374Y004249D02*
X036924Y004249D01*
X036924Y004174D02*
X036924Y004324D01*
X037449Y004014D02*
X037449Y003713D01*
X037299Y003478D02*
X036924Y003478D01*
X036924Y003403D02*
X036924Y003553D01*
X037299Y003478D02*
X037374Y003403D01*
X037374Y003328D01*
X037299Y003253D01*
X040313Y001755D02*
X055274Y001755D01*
X055274Y008645D01*
X055272Y008684D01*
X055266Y008722D01*
X055257Y008759D01*
X055244Y008796D01*
X055227Y008831D01*
X055208Y008864D01*
X055185Y008895D01*
X055159Y008924D01*
X055130Y008950D01*
X055099Y008973D01*
X055066Y008992D01*
X055031Y009009D01*
X054994Y009022D01*
X054957Y009031D01*
X054919Y009037D01*
X054880Y009039D01*
X054880Y009038D02*
X040707Y009038D01*
X040707Y009039D02*
X040668Y009037D01*
X040630Y009031D01*
X040593Y009022D01*
X040556Y009009D01*
X040521Y008992D01*
X040488Y008973D01*
X040457Y008950D01*
X040428Y008924D01*
X040402Y008895D01*
X040379Y008864D01*
X040360Y008831D01*
X040343Y008796D01*
X040330Y008759D01*
X040321Y008722D01*
X040315Y008684D01*
X040313Y008645D01*
X040313Y001755D01*
X036924Y007468D02*
X036999Y007543D01*
D12*
X039636Y007520D02*
X039636Y007367D01*
X039712Y007290D01*
X039789Y007290D01*
X039866Y007367D01*
X039866Y007520D01*
X039943Y007597D01*
X040019Y007597D01*
X040096Y007520D01*
X040096Y007367D01*
X040019Y007290D01*
X040096Y007136D02*
X039636Y007136D01*
X039636Y006829D02*
X040096Y007136D01*
X040096Y006829D02*
X039636Y006829D01*
X039636Y006676D02*
X039636Y006369D01*
X040096Y006369D01*
X040096Y006676D01*
X039866Y006523D02*
X039866Y006369D01*
X039943Y006216D02*
X040019Y006216D01*
X040096Y006139D01*
X040096Y005985D01*
X040019Y005909D01*
X039866Y005985D02*
X039866Y006139D01*
X039943Y006216D01*
X039712Y006216D02*
X039636Y006139D01*
X039636Y005985D01*
X039712Y005909D01*
X039789Y005909D01*
X039866Y005985D01*
X039636Y007520D02*
X039712Y007597D01*
X040173Y007750D02*
X040173Y008057D01*
X040019Y008211D02*
X039636Y008211D01*
X040019Y008211D02*
X040096Y008287D01*
X040096Y008441D01*
X040019Y008518D01*
X039636Y008518D01*
X021669Y008057D02*
X021669Y007750D01*
X021515Y007597D02*
X021592Y007520D01*
X021592Y007367D01*
X021515Y007290D01*
X021362Y007367D02*
X021362Y007520D01*
X021439Y007597D01*
X021515Y007597D01*
X021208Y007597D02*
X021132Y007520D01*
X021132Y007367D01*
X021208Y007290D01*
X021285Y007290D01*
X021362Y007367D01*
X021592Y007136D02*
X021132Y007136D01*
X021132Y006829D02*
X021592Y007136D01*
X021592Y006829D02*
X021132Y006829D01*
X021132Y006676D02*
X021132Y006369D01*
X021592Y006369D01*
X021592Y006676D01*
X021362Y006523D02*
X021362Y006369D01*
X021439Y006216D02*
X021515Y006216D01*
X021592Y006139D01*
X021592Y005985D01*
X021515Y005909D01*
X021362Y005985D02*
X021285Y005909D01*
X021208Y005909D01*
X021132Y005985D01*
X021132Y006139D01*
X021208Y006216D01*
X021362Y006139D02*
X021439Y006216D01*
X021362Y006139D02*
X021362Y005985D01*
X018836Y005985D02*
X018760Y005909D01*
X018836Y005985D02*
X018836Y006139D01*
X018760Y006216D01*
X018683Y006216D01*
X018606Y006139D01*
X018606Y005985D01*
X018529Y005909D01*
X018453Y005909D01*
X018376Y005985D01*
X018376Y006139D01*
X018453Y006216D01*
X018376Y006369D02*
X018836Y006369D01*
X018836Y006676D01*
X018606Y006523D02*
X018606Y006369D01*
X018376Y006369D02*
X018376Y006676D01*
X018376Y006829D02*
X018836Y007136D01*
X018376Y007136D01*
X018453Y007290D02*
X018529Y007290D01*
X018606Y007367D01*
X018606Y007520D01*
X018683Y007597D01*
X018760Y007597D01*
X018836Y007520D01*
X018836Y007367D01*
X018760Y007290D01*
X018453Y007290D02*
X018376Y007367D01*
X018376Y007520D01*
X018453Y007597D01*
X018913Y007750D02*
X018913Y008057D01*
X018836Y008211D02*
X018376Y008211D01*
X018683Y008364D02*
X018836Y008518D01*
X018376Y008518D01*
X018683Y008364D02*
X018836Y008211D01*
X021132Y008211D02*
X021439Y008211D01*
X021592Y008364D01*
X021439Y008518D01*
X021132Y008518D01*
X018836Y006829D02*
X018376Y006829D01*
X022982Y004029D02*
X022982Y003722D01*
X022982Y003876D02*
X023443Y003876D01*
X023366Y003569D02*
X022982Y003569D01*
X023366Y003569D02*
X023443Y003492D01*
X023443Y003339D01*
X023366Y003262D01*
X022982Y003262D01*
X023966Y003262D02*
X023966Y003492D01*
X024043Y003569D01*
X024350Y003569D01*
X024427Y003492D01*
X024427Y003262D01*
X023966Y003262D01*
X023966Y003109D02*
X024427Y003109D01*
X023966Y002802D01*
X024427Y002802D01*
X024951Y002878D02*
X025027Y002802D01*
X025334Y002802D01*
X025411Y002878D01*
X025411Y003032D01*
X025334Y003109D01*
X025027Y003109D02*
X024951Y003032D01*
X024951Y002878D01*
X024951Y002648D02*
X025258Y002648D01*
X025411Y002495D01*
X025258Y002341D01*
X024951Y002341D01*
X025181Y002188D02*
X025181Y001881D01*
X025258Y001727D02*
X025334Y001727D01*
X025411Y001651D01*
X025411Y001497D01*
X025334Y001420D01*
X025027Y001420D02*
X024951Y001497D01*
X024951Y001651D01*
X025027Y001727D01*
X025104Y001727D01*
X025181Y001651D01*
X025258Y001727D01*
X025181Y001651D02*
X025181Y001574D01*
X024427Y001727D02*
X024427Y001420D01*
X024120Y001727D01*
X024043Y001727D01*
X023966Y001651D01*
X023966Y001497D01*
X024043Y001420D01*
X023443Y001420D02*
X023443Y001727D01*
X023443Y001574D02*
X022982Y001574D01*
X023136Y001420D01*
X021941Y001942D02*
X021787Y001789D01*
X021634Y001942D01*
X021634Y002249D01*
X021941Y002249D02*
X021941Y001942D01*
X021480Y001712D02*
X021173Y001712D01*
X021020Y001789D02*
X020866Y001942D01*
X020943Y001942D02*
X020713Y001942D01*
X020943Y001942D02*
X021020Y002019D01*
X021020Y002172D01*
X020943Y002249D01*
X020713Y002249D01*
X020713Y001789D01*
X023212Y001881D02*
X023212Y002188D01*
X023289Y002341D02*
X023443Y002495D01*
X023289Y002648D01*
X022982Y002648D01*
X023966Y002571D02*
X023966Y002418D01*
X024043Y002341D01*
X024350Y002341D01*
X024427Y002418D01*
X024427Y002571D01*
X024350Y002648D01*
X024197Y002648D01*
X024197Y002495D01*
X024043Y002648D02*
X023966Y002571D01*
X023289Y002341D02*
X022982Y002341D01*
X024197Y002188D02*
X024197Y001881D01*
X023366Y002802D02*
X023443Y002878D01*
X023443Y003032D01*
X023366Y003109D01*
X023059Y003109D01*
X022982Y003032D01*
X022982Y002878D01*
X023059Y002802D01*
X023366Y002802D01*
X024951Y003339D02*
X025027Y003262D01*
X025334Y003262D01*
X025411Y003339D01*
X025411Y003492D01*
X025334Y003569D01*
X025027Y003569D02*
X024951Y003492D01*
X024951Y003339D01*
X039165Y002265D02*
X039549Y002265D01*
X039626Y002188D01*
X039626Y002035D01*
X039549Y001958D01*
X039165Y001958D01*
X039702Y001805D02*
X039702Y001498D01*
X039626Y001344D02*
X039472Y001191D01*
X039472Y001268D02*
X039472Y001037D01*
X039626Y001037D02*
X039165Y001037D01*
X039165Y001268D01*
X039242Y001344D01*
X039395Y001344D01*
X039472Y001268D01*
X041486Y001574D02*
X041946Y001574D01*
X041946Y001727D02*
X041946Y001420D01*
X041640Y001420D02*
X041486Y001574D01*
X041716Y001881D02*
X041716Y002188D01*
X041793Y002341D02*
X041486Y002341D01*
X041793Y002341D02*
X041946Y002495D01*
X041793Y002648D01*
X041486Y002648D01*
X041563Y002802D02*
X041486Y002878D01*
X041486Y003032D01*
X041563Y003109D01*
X041870Y003109D01*
X041946Y003032D01*
X041946Y002878D01*
X041870Y002802D01*
X041563Y002802D01*
X042470Y002802D02*
X042931Y003109D01*
X042470Y003109D01*
X042470Y003262D02*
X042470Y003492D01*
X042547Y003569D01*
X042854Y003569D01*
X042931Y003492D01*
X042931Y003262D01*
X042470Y003262D01*
X041946Y003339D02*
X041946Y003492D01*
X041870Y003569D01*
X041486Y003569D01*
X041486Y003722D02*
X041486Y004029D01*
X041486Y003876D02*
X041946Y003876D01*
X043455Y003492D02*
X043455Y003339D01*
X043531Y003262D01*
X043838Y003262D01*
X043915Y003339D01*
X043915Y003492D01*
X043838Y003569D01*
X043531Y003569D02*
X043455Y003492D01*
X041946Y003339D02*
X041870Y003262D01*
X041486Y003262D01*
X042470Y002802D02*
X042931Y002802D01*
X043455Y002878D02*
X043531Y002802D01*
X043838Y002802D01*
X043915Y002878D01*
X043915Y003032D01*
X043838Y003109D01*
X043531Y003109D02*
X043455Y003032D01*
X043455Y002878D01*
X043455Y002648D02*
X043762Y002648D01*
X043915Y002495D01*
X043762Y002341D01*
X043455Y002341D01*
X043685Y002188D02*
X043685Y001881D01*
X043762Y001727D02*
X043838Y001727D01*
X043915Y001651D01*
X043915Y001497D01*
X043838Y001420D01*
X043531Y001420D02*
X043455Y001497D01*
X043455Y001651D01*
X043531Y001727D01*
X043608Y001727D01*
X043685Y001651D01*
X043762Y001727D01*
X043685Y001651D02*
X043685Y001574D01*
X042931Y001727D02*
X042931Y001420D01*
X042624Y001727D01*
X042547Y001727D01*
X042470Y001651D01*
X042470Y001497D01*
X042547Y001420D01*
X042701Y001881D02*
X042701Y002188D01*
X042854Y002341D02*
X042547Y002341D01*
X042470Y002418D01*
X042470Y002571D01*
X042547Y002648D01*
X042701Y002648D02*
X042701Y002495D01*
X042701Y002648D02*
X042854Y002648D01*
X042931Y002571D01*
X042931Y002418D01*
X042854Y002341D01*
X006907Y002495D02*
X006754Y002341D01*
X006447Y002341D01*
X006677Y002188D02*
X006677Y001881D01*
X006754Y001727D02*
X006830Y001727D01*
X006907Y001651D01*
X006907Y001497D01*
X006830Y001420D01*
X006523Y001420D02*
X006447Y001497D01*
X006447Y001651D01*
X006523Y001727D01*
X006600Y001727D01*
X006677Y001651D01*
X006754Y001727D01*
X006677Y001651D02*
X006677Y001574D01*
X005923Y001727D02*
X005923Y001420D01*
X005616Y001727D01*
X005539Y001727D01*
X005462Y001651D01*
X005462Y001497D01*
X005539Y001420D01*
X004939Y001420D02*
X004939Y001727D01*
X004939Y001574D02*
X004478Y001574D01*
X004632Y001420D01*
X003712Y001513D02*
X003712Y001973D01*
X003405Y001973D02*
X003405Y001513D01*
X003559Y001666D01*
X003712Y001513D01*
X003252Y001436D02*
X002945Y001436D01*
X002791Y001513D02*
X002638Y001666D01*
X002715Y001666D02*
X002485Y001666D01*
X002485Y001513D02*
X002485Y001973D01*
X002715Y001973D01*
X002791Y001897D01*
X002791Y001743D01*
X002715Y001666D01*
X004708Y001881D02*
X004708Y002188D01*
X004785Y002341D02*
X004478Y002341D01*
X004785Y002341D02*
X004939Y002495D01*
X004785Y002648D01*
X004478Y002648D01*
X004555Y002802D02*
X004862Y002802D01*
X004939Y002878D01*
X004939Y003032D01*
X004862Y003109D01*
X004555Y003109D01*
X004478Y003032D01*
X004478Y002878D01*
X004555Y002802D01*
X005462Y002802D02*
X005923Y003109D01*
X005462Y003109D01*
X005462Y003262D02*
X005462Y003492D01*
X005539Y003569D01*
X005846Y003569D01*
X005923Y003492D01*
X005923Y003262D01*
X005462Y003262D01*
X004939Y003339D02*
X004939Y003492D01*
X004862Y003569D01*
X004478Y003569D01*
X004478Y003722D02*
X004478Y004029D01*
X004478Y003876D02*
X004939Y003876D01*
X006447Y003492D02*
X006447Y003339D01*
X006523Y003262D01*
X006830Y003262D01*
X006907Y003339D01*
X006907Y003492D01*
X006830Y003569D01*
X006523Y003569D02*
X006447Y003492D01*
X004939Y003339D02*
X004862Y003262D01*
X004478Y003262D01*
X005462Y002802D02*
X005923Y002802D01*
X006447Y002878D02*
X006523Y002802D01*
X006830Y002802D01*
X006907Y002878D01*
X006907Y003032D01*
X006830Y003109D01*
X006523Y003109D02*
X006447Y003032D01*
X006447Y002878D01*
X006447Y002648D02*
X006754Y002648D01*
X006907Y002495D01*
X005923Y002571D02*
X005923Y002418D01*
X005846Y002341D01*
X005539Y002341D01*
X005462Y002418D01*
X005462Y002571D01*
X005539Y002648D01*
X005693Y002648D02*
X005693Y002495D01*
X005693Y002648D02*
X005846Y002648D01*
X005923Y002571D01*
X005693Y002188D02*
X005693Y001881D01*
D13*
X037451Y002229D02*
X037451Y002729D01*
X037701Y002979D01*
X037451Y003229D01*
X037451Y003729D01*
X037701Y003979D01*
X037451Y004229D01*
X037451Y004729D01*
X037701Y004979D01*
X037451Y005229D01*
X037451Y005729D01*
X037701Y005979D01*
X037451Y006229D01*
X037451Y006729D01*
X037701Y006979D01*
X038201Y006979D01*
X038451Y006729D01*
X038451Y006229D01*
X038201Y005979D01*
X038451Y005729D01*
X038451Y005229D01*
X038201Y004979D01*
X038451Y004729D01*
X038451Y004229D01*
X038201Y003979D01*
X038451Y003729D01*
X038451Y003229D01*
X038201Y002979D01*
X038451Y002729D01*
X038451Y002229D01*
X038201Y001979D01*
X037701Y001979D01*
X037451Y002229D01*
M02*
