%
M48
M72
T01C0.0197
T02C0.0400
T03C0.0472
T04C0.0630
T05C0.1378
%
T01
X4092Y1755
X5274Y1755
X2911Y2149
X6061Y2542
X5274Y3330
X2911Y3330
X6061Y4117
X4092Y4511
X5274Y5692
X8029Y5692
X10785Y5298
X13541Y5692
X16297Y5298
X19053Y5692
X20628Y5692
X22203Y5692
X24140Y5267
X25352Y5692
X28502Y5692
X31652Y5692
X34407Y5692
X35195Y5692
X36376Y5692
X37163Y6086
X38738Y5692
X41100Y5692
X43463Y5692
X44250Y4904
X42675Y4511
X40707Y4511
X44250Y3330
X42675Y2975
X40707Y2975
X41100Y1755
X42281Y1755
X43108Y1755
X44447Y1519
X24565Y2542
X23777Y2149
X22596Y2149
X21809Y2542
X22596Y3330
X23777Y3330
X24565Y4117
X21809Y4117
T02
X37901Y3479
X38001Y2479
X38001Y4479
X37901Y5479
X38001Y6479
T03
X4762Y1086
X5746Y1086
X6730Y1086
X23266Y1086
X24250Y1086
X25234Y1086
X41770Y1086
X42754Y1086
X43738Y1086
T04
X35982Y3133
X17478Y3133
X24565Y7857
X6061Y7857
X43069Y7857
X54486Y3133
T05
X56652Y3330
X56652Y7267
X20037Y7267
X20037Y3330
M30
