<?xml version="1.0" encoding="utf-8"?>
<!-- Generator: Adobe Illustrator 13.0.1, SVG Export Plug-In  -->
<!DOCTYPE svg PUBLIC "-//W3C//DTD SVG 1.1//EN" "http://www.w3.org/Graphics/SVG/1.1/DTD/svg11.dtd" [
	<!ENTITY ns_flows "http://ns.adobe.com/Flows/1.0/">
]>
<svg version="1.1"
	 xmlns="http://www.w3.org/2000/svg" xmlns:xlink="http://www.w3.org/1999/xlink" xmlns:a="http://ns.adobe.com/AdobeSVGViewerExtensions/3.0/"
	 x="0px" y="0px" width="295px" height="130px" viewBox="-0.735 -0.995 295 130" enable-background="new -0.735 -0.995 295 130"
	 xml:space="preserve">
<defs>
</defs>
<g>
	<path fill="#0066B3" d="M38.686,20.71c0-4.756,3.853-8.61,8.609-8.61c4.753,0,8.609,3.854,8.609,8.61
		c0,4.756-3.856,8.613-8.609,8.613C42.539,29.323,38.686,25.466,38.686,20.71"/>
	<path fill="#ED1941" d="M86.767,4.288c0,0-6.879,1.116-14.238,3.02c-5.548,1.436-9.404,2.63-10.846,3.086
		c0.003-0.012,0.003-0.027,0.003-0.042c-2.111,0.654-4.171,1.34-6.189,2.045c2.048,2.024,3.341,4.798,3.454,7.875
		c1.637-0.717,3.299-1.421,4.999-2.105c-0.003-0.003-0.006-0.006-0.006-0.009c1.898-0.69,7.041-2.546,11.452-4.045
		c5.527-1.871,13.008-4.165,13.008-4.165c21.812-6.019,45.952-9.515,68.452-9.347c-25.942-1.544-49.532-0.042-70.088,3.683"/>
</g>
<path fill="#ED1941" d="M293.219,86.334c-23.345,21.198-76.511,33.568-137.249,33.568c-82.505,0-135.822-24.204-139.534-56.229
	c-1.394-12.034,8.096-23.682,23.86-33.632c-2.783-2.09-4.6-5.386-4.666-9.117C12.873,32.849,0,48.56,0,64.496
	c0,35.285,63.11,65.189,156.857,63.891c63.775-0.882,112.213-19.079,136.732-41.336l-0.369-0.711"/>
<polyline fill="#0066B3" points="43.493,85.465 43.493,36.086 51.601,35.012 51.601,85.465 43.493,85.465 "/>
<path fill="#0066B3" d="M78.877,85.465V57.216c0-3.218-0.285-4.54-0.927-5.446c-0.576-0.828-1.574-1.074-2.648-1.074
	c-1.574,0-3.934,1.322-5.862,3.716v31.056h-8.081V54.661c0-5.038-0.642-7.842-1.071-10.16l7.581-1.979
	c0.216,0.741,0.93,2.807,0.999,4.954c2.075-2.561,5.865-4.705,9.584-4.705c2.861,0,5.149,1.155,6.576,2.972
	c1.646,2.066,1.931,4.873,1.931,7.683v32.046h-8.081"/>
<path fill="#0066B3" d="M113.335,33.269c-0.93-0.741-2.432-1.239-3.862-1.239c-2.003,0-3.218,1.898-3.218,5.122v6.442h7.581
	l-1.502,7.101h-6.078v34.772h-8.294V50.695h-2.789v-7.101h2.789c0,0-0.144-2.891-0.144-5.533c0-6.277,2.072-9.578,4.006-11.231
	c1.931-1.571,4.15-2.063,6.222-2.063c3.002,0,5.434,0.66,7.581,2.228l-2.288,6.277"/>
<path fill="#0066B3" d="M120.067,85.465V43.841l8.222-1.074v42.698H120.067L120.067,85.465z M124.001,37.74
	c-2.933,0-5.293-2.39-5.293-5.365c0-2.972,2.432-5.362,5.434-5.362c2.93,0,5.293,2.39,5.293,5.359c0,2.975-2.432,5.365-5.434,5.365"
	/>
<path fill="#0066B3" d="M156.159,85.465V57.216c0-3.218-0.285-4.54-0.93-5.446c-0.573-0.828-1.574-1.074-2.648-1.074
	c-1.574,0-3.934,1.322-5.862,3.716v31.056h-8.081V54.661c0-5.038-0.645-7.842-1.074-10.16l7.584-1.979
	c0.216,0.741,0.93,2.807,1.002,4.954c2.072-2.561,5.865-4.705,9.584-4.705c2.86,0,5.146,1.155,6.575,2.972
	c1.646,2.066,1.929,4.873,1.929,7.683v32.046h-8.078"/>
<path fill="#0066B3" d="M190.021,52.345c-0.786-1.898-2.075-3.053-4.15-3.053c-3.644,0-5.221,3.383-5.365,10.814h10.438
	c0-3.302-0.285-6.109-0.928-7.761H190.021z M180.508,66.797v0.825c0,2.731,0.216,5.209,1.217,7.353
	c1.215,2.564,3.287,3.968,5.79,3.968c2.937,0,5.435-1.49,7.938-4.132l3.218,6.028c-3.577,3.884-7.437,5.614-11.872,5.614
	c-9.509,0-14.945-8.173-14.945-22.055c0-7.185,1.218-12.469,3.862-16.431c2.504-3.719,5.938-5.533,10.085-5.533
	c3.935,0,7.08,1.568,9.296,4.459c2.934,3.8,4.075,8.919,4.075,18.083v1.817H180.51"/>
<path fill="#0066B3" d="M218.75,49.865c-5.431,0-5.431,9.911-5.431,14.206c0,4.545-0.145,15.033,5.646,15.033
	c5.365,0,5.365-10.487,5.365-14.871c0-4.54,0.216-14.371-5.578-14.371L218.75,49.865z M218.75,86.535
	c-11.155,0-14.085-11.891-14.157-22.135c-0.068-10.322,3.646-21.967,14.232-21.967c8.366,0,14.373,7.515,14.373,21.802
	C233.198,74.893,229.693,86.535,218.75,86.535"/>
<path fill="#0066B3" d="M257.529,85.465V57.216c0-3.218-0.285-4.54-0.928-5.446c-0.572-0.828-1.576-1.074-2.647-1.074
	c-1.574,0-3.935,1.322-5.862,3.716v31.056h-8.081V54.661c0-5.038-0.645-7.842-1.07-10.16l7.58-1.979
	c0.214,0.741,0.931,2.807,1.002,4.954c2.072-2.561,5.859-4.705,9.582-4.705c2.86,0,5.151,1.155,6.578,2.972
	c1.646,2.066,1.929,4.873,1.929,7.683v32.046h-8.078"/>
</svg>
