G75*
%MOIN*%
%OFA0B0*%
%FSLAX24Y24*%
%IPPOS*%
%LPD*%
%AMOC8*
5,1,8,0,0,1.08239X$1,22.5*
%
%ADD10C,0.0709*%
%ADD11C,0.0945*%
%ADD12C,0.0740*%
%ADD13C,0.0160*%
%ADD14C,0.0376*%
%ADD15C,0.0400*%
D10*
X004762Y001479D03*
X005746Y001479D03*
X006730Y001479D03*
X023266Y001479D03*
X024250Y001479D03*
X025234Y001479D03*
X041770Y001479D03*
X042754Y001479D03*
X043738Y001479D03*
D11*
X035982Y003526D03*
X017478Y003526D03*
X024565Y008251D03*
X006061Y008251D03*
X043069Y008251D03*
X054486Y003526D03*
D12*
X038001Y002873D03*
X037901Y003873D03*
X038001Y004873D03*
X037901Y005873D03*
X038001Y006873D03*
D13*
X002959Y001245D02*
X002896Y001308D01*
X002518Y001686D01*
X002518Y006873D01*
X002524Y006941D01*
X002541Y007008D01*
X002570Y007070D01*
X002610Y007126D01*
X002658Y007175D01*
X002715Y007214D01*
X002777Y007243D01*
X002843Y007261D01*
X002911Y007267D01*
X019206Y007267D01*
X019258Y007140D01*
X019517Y006881D01*
X019855Y006741D01*
X020220Y006741D01*
X020558Y006881D01*
X020816Y007140D01*
X020869Y007267D01*
X037617Y007267D01*
X037581Y007231D01*
X037530Y007161D01*
X037491Y007084D01*
X037464Y007002D01*
X037451Y006916D01*
X037451Y006893D01*
X037981Y006893D01*
X037981Y007423D01*
X037957Y007423D01*
X037872Y007409D01*
X037790Y007383D01*
X037712Y007343D01*
X037642Y007292D01*
X037581Y007231D01*
X037530Y007161D01*
X037491Y007084D01*
X037464Y007002D01*
X037451Y006916D01*
X037451Y006893D01*
X037981Y006893D01*
X038021Y006893D01*
X038551Y006893D01*
X038551Y006916D01*
X038537Y007002D01*
X038510Y007084D01*
X038471Y007161D01*
X038420Y007231D01*
X038359Y007292D01*
X038289Y007343D01*
X038212Y007383D01*
X038130Y007409D01*
X038044Y007423D01*
X038021Y007423D01*
X038021Y006893D01*
X038021Y006853D01*
X038551Y006853D01*
X038551Y006830D01*
X038537Y006744D01*
X038510Y006662D01*
X038471Y006585D01*
X038420Y006515D01*
X038385Y006479D01*
X039919Y006479D01*
X039919Y007267D01*
X039458Y007267D01*
X039335Y007276D01*
X039215Y007305D01*
X039101Y007352D01*
X038995Y007417D01*
X038901Y007497D01*
X038575Y007823D01*
X038481Y007904D01*
X038376Y007968D01*
X038262Y008015D01*
X038141Y008044D01*
X038018Y008054D01*
X037883Y008054D01*
X037760Y008044D01*
X037640Y008015D01*
X037526Y007968D01*
X037420Y007904D01*
X037326Y007823D01*
X037000Y007497D01*
X036906Y007417D01*
X036801Y007352D01*
X036687Y007305D01*
X036567Y007276D01*
X036443Y007267D01*
X035982Y007267D01*
X035982Y006479D01*
X037617Y006479D01*
X037581Y006515D01*
X037530Y006585D01*
X037491Y006662D01*
X037464Y006744D01*
X037451Y006830D01*
X037451Y006853D01*
X037981Y006853D01*
X037981Y006893D01*
X037981Y006853D01*
X037451Y006853D01*
X037451Y006830D01*
X037464Y006744D01*
X037491Y006662D01*
X037530Y006585D01*
X037581Y006515D01*
X037642Y006453D01*
X037712Y006403D01*
X037773Y006372D01*
X037612Y006305D01*
X037468Y006162D01*
X037391Y005974D01*
X037391Y005771D01*
X037468Y005584D01*
X037612Y005441D01*
X037799Y005363D01*
X037851Y005363D01*
X037712Y005305D01*
X037568Y005162D01*
X037540Y005093D01*
X023655Y005093D01*
X023046Y004484D01*
X023046Y003377D01*
X022988Y003319D01*
X022938Y003198D01*
X022938Y003067D01*
X022988Y002947D01*
X023080Y002855D01*
X023108Y002843D01*
X020313Y002843D01*
X020558Y002944D01*
X020816Y003203D01*
X020956Y003541D01*
X020956Y003906D01*
X020816Y004244D01*
X020558Y004502D01*
X020220Y004642D01*
X019855Y004642D01*
X019517Y004502D01*
X019258Y004244D01*
X019118Y003906D01*
X019118Y003541D01*
X019258Y003203D01*
X019517Y002944D01*
X019762Y002843D01*
X007686Y002843D01*
X007561Y002791D01*
X006744Y001974D01*
X006632Y001974D01*
X006450Y001898D01*
X006311Y001759D01*
X006258Y001632D01*
X006241Y001684D01*
X006203Y001759D01*
X006154Y001827D01*
X006094Y001887D01*
X006026Y001936D01*
X005951Y001974D01*
X005871Y002000D01*
X005788Y002014D01*
X005784Y002014D01*
X005784Y001517D01*
X005708Y001517D01*
X005708Y002014D01*
X005704Y002014D01*
X005621Y002000D01*
X005541Y001974D01*
X005466Y001936D01*
X005398Y001887D01*
X005338Y001827D01*
X005289Y001759D01*
X005251Y001684D01*
X005234Y001632D01*
X005181Y001759D01*
X005042Y001898D01*
X004860Y001974D01*
X004663Y001974D01*
X004482Y001898D01*
X004343Y001759D01*
X004267Y001578D01*
X004267Y001381D01*
X004343Y001199D01*
X004344Y001197D01*
X003074Y001197D01*
X003042Y001201D01*
X002983Y001225D01*
X002959Y001245D01*
X003025Y001208D02*
X004339Y001208D01*
X004273Y001366D02*
X002838Y001366D01*
X002679Y001525D02*
X004267Y001525D01*
X004311Y001683D02*
X002521Y001683D01*
X002518Y001842D02*
X004425Y001842D01*
X005098Y001842D02*
X005353Y001842D01*
X005250Y001683D02*
X005212Y001683D01*
X005708Y001683D02*
X005784Y001683D01*
X005784Y001525D02*
X005708Y001525D01*
X006242Y001683D02*
X006280Y001683D01*
X006394Y001842D02*
X006139Y001842D01*
X005784Y001842D02*
X005708Y001842D01*
X005708Y002000D02*
X005784Y002000D01*
X005872Y002000D02*
X006770Y002000D01*
X006929Y002159D02*
X002518Y002159D01*
X002518Y002000D02*
X005620Y002000D01*
X007087Y002317D02*
X002518Y002317D01*
X002518Y002476D02*
X007246Y002476D01*
X007404Y002634D02*
X002518Y002634D01*
X002518Y002793D02*
X007565Y002793D01*
X002518Y002951D02*
X017267Y002951D01*
X017356Y002914D02*
X017600Y002914D01*
X017825Y003007D01*
X017997Y003180D01*
X018091Y003405D01*
X018091Y003648D01*
X017997Y003873D01*
X017825Y004046D01*
X017600Y004139D01*
X017356Y004139D01*
X017131Y004046D01*
X016959Y003873D01*
X016866Y003648D01*
X016866Y003405D01*
X016959Y003180D01*
X017131Y003007D01*
X017356Y002914D01*
X017690Y002951D02*
X019510Y002951D01*
X019351Y003110D02*
X017928Y003110D01*
X017029Y003110D02*
X002518Y003110D01*
X002518Y003268D02*
X016922Y003268D01*
X016866Y003427D02*
X002518Y003427D01*
X002518Y003585D02*
X016866Y003585D01*
X016905Y003744D02*
X002518Y003744D01*
X002518Y003902D02*
X016988Y003902D01*
X017969Y003902D02*
X019118Y003902D01*
X019118Y003744D02*
X018051Y003744D01*
X018091Y003585D02*
X019118Y003585D01*
X019165Y003427D02*
X018091Y003427D01*
X018034Y003268D02*
X019231Y003268D01*
X020565Y002951D02*
X022986Y002951D01*
X022938Y003110D02*
X020723Y003110D01*
X020844Y003268D02*
X022967Y003268D01*
X023046Y003427D02*
X020909Y003427D01*
X020956Y003585D02*
X023046Y003585D01*
X023486Y003585D02*
X035370Y003585D01*
X035370Y003648D02*
X035370Y003405D01*
X035463Y003180D01*
X035635Y003007D01*
X035860Y002914D01*
X036104Y002914D01*
X036329Y003007D01*
X036501Y003180D01*
X036595Y003405D01*
X036595Y003648D01*
X036501Y003873D01*
X036329Y004046D01*
X036104Y004139D01*
X035860Y004139D01*
X035635Y004046D01*
X035463Y003873D01*
X035370Y003648D01*
X035409Y003744D02*
X023486Y003744D01*
X023486Y003902D02*
X035492Y003902D01*
X035672Y004061D02*
X023486Y004061D01*
X023486Y004219D02*
X037526Y004219D01*
X037468Y004162D02*
X037391Y003974D01*
X037391Y003771D01*
X037468Y003584D01*
X037612Y003441D01*
X037799Y003363D01*
X037851Y003363D01*
X037712Y003305D01*
X037568Y003162D01*
X037491Y002974D01*
X037491Y002844D01*
X037490Y002843D01*
X023423Y002843D01*
X023452Y002855D01*
X023544Y002947D01*
X023594Y003067D01*
X023594Y003198D01*
X023544Y003319D01*
X023486Y003377D01*
X023486Y004301D01*
X023837Y004653D01*
X037540Y004653D01*
X037568Y004584D01*
X037712Y004441D01*
X037851Y004383D01*
X037799Y004383D01*
X037612Y004305D01*
X037468Y004162D01*
X037426Y004061D02*
X036293Y004061D01*
X036473Y003902D02*
X037391Y003902D01*
X037402Y003744D02*
X036555Y003744D01*
X036595Y003585D02*
X037468Y003585D01*
X037645Y003427D02*
X036595Y003427D01*
X036538Y003268D02*
X037675Y003268D01*
X037547Y003110D02*
X036432Y003110D01*
X036194Y002951D02*
X037491Y002951D01*
X038738Y003251D02*
X039014Y002975D01*
X039314Y002843D02*
X039342Y002910D01*
X039342Y003041D01*
X039292Y003161D01*
X039200Y003253D01*
X039079Y003303D01*
X038997Y003303D01*
X038958Y003342D01*
X038958Y005389D01*
X038829Y005518D01*
X038411Y005937D01*
X038411Y005974D01*
X038333Y006162D01*
X038190Y006305D01*
X038119Y006335D01*
X038130Y006336D01*
X038212Y006363D01*
X038289Y006403D01*
X038359Y006453D01*
X038420Y006515D01*
X038471Y006585D01*
X038510Y006662D01*
X038537Y006744D01*
X038551Y006830D01*
X038551Y006853D01*
X038021Y006853D01*
X038021Y006893D01*
X038551Y006893D01*
X038551Y006916D01*
X038537Y007002D01*
X038510Y007084D01*
X038471Y007161D01*
X038420Y007231D01*
X038385Y007267D01*
X054880Y007267D01*
X054948Y007261D01*
X055015Y007243D01*
X055077Y007214D01*
X055133Y007175D01*
X055181Y007126D01*
X055221Y007070D01*
X055250Y007008D01*
X055268Y006941D01*
X055274Y006873D01*
X055274Y002379D01*
X045623Y002379D01*
X045364Y002309D01*
X045132Y002175D01*
X045038Y002081D01*
X045038Y002081D01*
X045000Y002043D01*
X044384Y001427D01*
X044318Y001361D01*
X044263Y001313D01*
X044186Y001268D01*
X044232Y001381D01*
X044232Y001578D01*
X044157Y001759D01*
X044018Y001898D01*
X043836Y001974D01*
X043725Y001974D01*
X043301Y002397D01*
X043176Y002449D01*
X040611Y002449D01*
X040269Y002791D01*
X040144Y002843D01*
X039314Y002843D01*
X039342Y002951D02*
X054275Y002951D01*
X054364Y002914D02*
X054608Y002914D01*
X054833Y003007D01*
X055005Y003180D01*
X055099Y003405D01*
X055099Y003648D01*
X055005Y003873D01*
X054833Y004046D01*
X054608Y004139D01*
X054364Y004139D01*
X054139Y004046D01*
X053967Y003873D01*
X053874Y003648D01*
X053874Y003405D01*
X053967Y003180D01*
X054139Y003007D01*
X054364Y002914D01*
X054698Y002951D02*
X055274Y002951D01*
X055274Y002793D02*
X040265Y002793D01*
X040426Y002634D02*
X055274Y002634D01*
X055274Y002476D02*
X040585Y002476D01*
X039313Y003110D02*
X054037Y003110D01*
X054936Y003110D02*
X055274Y003110D01*
X055274Y003268D02*
X055042Y003268D01*
X055099Y003427D02*
X055274Y003427D01*
X055274Y003585D02*
X055099Y003585D01*
X055059Y003744D02*
X055274Y003744D01*
X055274Y003902D02*
X054977Y003902D01*
X053996Y003902D02*
X038958Y003902D01*
X038958Y003744D02*
X053913Y003744D01*
X053874Y003585D02*
X038958Y003585D01*
X038958Y003427D02*
X053874Y003427D01*
X053930Y003268D02*
X039164Y003268D01*
X038738Y003251D02*
X038738Y005298D01*
X038163Y005873D01*
X037901Y005873D01*
X037391Y005804D02*
X002518Y005804D01*
X002518Y005963D02*
X037391Y005963D01*
X037452Y006121D02*
X002518Y006121D01*
X002518Y006280D02*
X037586Y006280D01*
X037663Y006438D02*
X002518Y006438D01*
X002518Y006597D02*
X037524Y006597D01*
X035982Y006597D01*
X035982Y006755D02*
X037463Y006755D01*
X020254Y006755D01*
X020590Y006914D02*
X037451Y006914D01*
X035982Y006914D01*
X035982Y007072D02*
X037487Y007072D01*
X020749Y007072D01*
X020854Y007231D02*
X037581Y007231D01*
X035982Y007231D01*
X036861Y007389D02*
X037810Y007389D01*
X037981Y007389D02*
X038021Y007389D01*
X038021Y007231D02*
X037981Y007231D01*
X037981Y007072D02*
X038021Y007072D01*
X038421Y007231D02*
X039919Y007231D01*
X039919Y007072D02*
X038514Y007072D01*
X055219Y007072D01*
X055041Y007231D02*
X038421Y007231D01*
X038192Y007389D02*
X039040Y007389D01*
X038851Y007548D02*
X037051Y007548D01*
X037209Y007706D02*
X038692Y007706D01*
X038527Y007865D02*
X037375Y007865D01*
X037672Y008023D02*
X038229Y008023D01*
X038021Y006914D02*
X037981Y006914D01*
X038551Y006914D02*
X039919Y006914D01*
X039919Y006755D02*
X038539Y006755D01*
X055274Y006755D01*
X055270Y006914D02*
X038551Y006914D01*
X038477Y006597D02*
X039919Y006597D01*
X038477Y006597D02*
X055274Y006597D01*
X055274Y006438D02*
X038338Y006438D01*
X038215Y006280D02*
X055274Y006280D01*
X055274Y006121D02*
X038350Y006121D01*
X038411Y005963D02*
X055274Y005963D01*
X055274Y005804D02*
X038543Y005804D01*
X038702Y005646D02*
X055274Y005646D01*
X055274Y005487D02*
X038860Y005487D01*
X038958Y005329D02*
X055274Y005329D01*
X055274Y005170D02*
X038958Y005170D01*
X038958Y005012D02*
X055274Y005012D01*
X055274Y004853D02*
X038958Y004853D01*
X038958Y004695D02*
X055274Y004695D01*
X055274Y004536D02*
X038958Y004536D01*
X038958Y004378D02*
X055274Y004378D01*
X055274Y004219D02*
X038958Y004219D01*
X038958Y004061D02*
X054176Y004061D01*
X054797Y004061D02*
X055274Y004061D01*
X045394Y002317D02*
X043381Y002317D01*
X043539Y002159D02*
X045116Y002159D01*
X045132Y002175D02*
X045132Y002175D01*
X044957Y002000D02*
X043698Y002000D01*
X044075Y001842D02*
X044799Y001842D01*
X044640Y001683D02*
X044189Y001683D01*
X044232Y001525D02*
X044482Y001525D01*
X044323Y001366D02*
X044226Y001366D01*
X045364Y002309D02*
X045364Y002309D01*
X035771Y002951D02*
X023546Y002951D01*
X023594Y003110D02*
X035533Y003110D01*
X035426Y003268D02*
X023565Y003268D01*
X023486Y003427D02*
X035370Y003427D01*
X037787Y004378D02*
X023562Y004378D01*
X023266Y004393D02*
X023746Y004873D01*
X038001Y004873D01*
X037577Y005170D02*
X002518Y005170D01*
X002518Y005012D02*
X023574Y005012D01*
X023415Y004853D02*
X002518Y004853D01*
X002518Y004695D02*
X023257Y004695D01*
X023098Y004536D02*
X020476Y004536D01*
X019598Y004536D02*
X002518Y004536D01*
X002518Y004378D02*
X019392Y004378D01*
X019248Y004219D02*
X002518Y004219D01*
X002518Y004061D02*
X017168Y004061D01*
X017789Y004061D02*
X019182Y004061D01*
X020683Y004378D02*
X023046Y004378D01*
X023046Y004219D02*
X020827Y004219D01*
X020892Y004061D02*
X023046Y004061D01*
X023046Y003902D02*
X020956Y003902D01*
X020956Y003744D02*
X023046Y003744D01*
X023266Y003133D02*
X023266Y004393D01*
X023720Y004536D02*
X037616Y004536D01*
X037768Y005329D02*
X002518Y005329D01*
X002518Y005487D02*
X037565Y005487D01*
X037443Y005646D02*
X002518Y005646D01*
X002518Y006755D02*
X019821Y006755D01*
X019484Y006914D02*
X002521Y006914D01*
X002572Y007072D02*
X019326Y007072D01*
X019221Y007231D02*
X002751Y007231D01*
X020545Y002163D02*
X025319Y002163D01*
X025125Y001969D01*
X024954Y001898D01*
X024815Y001759D01*
X024762Y001632D01*
X024745Y001684D01*
X024707Y001759D01*
X024657Y001827D01*
X024598Y001887D01*
X024530Y001936D01*
X024455Y001974D01*
X024375Y002000D01*
X024292Y002014D01*
X024288Y002014D01*
X024288Y001517D01*
X024212Y001517D01*
X024212Y002014D01*
X024208Y002014D01*
X024125Y002000D01*
X024045Y001974D01*
X023970Y001936D01*
X023902Y001887D01*
X023842Y001827D01*
X023793Y001759D01*
X023755Y001684D01*
X023738Y001632D01*
X023685Y001759D01*
X023546Y001898D01*
X023364Y001974D01*
X023167Y001974D01*
X022986Y001898D01*
X022847Y001759D01*
X022771Y001578D01*
X022771Y001381D01*
X022847Y001199D01*
X022848Y001197D01*
X021741Y001197D01*
X021669Y001202D01*
X021528Y001240D01*
X021402Y001313D01*
X021347Y001361D01*
X021280Y001428D01*
X020689Y002019D01*
X020627Y002081D01*
X020545Y002163D01*
X020549Y002159D02*
X025315Y002159D01*
X025156Y002000D02*
X024376Y002000D01*
X024288Y002000D02*
X024212Y002000D01*
X024124Y002000D02*
X020708Y002000D01*
X020866Y001842D02*
X022929Y001842D01*
X022815Y001683D02*
X021025Y001683D01*
X021183Y001525D02*
X022771Y001525D01*
X022777Y001366D02*
X021342Y001366D01*
X021648Y001208D02*
X022843Y001208D01*
X024212Y001525D02*
X024288Y001525D01*
X024288Y001683D02*
X024212Y001683D01*
X024212Y001842D02*
X024288Y001842D01*
X024643Y001842D02*
X024898Y001842D01*
X024784Y001683D02*
X024745Y001683D01*
X023857Y001842D02*
X023602Y001842D01*
X023716Y001683D02*
X023754Y001683D01*
D14*
X023266Y003133D03*
X022203Y003133D03*
X025746Y003133D03*
X029289Y003133D03*
X033226Y003133D03*
X036770Y003330D03*
X039014Y002975D03*
X041100Y003330D03*
X046612Y002542D03*
X049368Y002542D03*
X054880Y002542D03*
X054880Y004904D03*
X051337Y004904D03*
X044250Y004904D03*
X040707Y004904D03*
X034211Y004314D03*
X031258Y004314D03*
X027715Y004314D03*
X024959Y004314D03*
X022596Y004314D03*
X018659Y003330D03*
X010785Y003330D03*
X006455Y002503D03*
X005392Y002503D03*
X003699Y002542D03*
X003699Y004904D03*
X007242Y004904D03*
X014329Y004904D03*
X012360Y007070D03*
X008817Y007070D03*
X005667Y007070D03*
X017478Y007070D03*
X022596Y007070D03*
X027715Y007070D03*
X031258Y007070D03*
X035785Y007070D03*
X042675Y007070D03*
X046612Y007070D03*
X049368Y007070D03*
X053305Y007070D03*
X033226Y005692D03*
X025746Y005692D03*
D15*
X037631Y002503D02*
X038001Y002873D01*
X038053Y002873D01*
X038423Y002503D01*
X040077Y002503D01*
X040470Y002109D01*
X043108Y002109D01*
X043738Y001479D01*
X037631Y002503D02*
X026140Y002503D01*
X025234Y001597D01*
X025234Y001479D01*
X026140Y002503D02*
X007754Y002503D01*
X006730Y001479D01*
M02*
