%
M48
M72
T01C0.0236
T02C0.0400
T03C0.0472
T04C0.0630
T05C0.1378
%
T01
X3699Y2542
X10785Y2542
X17872Y2542
X22203Y2542
X29289Y2542
X35982Y2542
X41100Y2542
X47793Y2542
X54880Y2542
X54880Y5692
X51337Y5692
X44250Y5692
X40707Y5692
X33226Y5692
X25746Y5692
X14329Y5692
X7242Y5692
X3699Y5692
X3699Y8841
X10785Y8841
X17872Y8841
X22203Y8841
X29289Y8841
X36376Y8841
X40707Y8841
X47793Y8841
X54880Y8841
T02
X38001Y5692
X37901Y4692
X38001Y3692
X37901Y2692
X38001Y1692
T03
X4762Y1479
X5746Y1479
X6730Y1479
X23266Y1479
X24250Y1479
X25234Y1479
X41770Y1479
X42754Y1479
X43738Y1479
T04
X35982Y3526
X17478Y3526
X24565Y8251
X6061Y8251
X43069Y8251
X54486Y3526
T05
X56652Y3723
X56652Y7660
X38541Y7660
X20037Y7660
X20037Y3723
M30
