G75*
%MOIN*%
%OFA0B0*%
%FSLAX24Y24*%
%IPPOS*%
%LPD*%
%AMOC8*
5,1,8,0,0,1.08239X$1,22.5*
%
%ADD10C,0.0709*%
%ADD11C,0.0945*%
%ADD12R,0.0394X0.0433*%
%ADD13R,0.0433X0.0394*%
%ADD14C,0.0740*%
%ADD15C,0.0160*%
%ADD16C,0.0376*%
D10*
X004762Y001479D03*
X005746Y001479D03*
X006730Y001479D03*
X023266Y001479D03*
X024250Y001479D03*
X025234Y001479D03*
X041770Y001479D03*
X042754Y001479D03*
X043738Y001479D03*
D11*
X035982Y003526D03*
X017478Y003526D03*
X024565Y008251D03*
X006061Y008251D03*
X043069Y008251D03*
X054486Y003526D03*
D12*
X022144Y001755D03*
X021474Y001755D03*
X003758Y001479D03*
X003089Y001479D03*
D13*
X039526Y002995D03*
X039526Y003664D03*
D14*
X037901Y003873D03*
X038001Y004873D03*
X037901Y005873D03*
X038001Y006873D03*
X038001Y002873D03*
D15*
X002743Y001461D02*
X002518Y001686D01*
X002518Y006873D01*
X002524Y006941D01*
X002541Y007008D01*
X002570Y007070D01*
X002610Y007126D01*
X002658Y007175D01*
X002715Y007214D01*
X002777Y007243D01*
X002843Y007261D01*
X002911Y007267D01*
X019206Y007267D01*
X019258Y007140D01*
X019517Y006881D01*
X019855Y006741D01*
X020220Y006741D01*
X020558Y006881D01*
X020816Y007140D01*
X020869Y007267D01*
X037617Y007267D01*
X037581Y007231D01*
X037530Y007161D01*
X037491Y007084D01*
X037464Y007002D01*
X037451Y006916D01*
X037451Y006893D01*
X037981Y006893D01*
X037981Y007423D01*
X037957Y007423D01*
X037872Y007409D01*
X037790Y007383D01*
X037712Y007343D01*
X037642Y007292D01*
X037581Y007231D01*
X037530Y007161D01*
X037491Y007084D01*
X037464Y007002D01*
X037451Y006916D01*
X037451Y006893D01*
X037981Y006893D01*
X038021Y006893D01*
X038551Y006893D01*
X038551Y006916D01*
X038537Y007002D01*
X038510Y007084D01*
X038471Y007161D01*
X038420Y007231D01*
X038359Y007292D01*
X038289Y007343D01*
X038212Y007383D01*
X038130Y007409D01*
X038044Y007423D01*
X038021Y007423D01*
X038021Y006893D01*
X038021Y006853D01*
X038551Y006853D01*
X038551Y006830D01*
X038537Y006744D01*
X038510Y006662D01*
X038471Y006585D01*
X038420Y006515D01*
X038385Y006479D01*
X039919Y006479D01*
X039919Y007267D01*
X039458Y007267D01*
X039335Y007276D01*
X039215Y007305D01*
X039101Y007352D01*
X038995Y007417D01*
X038901Y007497D01*
X038575Y007823D01*
X038481Y007904D01*
X038376Y007968D01*
X038262Y008015D01*
X038141Y008044D01*
X038018Y008054D01*
X037883Y008054D01*
X037760Y008044D01*
X037640Y008015D01*
X037526Y007968D01*
X037420Y007904D01*
X037326Y007823D01*
X037000Y007497D01*
X036906Y007417D01*
X036801Y007352D01*
X036687Y007305D01*
X036567Y007276D01*
X036443Y007267D01*
X035982Y007267D01*
X035982Y006479D01*
X037617Y006479D01*
X037581Y006515D01*
X037530Y006585D01*
X037491Y006662D01*
X037464Y006744D01*
X037451Y006830D01*
X037451Y006853D01*
X037981Y006853D01*
X037981Y006893D01*
X037981Y006853D01*
X037451Y006853D01*
X037451Y006830D01*
X037464Y006744D01*
X037491Y006662D01*
X037530Y006585D01*
X037581Y006515D01*
X037642Y006453D01*
X037712Y006403D01*
X037773Y006372D01*
X037612Y006305D01*
X037468Y006162D01*
X037391Y005974D01*
X037391Y005771D01*
X037468Y005584D01*
X037612Y005441D01*
X037799Y005363D01*
X037851Y005363D01*
X037712Y005305D01*
X037568Y005162D01*
X037491Y004974D01*
X037491Y004771D01*
X037568Y004584D01*
X037712Y004441D01*
X037851Y004383D01*
X037799Y004383D01*
X037730Y004354D01*
X037680Y004405D01*
X037551Y004534D01*
X034789Y004534D01*
X034198Y003943D01*
X021915Y003943D01*
X020576Y002605D01*
X019268Y002605D01*
X018919Y002983D01*
X018919Y002988D01*
X018857Y003049D01*
X018799Y003113D01*
X018793Y003113D01*
X018790Y003117D01*
X018703Y003117D01*
X018616Y003120D01*
X018613Y003117D01*
X017934Y003117D01*
X017997Y003180D01*
X018091Y003405D01*
X018091Y003648D01*
X017997Y003873D01*
X017825Y004046D01*
X017600Y004139D01*
X017356Y004139D01*
X017131Y004046D01*
X016959Y003873D01*
X016866Y003648D01*
X016866Y003405D01*
X016959Y003180D01*
X017022Y003117D01*
X005143Y003117D01*
X005014Y002988D01*
X004542Y002515D01*
X004542Y002333D01*
X004671Y002204D01*
X004853Y002204D01*
X005325Y002677D01*
X018602Y002677D01*
X018878Y002379D01*
X008615Y002379D01*
X008357Y002309D01*
X008357Y002309D01*
X008125Y002175D01*
X008125Y002175D01*
X008030Y002081D01*
X008030Y002081D01*
X007963Y002013D01*
X007377Y001428D01*
X007310Y001361D01*
X007255Y001313D01*
X007178Y001268D01*
X007225Y001381D01*
X007225Y001578D01*
X007149Y001759D01*
X007010Y001898D01*
X006829Y001974D01*
X006632Y001974D01*
X006450Y001898D01*
X006311Y001759D01*
X006258Y001632D01*
X006241Y001684D01*
X006203Y001759D01*
X006154Y001827D01*
X006094Y001887D01*
X006026Y001936D01*
X005951Y001974D01*
X005871Y002000D01*
X005788Y002014D01*
X005784Y002014D01*
X005784Y001517D01*
X005708Y001517D01*
X005708Y002014D01*
X005704Y002014D01*
X005621Y002000D01*
X005541Y001974D01*
X005466Y001936D01*
X005398Y001887D01*
X005338Y001827D01*
X005289Y001759D01*
X005251Y001684D01*
X005234Y001632D01*
X005181Y001759D01*
X005042Y001898D01*
X004860Y001974D01*
X004663Y001974D01*
X004482Y001898D01*
X004343Y001759D01*
X004318Y001699D01*
X004095Y001699D01*
X004095Y001754D01*
X004013Y001836D01*
X003503Y001836D01*
X003446Y001778D01*
X003429Y001806D01*
X003396Y001840D01*
X003355Y001863D01*
X003309Y001876D01*
X003107Y001876D01*
X003107Y001498D01*
X003070Y001498D01*
X003070Y001876D01*
X002868Y001876D01*
X002822Y001863D01*
X002781Y001840D01*
X002748Y001806D01*
X002724Y001765D01*
X002712Y001719D01*
X002712Y001498D01*
X003070Y001498D01*
X003070Y001461D01*
X002743Y001461D01*
X002712Y001525D02*
X002679Y001525D01*
X002712Y001683D02*
X002521Y001683D01*
X002518Y001842D02*
X002784Y001842D01*
X003070Y001842D02*
X003107Y001842D01*
X003107Y001683D02*
X003070Y001683D01*
X003070Y001525D02*
X003107Y001525D01*
X003758Y001479D02*
X004762Y001479D01*
X005708Y001525D02*
X005784Y001525D01*
X005784Y001683D02*
X005708Y001683D01*
X005708Y001842D02*
X005784Y001842D01*
X006139Y001842D02*
X006394Y001842D01*
X006280Y001683D02*
X006242Y001683D01*
X005353Y001842D02*
X005098Y001842D01*
X005212Y001683D02*
X005250Y001683D01*
X004425Y001842D02*
X003393Y001842D01*
X002518Y002000D02*
X005620Y002000D01*
X005708Y002000D02*
X005784Y002000D01*
X005872Y002000D02*
X007950Y002000D01*
X007963Y002013D02*
X007963Y002013D01*
X008108Y002159D02*
X002518Y002159D01*
X002518Y002317D02*
X004558Y002317D01*
X004542Y002476D02*
X002518Y002476D01*
X002518Y002634D02*
X004661Y002634D01*
X005124Y002476D02*
X018788Y002476D01*
X018642Y002634D02*
X005283Y002634D01*
X005234Y002897D02*
X004762Y002424D01*
X004966Y002317D02*
X008387Y002317D01*
X007791Y001842D02*
X007067Y001842D01*
X007181Y001683D02*
X007633Y001683D01*
X007474Y001525D02*
X007225Y001525D01*
X007377Y001428D02*
X007377Y001428D01*
X007316Y001366D02*
X007218Y001366D01*
X004819Y002793D02*
X002518Y002793D01*
X002518Y002951D02*
X004978Y002951D01*
X005136Y003110D02*
X002518Y003110D01*
X002518Y003268D02*
X016922Y003268D01*
X016866Y003427D02*
X002518Y003427D01*
X002518Y003585D02*
X016866Y003585D01*
X016905Y003744D02*
X002518Y003744D01*
X002518Y003902D02*
X016988Y003902D01*
X017969Y003902D02*
X019118Y003902D01*
X019118Y003906D02*
X019118Y003541D01*
X019258Y003203D01*
X019517Y002944D01*
X019855Y002804D01*
X020220Y002804D01*
X020558Y002944D01*
X020816Y003203D01*
X020956Y003541D01*
X020956Y003906D01*
X020816Y004244D01*
X020558Y004502D01*
X020220Y004642D01*
X019855Y004642D01*
X019517Y004502D01*
X019258Y004244D01*
X019118Y003906D01*
X019118Y003744D02*
X018051Y003744D01*
X018091Y003585D02*
X019118Y003585D01*
X019165Y003427D02*
X018091Y003427D01*
X018034Y003268D02*
X019231Y003268D01*
X019351Y003110D02*
X018801Y003110D01*
X018948Y002951D02*
X019510Y002951D01*
X019094Y002793D02*
X020764Y002793D01*
X020923Y002951D02*
X020565Y002951D01*
X020723Y003110D02*
X021081Y003110D01*
X021545Y002951D02*
X022986Y002951D01*
X022988Y002947D02*
X023046Y002889D01*
X023046Y001975D01*
X022480Y001975D01*
X022480Y002029D01*
X022398Y002111D01*
X021889Y002111D01*
X021831Y002054D01*
X021815Y002082D01*
X021782Y002115D01*
X021741Y002139D01*
X021695Y002151D01*
X021493Y002151D01*
X021493Y001773D01*
X021456Y001773D01*
X021456Y001736D01*
X021493Y001736D01*
X021493Y001358D01*
X021695Y001358D01*
X021741Y001371D01*
X021782Y001394D01*
X021815Y001428D01*
X021831Y001456D01*
X021889Y001398D01*
X022398Y001398D01*
X022480Y001480D01*
X022480Y001535D01*
X022771Y001535D01*
X022771Y001381D01*
X022847Y001199D01*
X022848Y001197D01*
X021741Y001197D01*
X021669Y001202D01*
X021528Y001240D01*
X021402Y001313D01*
X021350Y001358D01*
X021456Y001358D01*
X021456Y001736D01*
X021097Y001736D01*
X021097Y001610D01*
X020689Y002019D01*
X020627Y002081D01*
X020543Y002165D01*
X020758Y002165D01*
X022097Y003503D01*
X034380Y003503D01*
X034509Y003632D01*
X034971Y004094D01*
X035752Y004094D01*
X035635Y004046D01*
X035463Y003873D01*
X035370Y003648D01*
X035370Y003405D01*
X035463Y003180D01*
X035635Y003007D01*
X035860Y002914D01*
X036104Y002914D01*
X036329Y003007D01*
X036501Y003180D01*
X036595Y003405D01*
X036595Y003648D01*
X036501Y003873D01*
X036329Y004046D01*
X036213Y004094D01*
X037369Y004094D01*
X037419Y004043D01*
X037391Y003974D01*
X037391Y003771D01*
X037468Y003584D01*
X037612Y003441D01*
X037799Y003363D01*
X037851Y003363D01*
X037712Y003305D01*
X037568Y003162D01*
X037491Y002974D01*
X037491Y002771D01*
X037568Y002584D01*
X037712Y002441D01*
X037862Y002379D01*
X027119Y002379D01*
X026861Y002309D01*
X026861Y002309D01*
X026629Y002175D01*
X026629Y002175D01*
X026534Y002081D01*
X026534Y002081D01*
X026466Y002013D01*
X025880Y001427D01*
X025814Y001361D01*
X025814Y001361D01*
X025759Y001313D01*
X025682Y001268D01*
X025729Y001381D01*
X025729Y001578D01*
X025653Y001759D01*
X025514Y001898D01*
X025333Y001974D01*
X025136Y001974D01*
X024954Y001898D01*
X024815Y001759D01*
X024762Y001632D01*
X024745Y001684D01*
X024707Y001759D01*
X024657Y001827D01*
X024598Y001887D01*
X024530Y001936D01*
X024455Y001974D01*
X024375Y002000D01*
X024292Y002014D01*
X024288Y002014D01*
X024288Y001517D01*
X024212Y001517D01*
X024212Y002014D01*
X024208Y002014D01*
X024125Y002000D01*
X024045Y001974D01*
X023970Y001936D01*
X023902Y001887D01*
X023842Y001827D01*
X023793Y001759D01*
X023755Y001684D01*
X023738Y001632D01*
X023685Y001759D01*
X023546Y001898D01*
X023486Y001923D01*
X023486Y002889D01*
X023544Y002947D01*
X023594Y003067D01*
X023594Y003198D01*
X023544Y003319D01*
X023452Y003411D01*
X023331Y003461D01*
X023200Y003461D01*
X023080Y003411D01*
X022988Y003319D01*
X022938Y003198D01*
X022938Y003067D01*
X022988Y002947D01*
X023046Y002793D02*
X021386Y002793D01*
X021228Y002634D02*
X023046Y002634D01*
X023046Y002476D02*
X021069Y002476D01*
X020911Y002317D02*
X023046Y002317D01*
X023486Y002317D02*
X026891Y002317D01*
X026612Y002159D02*
X023486Y002159D01*
X023486Y002000D02*
X024124Y002000D01*
X024212Y002000D02*
X024288Y002000D01*
X024376Y002000D02*
X026454Y002000D01*
X026466Y002013D02*
X026466Y002013D01*
X026295Y001842D02*
X025571Y001842D01*
X025685Y001683D02*
X026137Y001683D01*
X025978Y001525D02*
X025729Y001525D01*
X024784Y001683D02*
X024745Y001683D01*
X024643Y001842D02*
X024898Y001842D01*
X024288Y001842D02*
X024212Y001842D01*
X024212Y001683D02*
X024288Y001683D01*
X024288Y001525D02*
X024212Y001525D01*
X023754Y001683D02*
X023716Y001683D01*
X023602Y001842D02*
X023857Y001842D01*
X023266Y001479D02*
X022990Y001755D01*
X022144Y001755D01*
X021493Y001683D02*
X021456Y001683D01*
X021456Y001773D02*
X021097Y001773D01*
X021097Y001995D01*
X021110Y002041D01*
X021133Y002082D01*
X021167Y002115D01*
X021208Y002139D01*
X021254Y002151D01*
X021456Y002151D01*
X021456Y001773D01*
X021456Y001842D02*
X021493Y001842D01*
X021097Y001842D02*
X020866Y001842D01*
X021025Y001683D02*
X021097Y001683D01*
X021456Y001525D02*
X021493Y001525D01*
X021493Y001366D02*
X021456Y001366D01*
X021648Y001208D02*
X022843Y001208D01*
X022777Y001366D02*
X021725Y001366D01*
X022480Y001525D02*
X022771Y001525D01*
X023266Y001479D02*
X023266Y003133D01*
X023565Y003268D02*
X035426Y003268D01*
X035370Y003427D02*
X023413Y003427D01*
X023118Y003427D02*
X022020Y003427D01*
X021862Y003268D02*
X022967Y003268D01*
X022938Y003110D02*
X021703Y003110D01*
X021240Y003268D02*
X020844Y003268D01*
X020909Y003427D02*
X021398Y003427D01*
X021557Y003585D02*
X020956Y003585D01*
X020956Y003744D02*
X021715Y003744D01*
X021874Y003902D02*
X020956Y003902D01*
X020892Y004061D02*
X034316Y004061D01*
X034474Y004219D02*
X020827Y004219D01*
X020683Y004378D02*
X034633Y004378D01*
X034880Y004314D02*
X034289Y003723D01*
X022006Y003723D01*
X020667Y002385D01*
X019171Y002385D01*
X018699Y002897D01*
X005234Y002897D01*
X002518Y004061D02*
X017168Y004061D01*
X017789Y004061D02*
X019182Y004061D01*
X019248Y004219D02*
X002518Y004219D01*
X002518Y004378D02*
X019392Y004378D01*
X019598Y004536D02*
X002518Y004536D01*
X002518Y004695D02*
X037523Y004695D01*
X037491Y004853D02*
X002518Y004853D01*
X002518Y005012D02*
X037506Y005012D01*
X037577Y005170D02*
X002518Y005170D01*
X002518Y005329D02*
X037768Y005329D01*
X037565Y005487D02*
X002518Y005487D01*
X002518Y005646D02*
X037443Y005646D01*
X037391Y005804D02*
X002518Y005804D01*
X002518Y005963D02*
X037391Y005963D01*
X037452Y006121D02*
X002518Y006121D01*
X002518Y006280D02*
X037586Y006280D01*
X037663Y006438D02*
X002518Y006438D01*
X002518Y006597D02*
X037524Y006597D01*
X035982Y006597D01*
X035982Y006755D02*
X037463Y006755D01*
X020254Y006755D01*
X020590Y006914D02*
X037451Y006914D01*
X035982Y006914D01*
X035982Y007072D02*
X037487Y007072D01*
X020749Y007072D01*
X020854Y007231D02*
X037581Y007231D01*
X035982Y007231D01*
X036861Y007389D02*
X037810Y007389D01*
X037981Y007389D02*
X038021Y007389D01*
X038021Y007231D02*
X037981Y007231D01*
X037981Y007072D02*
X038021Y007072D01*
X038385Y007267D02*
X054880Y007267D01*
X054948Y007261D01*
X055015Y007243D01*
X055077Y007214D01*
X055133Y007175D01*
X055181Y007126D01*
X055221Y007070D01*
X055250Y007008D01*
X055268Y006941D01*
X055274Y006873D01*
X055274Y002379D01*
X045623Y002379D01*
X045364Y002309D01*
X045132Y002175D01*
X045038Y002081D01*
X045038Y002081D01*
X045000Y002043D01*
X044384Y001427D01*
X044318Y001361D01*
X044263Y001313D01*
X044186Y001268D01*
X044232Y001381D01*
X044232Y001578D01*
X044157Y001759D01*
X044018Y001898D01*
X043836Y001974D01*
X043640Y001974D01*
X043458Y001898D01*
X043319Y001759D01*
X043266Y001632D01*
X043249Y001684D01*
X043211Y001759D01*
X043161Y001827D01*
X043102Y001887D01*
X043034Y001936D01*
X042959Y001974D01*
X042879Y002000D01*
X042796Y002014D01*
X042792Y002014D01*
X042792Y001517D01*
X042716Y001517D01*
X042716Y002014D01*
X042712Y002014D01*
X042629Y002000D01*
X042549Y001974D01*
X042474Y001936D01*
X042406Y001887D01*
X042346Y001827D01*
X042297Y001759D01*
X042259Y001684D01*
X042242Y001632D01*
X042189Y001759D01*
X042050Y001898D01*
X041868Y001974D01*
X041671Y001974D01*
X041490Y001898D01*
X041388Y001797D01*
X039882Y002993D01*
X039882Y003250D01*
X039825Y003307D01*
X039853Y003323D01*
X039886Y003357D01*
X039910Y003398D01*
X039922Y003444D01*
X039922Y003646D01*
X039544Y003646D01*
X039544Y003683D01*
X039507Y003683D01*
X039507Y004041D01*
X039285Y004041D01*
X039240Y004029D01*
X039198Y004005D01*
X039165Y003972D01*
X039141Y003931D01*
X039129Y003885D01*
X039129Y003683D01*
X039507Y003683D01*
X039507Y003646D01*
X039129Y003646D01*
X039129Y003444D01*
X039141Y003398D01*
X039165Y003357D01*
X039198Y003323D01*
X039226Y003307D01*
X039181Y003261D01*
X039079Y003303D01*
X038948Y003303D01*
X038828Y003253D01*
X038736Y003161D01*
X038686Y003041D01*
X038686Y002910D01*
X038736Y002789D01*
X038828Y002697D01*
X038948Y002647D01*
X039079Y002647D01*
X039200Y002697D01*
X039206Y002703D01*
X039251Y002658D01*
X039596Y002658D01*
X040168Y002204D01*
X039986Y002309D01*
X039986Y002309D01*
X039727Y002379D01*
X038140Y002379D01*
X038290Y002441D01*
X038433Y002584D01*
X038511Y002771D01*
X038511Y002974D01*
X038433Y003162D01*
X038290Y003305D01*
X038102Y003383D01*
X038050Y003383D01*
X038190Y003441D01*
X038333Y003584D01*
X038411Y003771D01*
X038411Y003974D01*
X038333Y004162D01*
X038190Y004305D01*
X038050Y004363D01*
X038102Y004363D01*
X038290Y004441D01*
X038433Y004584D01*
X038511Y004771D01*
X038511Y004974D01*
X038433Y005162D01*
X038290Y005305D01*
X038102Y005383D01*
X038050Y005383D01*
X038190Y005441D01*
X038333Y005584D01*
X038411Y005771D01*
X038411Y005974D01*
X038333Y006162D01*
X038190Y006305D01*
X038119Y006335D01*
X038130Y006336D01*
X038212Y006363D01*
X038289Y006403D01*
X038359Y006453D01*
X038420Y006515D01*
X038471Y006585D01*
X038510Y006662D01*
X038537Y006744D01*
X038551Y006830D01*
X038551Y006853D01*
X038021Y006853D01*
X038021Y006893D01*
X038551Y006893D01*
X038551Y006916D01*
X038537Y007002D01*
X038510Y007084D01*
X038471Y007161D01*
X038420Y007231D01*
X038385Y007267D01*
X038421Y007231D02*
X039919Y007231D01*
X039919Y007072D02*
X038514Y007072D01*
X055219Y007072D01*
X055041Y007231D02*
X038421Y007231D01*
X038192Y007389D02*
X039040Y007389D01*
X038851Y007548D02*
X037051Y007548D01*
X037209Y007706D02*
X038692Y007706D01*
X038527Y007865D02*
X037375Y007865D01*
X037672Y008023D02*
X038229Y008023D01*
X038021Y006914D02*
X037981Y006914D01*
X038551Y006914D02*
X039919Y006914D01*
X039919Y006755D02*
X038539Y006755D01*
X055274Y006755D01*
X055270Y006914D02*
X038551Y006914D01*
X038477Y006597D02*
X039919Y006597D01*
X038477Y006597D02*
X055274Y006597D01*
X055274Y006438D02*
X038338Y006438D01*
X038215Y006280D02*
X055274Y006280D01*
X055274Y006121D02*
X038350Y006121D01*
X038411Y005963D02*
X055274Y005963D01*
X055274Y005804D02*
X038411Y005804D01*
X038359Y005646D02*
X055274Y005646D01*
X055274Y005487D02*
X038236Y005487D01*
X038233Y005329D02*
X055274Y005329D01*
X055274Y005170D02*
X038425Y005170D01*
X038495Y005012D02*
X055274Y005012D01*
X055274Y004853D02*
X038511Y004853D01*
X038479Y004695D02*
X055274Y004695D01*
X055274Y004536D02*
X038385Y004536D01*
X037616Y004536D02*
X020476Y004536D01*
X023594Y003110D02*
X035533Y003110D01*
X035771Y002951D02*
X023546Y002951D01*
X023486Y002793D02*
X037491Y002793D01*
X037491Y002951D02*
X036194Y002951D01*
X036432Y003110D02*
X037547Y003110D01*
X038455Y003110D02*
X038714Y003110D01*
X038686Y002951D02*
X038511Y002951D01*
X038511Y002793D02*
X038734Y002793D01*
X039014Y002975D02*
X039506Y002975D01*
X039526Y002995D02*
X041435Y001479D01*
X041770Y001479D01*
X042716Y001525D02*
X042792Y001525D01*
X042792Y001683D02*
X042716Y001683D01*
X042716Y001842D02*
X042792Y001842D01*
X043147Y001842D02*
X043402Y001842D01*
X043288Y001683D02*
X043249Y001683D01*
X042361Y001842D02*
X042106Y001842D01*
X042220Y001683D02*
X042258Y001683D01*
X041433Y001842D02*
X041332Y001842D01*
X041133Y002000D02*
X042628Y002000D01*
X042716Y002000D02*
X042792Y002000D01*
X042880Y002000D02*
X044957Y002000D01*
X045116Y002159D02*
X040933Y002159D01*
X040733Y002317D02*
X045394Y002317D01*
X045364Y002309D02*
X045364Y002309D01*
X045132Y002175D02*
X045132Y002175D01*
X044799Y001842D02*
X044075Y001842D01*
X044189Y001683D02*
X044640Y001683D01*
X044482Y001525D02*
X044232Y001525D01*
X044226Y001366D02*
X044323Y001366D01*
X040025Y002317D02*
X039956Y002317D01*
X039826Y002476D02*
X038325Y002476D01*
X038454Y002634D02*
X039626Y002634D01*
X040334Y002634D02*
X055274Y002634D01*
X055274Y002476D02*
X040533Y002476D01*
X040134Y002793D02*
X055274Y002793D01*
X055274Y002951D02*
X054698Y002951D01*
X054608Y002914D02*
X054833Y003007D01*
X055005Y003180D01*
X055099Y003405D01*
X055099Y003648D01*
X055005Y003873D01*
X054833Y004046D01*
X054608Y004139D01*
X054364Y004139D01*
X054139Y004046D01*
X053967Y003873D01*
X053874Y003648D01*
X053874Y003405D01*
X053967Y003180D01*
X054139Y003007D01*
X054364Y002914D01*
X054608Y002914D01*
X054275Y002951D02*
X039934Y002951D01*
X039882Y003110D02*
X054037Y003110D01*
X054936Y003110D02*
X055274Y003110D01*
X055274Y003268D02*
X055042Y003268D01*
X055099Y003427D02*
X055274Y003427D01*
X055274Y003585D02*
X055099Y003585D01*
X055059Y003744D02*
X055274Y003744D01*
X055274Y003902D02*
X054977Y003902D01*
X053996Y003902D02*
X039917Y003902D01*
X039922Y003885D02*
X039910Y003931D01*
X039886Y003972D01*
X039853Y004005D01*
X039812Y004029D01*
X039766Y004041D01*
X039544Y004041D01*
X039544Y003683D01*
X039922Y003683D01*
X039922Y003885D01*
X039922Y003744D02*
X053913Y003744D01*
X053874Y003585D02*
X039922Y003585D01*
X039918Y003427D02*
X053874Y003427D01*
X053930Y003268D02*
X039864Y003268D01*
X039187Y003268D02*
X039164Y003268D01*
X039134Y003427D02*
X038156Y003427D01*
X038327Y003268D02*
X038864Y003268D01*
X039129Y003585D02*
X038334Y003585D01*
X037645Y003427D02*
X036595Y003427D01*
X036595Y003585D02*
X037468Y003585D01*
X037402Y003744D02*
X036555Y003744D01*
X036473Y003902D02*
X037391Y003902D01*
X037460Y004314D02*
X037901Y003873D01*
X038411Y003902D02*
X039134Y003902D01*
X039129Y003744D02*
X038399Y003744D01*
X039507Y003744D02*
X039544Y003744D01*
X039544Y003902D02*
X039507Y003902D01*
X038375Y004061D02*
X054176Y004061D01*
X054797Y004061D02*
X055274Y004061D01*
X055274Y004219D02*
X038276Y004219D01*
X038138Y004378D02*
X055274Y004378D01*
X037787Y004378D02*
X037707Y004378D01*
X037460Y004314D02*
X034880Y004314D01*
X034938Y004061D02*
X035672Y004061D01*
X035492Y003902D02*
X034779Y003902D01*
X034621Y003744D02*
X035409Y003744D01*
X035370Y003585D02*
X034462Y003585D01*
X036538Y003268D02*
X037675Y003268D01*
X037548Y002634D02*
X023486Y002634D01*
X023486Y002476D02*
X037677Y002476D01*
X037402Y004061D02*
X036293Y004061D01*
X023046Y002159D02*
X020549Y002159D01*
X020708Y002000D02*
X021099Y002000D01*
X021456Y002000D02*
X021493Y002000D01*
X022480Y002000D02*
X023046Y002000D01*
X020606Y002634D02*
X019240Y002634D01*
X025722Y001366D02*
X025820Y001366D01*
X019821Y006755D02*
X002518Y006755D01*
X002521Y006914D02*
X019484Y006914D01*
X019326Y007072D02*
X002572Y007072D01*
X002751Y007231D02*
X019221Y007231D01*
D16*
X017478Y007070D03*
X012360Y007070D03*
X008817Y007070D03*
X005667Y007070D03*
X007242Y004904D03*
X003699Y004904D03*
X010785Y003330D03*
X006455Y002503D03*
X005392Y002503D03*
X003699Y002542D03*
X014329Y004904D03*
X018659Y003330D03*
X022203Y003133D03*
X023266Y003133D03*
X025746Y003133D03*
X029289Y003133D03*
X033226Y003133D03*
X036770Y003330D03*
X039014Y002975D03*
X041100Y003330D03*
X046612Y002542D03*
X049368Y002542D03*
X054880Y002542D03*
X054880Y004904D03*
X051337Y004904D03*
X044250Y004904D03*
X040707Y004904D03*
X034211Y004314D03*
X031258Y004314D03*
X027715Y004314D03*
X024959Y004314D03*
X022596Y004314D03*
X025746Y005692D03*
X027715Y007070D03*
X031258Y007070D03*
X035785Y007070D03*
X042675Y007070D03*
X046612Y007070D03*
X049368Y007070D03*
X053305Y007070D03*
X033226Y005692D03*
X022596Y007070D03*
M02*
