G75*
%MOIN*%
%OFA0B0*%
%FSLAX24Y24*%
%IPPOS*%
%LPD*%
%AMOC8*
5,1,8,0,0,1.08239X$1,22.5*
%
%ADD10C,0.0000*%
D10*
X003074Y000967D02*
X006916Y000967D01*
X007473Y001198D02*
X008193Y001918D01*
X008749Y002149D02*
X019908Y002149D01*
X020465Y001918D02*
X021185Y001198D01*
X021741Y000967D02*
X025420Y000967D01*
X025977Y001198D02*
X026696Y001918D01*
X027253Y002149D02*
X039593Y002149D01*
X040150Y001918D02*
X040870Y001198D01*
X041426Y000967D02*
X043924Y000967D01*
X044481Y001198D02*
X045200Y001918D01*
X045757Y002149D02*
X057636Y002149D01*
X057636Y002148D02*
X057675Y002150D01*
X057713Y002156D01*
X057750Y002165D01*
X057787Y002178D01*
X057822Y002195D01*
X057855Y002214D01*
X057886Y002237D01*
X057915Y002263D01*
X057941Y002292D01*
X057964Y002323D01*
X057983Y002356D01*
X058000Y002391D01*
X058013Y002428D01*
X058022Y002465D01*
X058028Y002503D01*
X058030Y002542D01*
X058029Y002542D02*
X058029Y009038D01*
X058030Y009038D02*
X058028Y009077D01*
X058022Y009115D01*
X058013Y009152D01*
X058000Y009189D01*
X057983Y009224D01*
X057964Y009257D01*
X057941Y009288D01*
X057915Y009317D01*
X057886Y009343D01*
X057855Y009366D01*
X057822Y009385D01*
X057787Y009402D01*
X057750Y009415D01*
X057713Y009424D01*
X057675Y009430D01*
X057636Y009432D01*
X002518Y009432D01*
X002479Y009430D01*
X002441Y009424D01*
X002404Y009415D01*
X002367Y009402D01*
X002332Y009385D01*
X002299Y009366D01*
X002268Y009343D01*
X002239Y009317D01*
X002213Y009288D01*
X002190Y009257D01*
X002171Y009224D01*
X002154Y009189D01*
X002141Y009152D01*
X002132Y009115D01*
X002126Y009077D01*
X002124Y009038D01*
X002124Y001918D01*
X002126Y001879D01*
X002132Y001841D01*
X002141Y001804D01*
X002154Y001767D01*
X002171Y001732D01*
X002190Y001699D01*
X002213Y001668D01*
X002239Y001639D01*
X002796Y001083D01*
X002795Y001082D02*
X002824Y001056D01*
X002855Y001033D01*
X002888Y001014D01*
X002923Y000997D01*
X002960Y000984D01*
X002997Y000975D01*
X003035Y000969D01*
X003074Y000967D01*
X006916Y000968D02*
X006967Y000970D01*
X007019Y000975D01*
X007070Y000983D01*
X007120Y000995D01*
X007169Y001010D01*
X007217Y001028D01*
X007264Y001049D01*
X007310Y001073D01*
X007353Y001101D01*
X007395Y001131D01*
X007435Y001163D01*
X007472Y001199D01*
X008193Y001917D02*
X008230Y001953D01*
X008270Y001985D01*
X008312Y002015D01*
X008355Y002043D01*
X008401Y002067D01*
X008448Y002088D01*
X008496Y002106D01*
X008545Y002121D01*
X008595Y002133D01*
X008646Y002141D01*
X008698Y002146D01*
X008749Y002148D01*
X019908Y002148D02*
X019959Y002146D01*
X020011Y002141D01*
X020062Y002133D01*
X020112Y002121D01*
X020161Y002106D01*
X020209Y002088D01*
X020256Y002067D01*
X020302Y002043D01*
X020345Y002015D01*
X020387Y001985D01*
X020427Y001953D01*
X020464Y001917D01*
X021185Y001199D02*
X021222Y001163D01*
X021262Y001131D01*
X021304Y001101D01*
X021347Y001073D01*
X021393Y001049D01*
X021440Y001028D01*
X021488Y001010D01*
X021537Y000995D01*
X021587Y000983D01*
X021638Y000975D01*
X021690Y000970D01*
X021741Y000968D01*
X025420Y000968D02*
X025471Y000970D01*
X025523Y000975D01*
X025574Y000983D01*
X025624Y000995D01*
X025673Y001010D01*
X025721Y001028D01*
X025768Y001049D01*
X025814Y001073D01*
X025857Y001101D01*
X025899Y001131D01*
X025939Y001163D01*
X025976Y001199D01*
X026697Y001917D02*
X026734Y001953D01*
X026774Y001985D01*
X026816Y002015D01*
X026859Y002043D01*
X026905Y002067D01*
X026952Y002088D01*
X027000Y002106D01*
X027049Y002121D01*
X027099Y002133D01*
X027150Y002141D01*
X027202Y002146D01*
X027253Y002148D01*
X019348Y003723D02*
X019350Y003775D01*
X019356Y003827D01*
X019366Y003878D01*
X019379Y003928D01*
X019397Y003978D01*
X019418Y004025D01*
X019442Y004071D01*
X019471Y004115D01*
X019502Y004157D01*
X019536Y004196D01*
X019573Y004233D01*
X019613Y004266D01*
X019656Y004297D01*
X019700Y004324D01*
X019746Y004348D01*
X019795Y004368D01*
X019844Y004384D01*
X019895Y004397D01*
X019946Y004406D01*
X019998Y004411D01*
X020050Y004412D01*
X020102Y004409D01*
X020154Y004402D01*
X020205Y004391D01*
X020255Y004377D01*
X020304Y004358D01*
X020351Y004336D01*
X020396Y004311D01*
X020440Y004282D01*
X020481Y004250D01*
X020520Y004215D01*
X020555Y004177D01*
X020588Y004136D01*
X020618Y004094D01*
X020644Y004049D01*
X020667Y004002D01*
X020686Y003953D01*
X020702Y003903D01*
X020714Y003853D01*
X020722Y003801D01*
X020726Y003749D01*
X020726Y003697D01*
X020722Y003645D01*
X020714Y003593D01*
X020702Y003543D01*
X020686Y003493D01*
X020667Y003444D01*
X020644Y003397D01*
X020618Y003352D01*
X020588Y003310D01*
X020555Y003269D01*
X020520Y003231D01*
X020481Y003196D01*
X020440Y003164D01*
X020396Y003135D01*
X020351Y003110D01*
X020304Y003088D01*
X020255Y003069D01*
X020205Y003055D01*
X020154Y003044D01*
X020102Y003037D01*
X020050Y003034D01*
X019998Y003035D01*
X019946Y003040D01*
X019895Y003049D01*
X019844Y003062D01*
X019795Y003078D01*
X019746Y003098D01*
X019700Y003122D01*
X019656Y003149D01*
X019613Y003180D01*
X019573Y003213D01*
X019536Y003250D01*
X019502Y003289D01*
X019471Y003331D01*
X019442Y003375D01*
X019418Y003421D01*
X019397Y003468D01*
X019379Y003518D01*
X019366Y003568D01*
X019356Y003619D01*
X019350Y003671D01*
X019348Y003723D01*
X019348Y007660D02*
X019350Y007712D01*
X019356Y007764D01*
X019366Y007815D01*
X019379Y007865D01*
X019397Y007915D01*
X019418Y007962D01*
X019442Y008008D01*
X019471Y008052D01*
X019502Y008094D01*
X019536Y008133D01*
X019573Y008170D01*
X019613Y008203D01*
X019656Y008234D01*
X019700Y008261D01*
X019746Y008285D01*
X019795Y008305D01*
X019844Y008321D01*
X019895Y008334D01*
X019946Y008343D01*
X019998Y008348D01*
X020050Y008349D01*
X020102Y008346D01*
X020154Y008339D01*
X020205Y008328D01*
X020255Y008314D01*
X020304Y008295D01*
X020351Y008273D01*
X020396Y008248D01*
X020440Y008219D01*
X020481Y008187D01*
X020520Y008152D01*
X020555Y008114D01*
X020588Y008073D01*
X020618Y008031D01*
X020644Y007986D01*
X020667Y007939D01*
X020686Y007890D01*
X020702Y007840D01*
X020714Y007790D01*
X020722Y007738D01*
X020726Y007686D01*
X020726Y007634D01*
X020722Y007582D01*
X020714Y007530D01*
X020702Y007480D01*
X020686Y007430D01*
X020667Y007381D01*
X020644Y007334D01*
X020618Y007289D01*
X020588Y007247D01*
X020555Y007206D01*
X020520Y007168D01*
X020481Y007133D01*
X020440Y007101D01*
X020396Y007072D01*
X020351Y007047D01*
X020304Y007025D01*
X020255Y007006D01*
X020205Y006992D01*
X020154Y006981D01*
X020102Y006974D01*
X020050Y006971D01*
X019998Y006972D01*
X019946Y006977D01*
X019895Y006986D01*
X019844Y006999D01*
X019795Y007015D01*
X019746Y007035D01*
X019700Y007059D01*
X019656Y007086D01*
X019613Y007117D01*
X019573Y007150D01*
X019536Y007187D01*
X019502Y007226D01*
X019471Y007268D01*
X019442Y007312D01*
X019418Y007358D01*
X019397Y007405D01*
X019379Y007455D01*
X019366Y007505D01*
X019356Y007556D01*
X019350Y007608D01*
X019348Y007660D01*
X040870Y001199D02*
X040907Y001163D01*
X040947Y001131D01*
X040989Y001101D01*
X041032Y001073D01*
X041078Y001049D01*
X041125Y001028D01*
X041173Y001010D01*
X041222Y000995D01*
X041272Y000983D01*
X041323Y000975D01*
X041375Y000970D01*
X041426Y000968D01*
X040149Y001917D02*
X040112Y001953D01*
X040072Y001985D01*
X040030Y002015D01*
X039987Y002043D01*
X039941Y002067D01*
X039894Y002088D01*
X039846Y002106D01*
X039797Y002121D01*
X039747Y002133D01*
X039696Y002141D01*
X039644Y002146D01*
X039593Y002148D01*
X043924Y000968D02*
X043975Y000970D01*
X044027Y000975D01*
X044078Y000983D01*
X044128Y000995D01*
X044177Y001010D01*
X044225Y001028D01*
X044272Y001049D01*
X044318Y001073D01*
X044361Y001101D01*
X044403Y001131D01*
X044443Y001163D01*
X044480Y001199D01*
X045201Y001917D02*
X045238Y001953D01*
X045278Y001985D01*
X045320Y002015D01*
X045363Y002043D01*
X045409Y002067D01*
X045456Y002088D01*
X045504Y002106D01*
X045553Y002121D01*
X045603Y002133D01*
X045654Y002141D01*
X045706Y002146D01*
X045757Y002148D01*
X055963Y003723D02*
X055965Y003775D01*
X055971Y003827D01*
X055981Y003878D01*
X055994Y003928D01*
X056012Y003978D01*
X056033Y004025D01*
X056057Y004071D01*
X056086Y004115D01*
X056117Y004157D01*
X056151Y004196D01*
X056188Y004233D01*
X056228Y004266D01*
X056271Y004297D01*
X056315Y004324D01*
X056361Y004348D01*
X056410Y004368D01*
X056459Y004384D01*
X056510Y004397D01*
X056561Y004406D01*
X056613Y004411D01*
X056665Y004412D01*
X056717Y004409D01*
X056769Y004402D01*
X056820Y004391D01*
X056870Y004377D01*
X056919Y004358D01*
X056966Y004336D01*
X057011Y004311D01*
X057055Y004282D01*
X057096Y004250D01*
X057135Y004215D01*
X057170Y004177D01*
X057203Y004136D01*
X057233Y004094D01*
X057259Y004049D01*
X057282Y004002D01*
X057301Y003953D01*
X057317Y003903D01*
X057329Y003853D01*
X057337Y003801D01*
X057341Y003749D01*
X057341Y003697D01*
X057337Y003645D01*
X057329Y003593D01*
X057317Y003543D01*
X057301Y003493D01*
X057282Y003444D01*
X057259Y003397D01*
X057233Y003352D01*
X057203Y003310D01*
X057170Y003269D01*
X057135Y003231D01*
X057096Y003196D01*
X057055Y003164D01*
X057011Y003135D01*
X056966Y003110D01*
X056919Y003088D01*
X056870Y003069D01*
X056820Y003055D01*
X056769Y003044D01*
X056717Y003037D01*
X056665Y003034D01*
X056613Y003035D01*
X056561Y003040D01*
X056510Y003049D01*
X056459Y003062D01*
X056410Y003078D01*
X056361Y003098D01*
X056315Y003122D01*
X056271Y003149D01*
X056228Y003180D01*
X056188Y003213D01*
X056151Y003250D01*
X056117Y003289D01*
X056086Y003331D01*
X056057Y003375D01*
X056033Y003421D01*
X056012Y003468D01*
X055994Y003518D01*
X055981Y003568D01*
X055971Y003619D01*
X055965Y003671D01*
X055963Y003723D01*
X055963Y007660D02*
X055965Y007712D01*
X055971Y007764D01*
X055981Y007815D01*
X055994Y007865D01*
X056012Y007915D01*
X056033Y007962D01*
X056057Y008008D01*
X056086Y008052D01*
X056117Y008094D01*
X056151Y008133D01*
X056188Y008170D01*
X056228Y008203D01*
X056271Y008234D01*
X056315Y008261D01*
X056361Y008285D01*
X056410Y008305D01*
X056459Y008321D01*
X056510Y008334D01*
X056561Y008343D01*
X056613Y008348D01*
X056665Y008349D01*
X056717Y008346D01*
X056769Y008339D01*
X056820Y008328D01*
X056870Y008314D01*
X056919Y008295D01*
X056966Y008273D01*
X057011Y008248D01*
X057055Y008219D01*
X057096Y008187D01*
X057135Y008152D01*
X057170Y008114D01*
X057203Y008073D01*
X057233Y008031D01*
X057259Y007986D01*
X057282Y007939D01*
X057301Y007890D01*
X057317Y007840D01*
X057329Y007790D01*
X057337Y007738D01*
X057341Y007686D01*
X057341Y007634D01*
X057337Y007582D01*
X057329Y007530D01*
X057317Y007480D01*
X057301Y007430D01*
X057282Y007381D01*
X057259Y007334D01*
X057233Y007289D01*
X057203Y007247D01*
X057170Y007206D01*
X057135Y007168D01*
X057096Y007133D01*
X057055Y007101D01*
X057011Y007072D01*
X056966Y007047D01*
X056919Y007025D01*
X056870Y007006D01*
X056820Y006992D01*
X056769Y006981D01*
X056717Y006974D01*
X056665Y006971D01*
X056613Y006972D01*
X056561Y006977D01*
X056510Y006986D01*
X056459Y006999D01*
X056410Y007015D01*
X056361Y007035D01*
X056315Y007059D01*
X056271Y007086D01*
X056228Y007117D01*
X056188Y007150D01*
X056151Y007187D01*
X056117Y007226D01*
X056086Y007268D01*
X056057Y007312D01*
X056033Y007358D01*
X056012Y007405D01*
X055994Y007455D01*
X055981Y007505D01*
X055971Y007556D01*
X055965Y007608D01*
X055963Y007660D01*
M02*
