G75*
%MOIN*%
%OFA0B0*%
%FSLAX24Y24*%
%IPPOS*%
%LPD*%
%AMOC8*
5,1,8,0,0,1.08239X$1,22.5*
%
%ADD10C,0.0000*%
%ADD11C,0.0050*%
%ADD12C,0.0040*%
%ADD13C,0.0080*%
D10*
X002518Y000574D02*
X057636Y000574D01*
X057636Y000573D02*
X057675Y000575D01*
X057713Y000581D01*
X057750Y000590D01*
X057787Y000603D01*
X057822Y000620D01*
X057855Y000639D01*
X057886Y000662D01*
X057915Y000688D01*
X057941Y000717D01*
X057964Y000748D01*
X057983Y000781D01*
X058000Y000816D01*
X058013Y000853D01*
X058022Y000890D01*
X058028Y000928D01*
X058030Y000967D01*
X058029Y000967D02*
X058029Y009038D01*
X058030Y009038D02*
X058028Y009077D01*
X058022Y009115D01*
X058013Y009152D01*
X058000Y009189D01*
X057983Y009224D01*
X057964Y009257D01*
X057941Y009288D01*
X057915Y009317D01*
X057886Y009343D01*
X057855Y009366D01*
X057822Y009385D01*
X057787Y009402D01*
X057750Y009415D01*
X057713Y009424D01*
X057675Y009430D01*
X057636Y009432D01*
X002518Y009432D01*
X002479Y009430D01*
X002441Y009424D01*
X002404Y009415D01*
X002367Y009402D01*
X002332Y009385D01*
X002299Y009366D01*
X002268Y009343D01*
X002239Y009317D01*
X002213Y009288D01*
X002190Y009257D01*
X002171Y009224D01*
X002154Y009189D01*
X002141Y009152D01*
X002132Y009115D01*
X002126Y009077D01*
X002124Y009038D01*
X002124Y000967D01*
X002126Y000928D01*
X002132Y000890D01*
X002141Y000853D01*
X002154Y000816D01*
X002171Y000781D01*
X002190Y000748D01*
X002213Y000717D01*
X002239Y000688D01*
X002268Y000662D01*
X002299Y000639D01*
X002332Y000620D01*
X002367Y000603D01*
X002404Y000590D01*
X002441Y000581D01*
X002479Y000575D01*
X002518Y000573D01*
X019348Y003723D02*
X019350Y003775D01*
X019356Y003827D01*
X019366Y003878D01*
X019379Y003928D01*
X019397Y003978D01*
X019418Y004025D01*
X019442Y004071D01*
X019471Y004115D01*
X019502Y004157D01*
X019536Y004196D01*
X019573Y004233D01*
X019613Y004266D01*
X019656Y004297D01*
X019700Y004324D01*
X019746Y004348D01*
X019795Y004368D01*
X019844Y004384D01*
X019895Y004397D01*
X019946Y004406D01*
X019998Y004411D01*
X020050Y004412D01*
X020102Y004409D01*
X020154Y004402D01*
X020205Y004391D01*
X020255Y004377D01*
X020304Y004358D01*
X020351Y004336D01*
X020396Y004311D01*
X020440Y004282D01*
X020481Y004250D01*
X020520Y004215D01*
X020555Y004177D01*
X020588Y004136D01*
X020618Y004094D01*
X020644Y004049D01*
X020667Y004002D01*
X020686Y003953D01*
X020702Y003903D01*
X020714Y003853D01*
X020722Y003801D01*
X020726Y003749D01*
X020726Y003697D01*
X020722Y003645D01*
X020714Y003593D01*
X020702Y003543D01*
X020686Y003493D01*
X020667Y003444D01*
X020644Y003397D01*
X020618Y003352D01*
X020588Y003310D01*
X020555Y003269D01*
X020520Y003231D01*
X020481Y003196D01*
X020440Y003164D01*
X020396Y003135D01*
X020351Y003110D01*
X020304Y003088D01*
X020255Y003069D01*
X020205Y003055D01*
X020154Y003044D01*
X020102Y003037D01*
X020050Y003034D01*
X019998Y003035D01*
X019946Y003040D01*
X019895Y003049D01*
X019844Y003062D01*
X019795Y003078D01*
X019746Y003098D01*
X019700Y003122D01*
X019656Y003149D01*
X019613Y003180D01*
X019573Y003213D01*
X019536Y003250D01*
X019502Y003289D01*
X019471Y003331D01*
X019442Y003375D01*
X019418Y003421D01*
X019397Y003468D01*
X019379Y003518D01*
X019366Y003568D01*
X019356Y003619D01*
X019350Y003671D01*
X019348Y003723D01*
X019348Y007660D02*
X019350Y007712D01*
X019356Y007764D01*
X019366Y007815D01*
X019379Y007865D01*
X019397Y007915D01*
X019418Y007962D01*
X019442Y008008D01*
X019471Y008052D01*
X019502Y008094D01*
X019536Y008133D01*
X019573Y008170D01*
X019613Y008203D01*
X019656Y008234D01*
X019700Y008261D01*
X019746Y008285D01*
X019795Y008305D01*
X019844Y008321D01*
X019895Y008334D01*
X019946Y008343D01*
X019998Y008348D01*
X020050Y008349D01*
X020102Y008346D01*
X020154Y008339D01*
X020205Y008328D01*
X020255Y008314D01*
X020304Y008295D01*
X020351Y008273D01*
X020396Y008248D01*
X020440Y008219D01*
X020481Y008187D01*
X020520Y008152D01*
X020555Y008114D01*
X020588Y008073D01*
X020618Y008031D01*
X020644Y007986D01*
X020667Y007939D01*
X020686Y007890D01*
X020702Y007840D01*
X020714Y007790D01*
X020722Y007738D01*
X020726Y007686D01*
X020726Y007634D01*
X020722Y007582D01*
X020714Y007530D01*
X020702Y007480D01*
X020686Y007430D01*
X020667Y007381D01*
X020644Y007334D01*
X020618Y007289D01*
X020588Y007247D01*
X020555Y007206D01*
X020520Y007168D01*
X020481Y007133D01*
X020440Y007101D01*
X020396Y007072D01*
X020351Y007047D01*
X020304Y007025D01*
X020255Y007006D01*
X020205Y006992D01*
X020154Y006981D01*
X020102Y006974D01*
X020050Y006971D01*
X019998Y006972D01*
X019946Y006977D01*
X019895Y006986D01*
X019844Y006999D01*
X019795Y007015D01*
X019746Y007035D01*
X019700Y007059D01*
X019656Y007086D01*
X019613Y007117D01*
X019573Y007150D01*
X019536Y007187D01*
X019502Y007226D01*
X019471Y007268D01*
X019442Y007312D01*
X019418Y007358D01*
X019397Y007405D01*
X019379Y007455D01*
X019366Y007505D01*
X019356Y007556D01*
X019350Y007608D01*
X019348Y007660D01*
X037852Y007660D02*
X037854Y007712D01*
X037860Y007764D01*
X037870Y007815D01*
X037883Y007865D01*
X037901Y007915D01*
X037922Y007962D01*
X037946Y008008D01*
X037975Y008052D01*
X038006Y008094D01*
X038040Y008133D01*
X038077Y008170D01*
X038117Y008203D01*
X038160Y008234D01*
X038204Y008261D01*
X038250Y008285D01*
X038299Y008305D01*
X038348Y008321D01*
X038399Y008334D01*
X038450Y008343D01*
X038502Y008348D01*
X038554Y008349D01*
X038606Y008346D01*
X038658Y008339D01*
X038709Y008328D01*
X038759Y008314D01*
X038808Y008295D01*
X038855Y008273D01*
X038900Y008248D01*
X038944Y008219D01*
X038985Y008187D01*
X039024Y008152D01*
X039059Y008114D01*
X039092Y008073D01*
X039122Y008031D01*
X039148Y007986D01*
X039171Y007939D01*
X039190Y007890D01*
X039206Y007840D01*
X039218Y007790D01*
X039226Y007738D01*
X039230Y007686D01*
X039230Y007634D01*
X039226Y007582D01*
X039218Y007530D01*
X039206Y007480D01*
X039190Y007430D01*
X039171Y007381D01*
X039148Y007334D01*
X039122Y007289D01*
X039092Y007247D01*
X039059Y007206D01*
X039024Y007168D01*
X038985Y007133D01*
X038944Y007101D01*
X038900Y007072D01*
X038855Y007047D01*
X038808Y007025D01*
X038759Y007006D01*
X038709Y006992D01*
X038658Y006981D01*
X038606Y006974D01*
X038554Y006971D01*
X038502Y006972D01*
X038450Y006977D01*
X038399Y006986D01*
X038348Y006999D01*
X038299Y007015D01*
X038250Y007035D01*
X038204Y007059D01*
X038160Y007086D01*
X038117Y007117D01*
X038077Y007150D01*
X038040Y007187D01*
X038006Y007226D01*
X037975Y007268D01*
X037946Y007312D01*
X037922Y007358D01*
X037901Y007405D01*
X037883Y007455D01*
X037870Y007505D01*
X037860Y007556D01*
X037854Y007608D01*
X037852Y007660D01*
X055963Y007660D02*
X055965Y007712D01*
X055971Y007764D01*
X055981Y007815D01*
X055994Y007865D01*
X056012Y007915D01*
X056033Y007962D01*
X056057Y008008D01*
X056086Y008052D01*
X056117Y008094D01*
X056151Y008133D01*
X056188Y008170D01*
X056228Y008203D01*
X056271Y008234D01*
X056315Y008261D01*
X056361Y008285D01*
X056410Y008305D01*
X056459Y008321D01*
X056510Y008334D01*
X056561Y008343D01*
X056613Y008348D01*
X056665Y008349D01*
X056717Y008346D01*
X056769Y008339D01*
X056820Y008328D01*
X056870Y008314D01*
X056919Y008295D01*
X056966Y008273D01*
X057011Y008248D01*
X057055Y008219D01*
X057096Y008187D01*
X057135Y008152D01*
X057170Y008114D01*
X057203Y008073D01*
X057233Y008031D01*
X057259Y007986D01*
X057282Y007939D01*
X057301Y007890D01*
X057317Y007840D01*
X057329Y007790D01*
X057337Y007738D01*
X057341Y007686D01*
X057341Y007634D01*
X057337Y007582D01*
X057329Y007530D01*
X057317Y007480D01*
X057301Y007430D01*
X057282Y007381D01*
X057259Y007334D01*
X057233Y007289D01*
X057203Y007247D01*
X057170Y007206D01*
X057135Y007168D01*
X057096Y007133D01*
X057055Y007101D01*
X057011Y007072D01*
X056966Y007047D01*
X056919Y007025D01*
X056870Y007006D01*
X056820Y006992D01*
X056769Y006981D01*
X056717Y006974D01*
X056665Y006971D01*
X056613Y006972D01*
X056561Y006977D01*
X056510Y006986D01*
X056459Y006999D01*
X056410Y007015D01*
X056361Y007035D01*
X056315Y007059D01*
X056271Y007086D01*
X056228Y007117D01*
X056188Y007150D01*
X056151Y007187D01*
X056117Y007226D01*
X056086Y007268D01*
X056057Y007312D01*
X056033Y007358D01*
X056012Y007405D01*
X055994Y007455D01*
X055981Y007505D01*
X055971Y007556D01*
X055965Y007608D01*
X055963Y007660D01*
X055963Y003723D02*
X055965Y003775D01*
X055971Y003827D01*
X055981Y003878D01*
X055994Y003928D01*
X056012Y003978D01*
X056033Y004025D01*
X056057Y004071D01*
X056086Y004115D01*
X056117Y004157D01*
X056151Y004196D01*
X056188Y004233D01*
X056228Y004266D01*
X056271Y004297D01*
X056315Y004324D01*
X056361Y004348D01*
X056410Y004368D01*
X056459Y004384D01*
X056510Y004397D01*
X056561Y004406D01*
X056613Y004411D01*
X056665Y004412D01*
X056717Y004409D01*
X056769Y004402D01*
X056820Y004391D01*
X056870Y004377D01*
X056919Y004358D01*
X056966Y004336D01*
X057011Y004311D01*
X057055Y004282D01*
X057096Y004250D01*
X057135Y004215D01*
X057170Y004177D01*
X057203Y004136D01*
X057233Y004094D01*
X057259Y004049D01*
X057282Y004002D01*
X057301Y003953D01*
X057317Y003903D01*
X057329Y003853D01*
X057337Y003801D01*
X057341Y003749D01*
X057341Y003697D01*
X057337Y003645D01*
X057329Y003593D01*
X057317Y003543D01*
X057301Y003493D01*
X057282Y003444D01*
X057259Y003397D01*
X057233Y003352D01*
X057203Y003310D01*
X057170Y003269D01*
X057135Y003231D01*
X057096Y003196D01*
X057055Y003164D01*
X057011Y003135D01*
X056966Y003110D01*
X056919Y003088D01*
X056870Y003069D01*
X056820Y003055D01*
X056769Y003044D01*
X056717Y003037D01*
X056665Y003034D01*
X056613Y003035D01*
X056561Y003040D01*
X056510Y003049D01*
X056459Y003062D01*
X056410Y003078D01*
X056361Y003098D01*
X056315Y003122D01*
X056271Y003149D01*
X056228Y003180D01*
X056188Y003213D01*
X056151Y003250D01*
X056117Y003289D01*
X056086Y003331D01*
X056057Y003375D01*
X056033Y003421D01*
X056012Y003468D01*
X055994Y003518D01*
X055981Y003568D01*
X055971Y003619D01*
X055965Y003671D01*
X055963Y003723D01*
D11*
X055274Y002149D02*
X040313Y002149D01*
X040313Y009038D01*
X040315Y009077D01*
X040321Y009115D01*
X040330Y009152D01*
X040343Y009189D01*
X040360Y009224D01*
X040379Y009257D01*
X040402Y009288D01*
X040428Y009317D01*
X040457Y009343D01*
X040488Y009366D01*
X040521Y009385D01*
X040556Y009402D01*
X040593Y009415D01*
X040630Y009424D01*
X040668Y009430D01*
X040707Y009432D01*
X054880Y009432D01*
X054919Y009430D01*
X054957Y009424D01*
X054994Y009415D01*
X055031Y009402D01*
X055066Y009385D01*
X055099Y009366D01*
X055130Y009343D01*
X055159Y009317D01*
X055185Y009288D01*
X055208Y009257D01*
X055227Y009224D01*
X055244Y009189D01*
X055257Y009152D01*
X055266Y009115D01*
X055272Y009077D01*
X055274Y009038D01*
X055274Y002149D01*
X037449Y002926D02*
X037449Y003226D01*
X037374Y003386D02*
X037374Y003537D01*
X037374Y003461D02*
X036924Y003461D01*
X036924Y003386D02*
X036924Y003537D01*
X036924Y003693D02*
X037374Y003994D01*
X036924Y003994D01*
X036924Y004154D02*
X037224Y004154D01*
X037374Y004304D01*
X037224Y004454D01*
X036924Y004454D01*
X037449Y004614D02*
X037449Y004914D01*
X037299Y005075D02*
X037374Y005150D01*
X037374Y005300D01*
X037299Y005375D01*
X037224Y005375D01*
X037149Y005300D01*
X037149Y005150D01*
X037074Y005075D01*
X036999Y005075D01*
X036924Y005150D01*
X036924Y005300D01*
X036999Y005375D01*
X036924Y005535D02*
X037374Y005535D01*
X037374Y005835D01*
X037374Y005995D02*
X036924Y005995D01*
X037374Y006296D01*
X036924Y006296D01*
X036999Y006456D02*
X037074Y006456D01*
X037149Y006531D01*
X037149Y006681D01*
X037224Y006756D01*
X037299Y006756D01*
X037374Y006681D01*
X037374Y006531D01*
X037299Y006456D01*
X036999Y006456D02*
X036924Y006531D01*
X036924Y006681D01*
X036999Y006756D01*
X036924Y005835D02*
X036924Y005535D01*
X037149Y005535D02*
X037149Y005685D01*
X037374Y003693D02*
X036924Y003693D01*
X036924Y002766D02*
X036924Y002616D01*
X036924Y002691D02*
X037299Y002691D01*
X037374Y002616D01*
X037374Y002541D01*
X037299Y002466D01*
X036770Y002149D02*
X021809Y002149D01*
X021809Y009038D01*
X021811Y009077D01*
X021817Y009115D01*
X021826Y009152D01*
X021839Y009189D01*
X021856Y009224D01*
X021875Y009257D01*
X021898Y009288D01*
X021924Y009317D01*
X021953Y009343D01*
X021984Y009366D01*
X022017Y009385D01*
X022052Y009402D01*
X022089Y009415D01*
X022126Y009424D01*
X022164Y009430D01*
X022203Y009432D01*
X036376Y009432D01*
X036415Y009430D01*
X036453Y009424D01*
X036490Y009415D01*
X036527Y009402D01*
X036562Y009385D01*
X036595Y009366D01*
X036626Y009343D01*
X036655Y009317D01*
X036681Y009288D01*
X036704Y009257D01*
X036723Y009224D01*
X036740Y009189D01*
X036753Y009152D01*
X036762Y009115D01*
X036768Y009077D01*
X036770Y009038D01*
X036770Y002149D01*
X018266Y002149D02*
X003305Y002149D01*
X003305Y009038D01*
X003307Y009077D01*
X003313Y009115D01*
X003322Y009152D01*
X003335Y009189D01*
X003352Y009224D01*
X003371Y009257D01*
X003394Y009288D01*
X003420Y009317D01*
X003449Y009343D01*
X003480Y009366D01*
X003513Y009385D01*
X003548Y009402D01*
X003585Y009415D01*
X003622Y009424D01*
X003660Y009430D01*
X003699Y009432D01*
X017872Y009432D01*
X017911Y009430D01*
X017949Y009424D01*
X017986Y009415D01*
X018023Y009402D01*
X018058Y009385D01*
X018091Y009366D01*
X018122Y009343D01*
X018151Y009317D01*
X018177Y009288D01*
X018200Y009257D01*
X018219Y009224D01*
X018236Y009189D01*
X018249Y009152D01*
X018258Y009115D01*
X018264Y009077D01*
X018266Y009038D01*
X018266Y002149D01*
D12*
X019532Y002182D02*
X019532Y002643D01*
X019762Y002643D01*
X019839Y002566D01*
X019839Y002412D01*
X019762Y002336D01*
X019532Y002336D01*
X019685Y002336D02*
X019839Y002182D01*
X019992Y002106D02*
X020299Y002106D01*
X020453Y002336D02*
X020606Y002182D01*
X020759Y002336D01*
X020759Y002643D01*
X020453Y002643D02*
X020453Y002336D01*
X022982Y001968D02*
X023136Y001814D01*
X022982Y001968D02*
X023443Y001968D01*
X023443Y002121D02*
X023443Y001814D01*
X023966Y001891D02*
X024043Y001814D01*
X023966Y001891D02*
X023966Y002044D01*
X024043Y002121D01*
X024120Y002121D01*
X024427Y001814D01*
X024427Y002121D01*
X024197Y002275D02*
X024197Y002581D01*
X024350Y002735D02*
X024427Y002812D01*
X024427Y002965D01*
X024350Y003042D01*
X024197Y003042D01*
X024197Y002888D01*
X024350Y002735D02*
X024043Y002735D01*
X023966Y002812D01*
X023966Y002965D01*
X024043Y003042D01*
X023966Y003195D02*
X024427Y003502D01*
X023966Y003502D01*
X023966Y003656D02*
X023966Y003886D01*
X024043Y003963D01*
X024350Y003963D01*
X024427Y003886D01*
X024427Y003656D01*
X023966Y003656D01*
X023443Y003732D02*
X023443Y003886D01*
X023366Y003963D01*
X022982Y003963D01*
X022982Y004116D02*
X022982Y004423D01*
X022982Y004270D02*
X023443Y004270D01*
X024951Y003886D02*
X025027Y003963D01*
X024951Y003886D02*
X024951Y003732D01*
X025027Y003656D01*
X025334Y003656D01*
X025411Y003732D01*
X025411Y003886D01*
X025334Y003963D01*
X023443Y003732D02*
X023366Y003656D01*
X022982Y003656D01*
X023059Y003502D02*
X022982Y003426D01*
X022982Y003272D01*
X023059Y003195D01*
X023366Y003195D01*
X023443Y003272D01*
X023443Y003426D01*
X023366Y003502D01*
X023059Y003502D01*
X023966Y003195D02*
X024427Y003195D01*
X024951Y003272D02*
X025027Y003195D01*
X025334Y003195D01*
X025411Y003272D01*
X025411Y003426D01*
X025334Y003502D01*
X025027Y003502D02*
X024951Y003426D01*
X024951Y003272D01*
X024951Y003042D02*
X025258Y003042D01*
X025411Y002888D01*
X025258Y002735D01*
X024951Y002735D01*
X025181Y002581D02*
X025181Y002275D01*
X025258Y002121D02*
X025334Y002121D01*
X025411Y002044D01*
X025411Y001891D01*
X025334Y001814D01*
X025181Y001968D02*
X025181Y002044D01*
X025258Y002121D01*
X025181Y002044D02*
X025104Y002121D01*
X025027Y002121D01*
X024951Y002044D01*
X024951Y001891D01*
X025027Y001814D01*
X023212Y002275D02*
X023212Y002581D01*
X023289Y002735D02*
X023443Y002888D01*
X023289Y003042D01*
X022982Y003042D01*
X022982Y002735D02*
X023289Y002735D01*
X038772Y002746D02*
X039155Y002746D01*
X039232Y002822D01*
X039232Y002976D01*
X039155Y003052D01*
X038772Y003052D01*
X039309Y002592D02*
X039309Y002285D01*
X039232Y002132D02*
X039078Y001978D01*
X039078Y002055D02*
X039078Y001825D01*
X039232Y001825D02*
X038772Y001825D01*
X038772Y002055D01*
X038848Y002132D01*
X039002Y002132D01*
X039078Y002055D01*
X041486Y001968D02*
X041946Y001968D01*
X041946Y002121D02*
X041946Y001814D01*
X041640Y001814D02*
X041486Y001968D01*
X042470Y002044D02*
X042547Y002121D01*
X042624Y002121D01*
X042931Y001814D01*
X042931Y002121D01*
X042701Y002275D02*
X042701Y002581D01*
X042547Y002735D02*
X042854Y002735D01*
X042931Y002812D01*
X042931Y002965D01*
X042854Y003042D01*
X042701Y003042D01*
X042701Y002888D01*
X042547Y002735D02*
X042470Y002812D01*
X042470Y002965D01*
X042547Y003042D01*
X042470Y003195D02*
X042931Y003502D01*
X042470Y003502D01*
X042470Y003656D02*
X042470Y003886D01*
X042547Y003963D01*
X042854Y003963D01*
X042931Y003886D01*
X042931Y003656D01*
X042470Y003656D01*
X041946Y003732D02*
X041946Y003886D01*
X041870Y003963D01*
X041486Y003963D01*
X041486Y004116D02*
X041486Y004423D01*
X041486Y004270D02*
X041946Y004270D01*
X043455Y003886D02*
X043455Y003732D01*
X043531Y003656D01*
X043838Y003656D01*
X043915Y003732D01*
X043915Y003886D01*
X043838Y003963D01*
X043531Y003963D02*
X043455Y003886D01*
X043531Y003502D02*
X043455Y003426D01*
X043455Y003272D01*
X043531Y003195D01*
X043838Y003195D01*
X043915Y003272D01*
X043915Y003426D01*
X043838Y003502D01*
X042931Y003195D02*
X042470Y003195D01*
X041946Y003272D02*
X041946Y003426D01*
X041870Y003502D01*
X041563Y003502D01*
X041486Y003426D01*
X041486Y003272D01*
X041563Y003195D01*
X041870Y003195D01*
X041946Y003272D01*
X041793Y003042D02*
X041486Y003042D01*
X041793Y003042D02*
X041946Y002888D01*
X041793Y002735D01*
X041486Y002735D01*
X041716Y002581D02*
X041716Y002275D01*
X042470Y002044D02*
X042470Y001891D01*
X042547Y001814D01*
X043455Y001891D02*
X043455Y002044D01*
X043531Y002121D01*
X043608Y002121D01*
X043685Y002044D01*
X043762Y002121D01*
X043838Y002121D01*
X043915Y002044D01*
X043915Y001891D01*
X043838Y001814D01*
X043685Y001968D02*
X043685Y002044D01*
X043531Y001814D02*
X043455Y001891D01*
X043685Y002275D02*
X043685Y002581D01*
X043762Y002735D02*
X043915Y002888D01*
X043762Y003042D01*
X043455Y003042D01*
X043455Y002735D02*
X043762Y002735D01*
X041946Y003732D02*
X041870Y003656D01*
X041486Y003656D01*
X040019Y006302D02*
X040096Y006379D01*
X040096Y006533D01*
X040019Y006609D01*
X039943Y006609D01*
X039866Y006533D01*
X039866Y006379D01*
X039789Y006302D01*
X039712Y006302D01*
X039636Y006379D01*
X039636Y006533D01*
X039712Y006609D01*
X039636Y006763D02*
X040096Y006763D01*
X040096Y007070D01*
X040096Y007223D02*
X039636Y007223D01*
X040096Y007530D01*
X039636Y007530D01*
X039712Y007684D02*
X039789Y007684D01*
X039866Y007760D01*
X039866Y007914D01*
X039943Y007990D01*
X040019Y007990D01*
X040096Y007914D01*
X040096Y007760D01*
X040019Y007684D01*
X039712Y007684D02*
X039636Y007760D01*
X039636Y007914D01*
X039712Y007990D01*
X040173Y008144D02*
X040173Y008451D01*
X040019Y008604D02*
X039636Y008604D01*
X040019Y008604D02*
X040096Y008681D01*
X040096Y008835D01*
X040019Y008911D01*
X039636Y008911D01*
X039636Y007070D02*
X039636Y006763D01*
X039866Y006763D02*
X039866Y006916D01*
X021669Y008144D02*
X021669Y008451D01*
X021439Y008604D02*
X021592Y008758D01*
X021439Y008911D01*
X021132Y008911D01*
X021132Y008604D02*
X021439Y008604D01*
X018913Y008451D02*
X018913Y008144D01*
X018760Y007990D02*
X018683Y007990D01*
X018606Y007914D01*
X018606Y007760D01*
X018529Y007684D01*
X018453Y007684D01*
X018376Y007760D01*
X018376Y007914D01*
X018453Y007990D01*
X018760Y007990D02*
X018836Y007914D01*
X018836Y007760D01*
X018760Y007684D01*
X018836Y007530D02*
X018376Y007530D01*
X018376Y007223D02*
X018836Y007530D01*
X018836Y007223D02*
X018376Y007223D01*
X018376Y007070D02*
X018376Y006763D01*
X018836Y006763D01*
X018836Y007070D01*
X018606Y006916D02*
X018606Y006763D01*
X018683Y006609D02*
X018760Y006609D01*
X018836Y006533D01*
X018836Y006379D01*
X018760Y006302D01*
X018606Y006379D02*
X018606Y006533D01*
X018683Y006609D01*
X018453Y006609D02*
X018376Y006533D01*
X018376Y006379D01*
X018453Y006302D01*
X018529Y006302D01*
X018606Y006379D01*
X021132Y006379D02*
X021208Y006302D01*
X021285Y006302D01*
X021362Y006379D01*
X021362Y006533D01*
X021439Y006609D01*
X021515Y006609D01*
X021592Y006533D01*
X021592Y006379D01*
X021515Y006302D01*
X021132Y006379D02*
X021132Y006533D01*
X021208Y006609D01*
X021132Y006763D02*
X021592Y006763D01*
X021592Y007070D01*
X021592Y007223D02*
X021132Y007223D01*
X021592Y007530D01*
X021132Y007530D01*
X021208Y007684D02*
X021285Y007684D01*
X021362Y007760D01*
X021362Y007914D01*
X021439Y007990D01*
X021515Y007990D01*
X021592Y007914D01*
X021592Y007760D01*
X021515Y007684D01*
X021208Y007684D02*
X021132Y007760D01*
X021132Y007914D01*
X021208Y007990D01*
X018836Y008604D02*
X018376Y008604D01*
X018683Y008758D02*
X018836Y008911D01*
X018376Y008911D01*
X018683Y008758D02*
X018836Y008604D01*
X021132Y007070D02*
X021132Y006763D01*
X021362Y006763D02*
X021362Y006916D01*
X006907Y003886D02*
X006830Y003963D01*
X006907Y003886D02*
X006907Y003732D01*
X006830Y003656D01*
X006523Y003656D01*
X006447Y003732D01*
X006447Y003886D01*
X006523Y003963D01*
X005923Y003886D02*
X005846Y003963D01*
X005539Y003963D01*
X005462Y003886D01*
X005462Y003656D01*
X005923Y003656D01*
X005923Y003886D01*
X004939Y003886D02*
X004939Y003732D01*
X004862Y003656D01*
X004478Y003656D01*
X004555Y003502D02*
X004478Y003426D01*
X004478Y003272D01*
X004555Y003195D01*
X004862Y003195D01*
X004939Y003272D01*
X004939Y003426D01*
X004862Y003502D01*
X004555Y003502D01*
X005462Y003502D02*
X005923Y003502D01*
X005462Y003195D01*
X005923Y003195D01*
X005846Y003042D02*
X005693Y003042D01*
X005693Y002888D01*
X005846Y002735D02*
X005923Y002812D01*
X005923Y002965D01*
X005846Y003042D01*
X005539Y003042D02*
X005462Y002965D01*
X005462Y002812D01*
X005539Y002735D01*
X005846Y002735D01*
X005693Y002581D02*
X005693Y002275D01*
X005616Y002121D02*
X005539Y002121D01*
X005462Y002044D01*
X005462Y001891D01*
X005539Y001814D01*
X005616Y002121D02*
X005923Y001814D01*
X005923Y002121D01*
X006447Y002044D02*
X006523Y002121D01*
X006600Y002121D01*
X006677Y002044D01*
X006754Y002121D01*
X006830Y002121D01*
X006907Y002044D01*
X006907Y001891D01*
X006830Y001814D01*
X006677Y001968D02*
X006677Y002044D01*
X006447Y002044D02*
X006447Y001891D01*
X006523Y001814D01*
X004939Y001814D02*
X004939Y002121D01*
X004708Y002275D02*
X004708Y002581D01*
X004785Y002735D02*
X004478Y002735D01*
X004785Y002735D02*
X004939Y002888D01*
X004785Y003042D01*
X004478Y003042D01*
X006447Y003042D02*
X006754Y003042D01*
X006907Y002888D01*
X006754Y002735D01*
X006447Y002735D01*
X006677Y002581D02*
X006677Y002275D01*
X004939Y001968D02*
X004478Y001968D01*
X004632Y001814D01*
X004145Y001855D02*
X004145Y001395D01*
X003992Y001548D01*
X003838Y001395D01*
X003838Y001855D01*
X003224Y001779D02*
X003224Y001625D01*
X003148Y001548D01*
X002918Y001548D01*
X003071Y001548D02*
X003224Y001395D01*
X003378Y001318D02*
X003685Y001318D01*
X002918Y001395D02*
X002918Y001855D01*
X003148Y001855D01*
X003224Y001779D01*
X006447Y003272D02*
X006523Y003195D01*
X006830Y003195D01*
X006907Y003272D01*
X006907Y003426D01*
X006830Y003502D01*
X006523Y003502D02*
X006447Y003426D01*
X006447Y003272D01*
X004939Y003886D02*
X004862Y003963D01*
X004478Y003963D01*
X004478Y004116D02*
X004478Y004423D01*
X004478Y004270D02*
X004939Y004270D01*
D13*
X037451Y004442D02*
X037451Y004942D01*
X037701Y005192D01*
X037451Y005442D01*
X037451Y005942D01*
X037701Y006192D01*
X038201Y006192D01*
X038451Y005942D01*
X038451Y005442D01*
X038201Y005192D01*
X038451Y004942D01*
X038451Y004442D01*
X038201Y004192D01*
X038451Y003942D01*
X038451Y003442D01*
X038201Y003192D01*
X038451Y002942D01*
X038451Y002442D01*
X038201Y002192D01*
X038451Y001942D01*
X038451Y001442D01*
X038201Y001192D01*
X037701Y001192D01*
X037451Y001442D01*
X037451Y001942D01*
X037701Y002192D01*
X037451Y002442D01*
X037451Y002942D01*
X037701Y003192D01*
X037451Y003442D01*
X037451Y003942D01*
X037701Y004192D01*
X037451Y004442D01*
M02*
