G75*
%MOIN*%
%OFA0B0*%
%FSLAX24Y24*%
%IPPOS*%
%LPD*%
%AMOC8*
5,1,8,0,0,1.08239X$1,22.5*
%
%ADD10C,0.1438*%
%ADD11C,0.0769*%
%ADD12C,0.1005*%
%ADD13R,0.0454X0.0493*%
%ADD14R,0.0493X0.0454*%
%ADD15C,0.0800*%
%ADD16C,0.0436*%
D10*
X020037Y003723D03*
X020037Y007660D03*
X038541Y007660D03*
X056652Y007660D03*
X056652Y003723D03*
D11*
X043738Y001479D03*
X042754Y001479D03*
X041770Y001479D03*
X025234Y001479D03*
X024250Y001479D03*
X023266Y001479D03*
X006730Y001479D03*
X005746Y001479D03*
X004762Y001479D03*
D12*
X017478Y003526D03*
X035982Y003526D03*
X054486Y003526D03*
X043069Y008251D03*
X024565Y008251D03*
X006061Y008251D03*
D13*
X003522Y000967D03*
X004191Y000967D03*
X020293Y001755D03*
X020963Y001755D03*
D14*
X039132Y003389D03*
X039132Y004058D03*
D15*
X038001Y003692D03*
X037901Y002692D03*
X038001Y001692D03*
X037901Y004692D03*
X038001Y005692D03*
D16*
X040707Y005692D03*
X044250Y005692D03*
X051337Y005692D03*
X054880Y005692D03*
X054880Y008841D03*
X047793Y008841D03*
X040707Y008841D03*
X036376Y008841D03*
X029289Y008841D03*
X022203Y008841D03*
X017872Y008841D03*
X010785Y008841D03*
X003699Y008841D03*
X003699Y005692D03*
X007242Y005692D03*
X014329Y005692D03*
X025746Y005692D03*
X033226Y005692D03*
X035982Y002542D03*
X041100Y002542D03*
X047793Y002542D03*
X054880Y002542D03*
X029289Y002542D03*
X022203Y002542D03*
X017872Y002542D03*
X010785Y002542D03*
X003699Y002542D03*
M02*
