%
M48
M72
T01C0.0236
T02C0.0400
T03C0.0472
T04C0.0630
T05C0.1378
%
T01
X3699Y2542
X5392Y2503
X6455Y2503
X10785Y3330
X18659Y3330
X22203Y3133
X23266Y3133
X25746Y3133
X29289Y3133
X33226Y3133
X36770Y3330
X39014Y2975
X41100Y3330
X46612Y2542
X49368Y2542
X54880Y2542
X54880Y4904
X51337Y4904
X44250Y4904
X40707Y4904
X34211Y4314
X31258Y4314
X27715Y4314
X24959Y4314
X22596Y4314
X25746Y5692
X27715Y7070
X31258Y7070
X35785Y7070
X42675Y7070
X46612Y7070
X49368Y7070
X53305Y7070
X33226Y5692
X22596Y7070
X17478Y7070
X12360Y7070
X8817Y7070
X5667Y7070
X7242Y4904
X3699Y4904
X14329Y4904
T02
X37901Y5873
X38001Y4873
X37901Y3873
X38001Y2873
X38001Y6873
T03
X4762Y1479
X5746Y1479
X6730Y1479
X23266Y1479
X24250Y1479
X25234Y1479
X41770Y1479
X42754Y1479
X43738Y1479
T04
X35982Y3526
X17478Y3526
X24565Y8251
X6061Y8251
X43069Y8251
X54486Y3526
T05
X56652Y3723
X56652Y7660
X20037Y7660
X20037Y3723
M30
