G75*
%MOIN*%
%OFA0B0*%
%FSLAX24Y24*%
%IPPOS*%
%LPD*%
%AMOC8*
5,1,8,0,0,1.08239X$1,22.5*
%
%ADD10C,0.0000*%
%ADD11C,0.0060*%
%ADD12C,0.0100*%
D10*
X003074Y000967D02*
X006916Y000967D01*
X007473Y001198D02*
X008193Y001918D01*
X008749Y002149D02*
X019908Y002149D01*
X020465Y001918D02*
X021185Y001198D01*
X021741Y000967D02*
X025420Y000967D01*
X025977Y001198D02*
X026696Y001918D01*
X027253Y002149D02*
X039593Y002149D01*
X040150Y001918D02*
X040870Y001198D01*
X041426Y000967D02*
X043924Y000967D01*
X044481Y001198D02*
X045200Y001918D01*
X045757Y002149D02*
X057636Y002149D01*
X057636Y002148D02*
X057675Y002150D01*
X057713Y002156D01*
X057750Y002165D01*
X057787Y002178D01*
X057822Y002195D01*
X057855Y002214D01*
X057886Y002237D01*
X057915Y002263D01*
X057941Y002292D01*
X057964Y002323D01*
X057983Y002356D01*
X058000Y002391D01*
X058013Y002428D01*
X058022Y002465D01*
X058028Y002503D01*
X058030Y002542D01*
X058029Y002542D02*
X058029Y009038D01*
X058030Y009038D02*
X058028Y009077D01*
X058022Y009115D01*
X058013Y009152D01*
X058000Y009189D01*
X057983Y009224D01*
X057964Y009257D01*
X057941Y009288D01*
X057915Y009317D01*
X057886Y009343D01*
X057855Y009366D01*
X057822Y009385D01*
X057787Y009402D01*
X057750Y009415D01*
X057713Y009424D01*
X057675Y009430D01*
X057636Y009432D01*
X002518Y009432D01*
X002479Y009430D01*
X002441Y009424D01*
X002404Y009415D01*
X002367Y009402D01*
X002332Y009385D01*
X002299Y009366D01*
X002268Y009343D01*
X002239Y009317D01*
X002213Y009288D01*
X002190Y009257D01*
X002171Y009224D01*
X002154Y009189D01*
X002141Y009152D01*
X002132Y009115D01*
X002126Y009077D01*
X002124Y009038D01*
X002124Y001918D01*
X002126Y001879D01*
X002132Y001841D01*
X002141Y001804D01*
X002154Y001767D01*
X002171Y001732D01*
X002190Y001699D01*
X002213Y001668D01*
X002239Y001639D01*
X002796Y001083D01*
X002795Y001082D02*
X002824Y001056D01*
X002855Y001033D01*
X002888Y001014D01*
X002923Y000997D01*
X002960Y000984D01*
X002997Y000975D01*
X003035Y000969D01*
X003074Y000967D01*
X006916Y000968D02*
X006967Y000970D01*
X007019Y000975D01*
X007070Y000983D01*
X007120Y000995D01*
X007169Y001010D01*
X007217Y001028D01*
X007264Y001049D01*
X007310Y001073D01*
X007353Y001101D01*
X007395Y001131D01*
X007435Y001163D01*
X007472Y001199D01*
X008193Y001917D02*
X008230Y001953D01*
X008270Y001985D01*
X008312Y002015D01*
X008355Y002043D01*
X008401Y002067D01*
X008448Y002088D01*
X008496Y002106D01*
X008545Y002121D01*
X008595Y002133D01*
X008646Y002141D01*
X008698Y002146D01*
X008749Y002148D01*
X019908Y002148D02*
X019959Y002146D01*
X020011Y002141D01*
X020062Y002133D01*
X020112Y002121D01*
X020161Y002106D01*
X020209Y002088D01*
X020256Y002067D01*
X020302Y002043D01*
X020345Y002015D01*
X020387Y001985D01*
X020427Y001953D01*
X020464Y001917D01*
X021185Y001199D02*
X021222Y001163D01*
X021262Y001131D01*
X021304Y001101D01*
X021347Y001073D01*
X021393Y001049D01*
X021440Y001028D01*
X021488Y001010D01*
X021537Y000995D01*
X021587Y000983D01*
X021638Y000975D01*
X021690Y000970D01*
X021741Y000968D01*
X025420Y000968D02*
X025471Y000970D01*
X025523Y000975D01*
X025574Y000983D01*
X025624Y000995D01*
X025673Y001010D01*
X025721Y001028D01*
X025768Y001049D01*
X025814Y001073D01*
X025857Y001101D01*
X025899Y001131D01*
X025939Y001163D01*
X025976Y001199D01*
X026697Y001917D02*
X026734Y001953D01*
X026774Y001985D01*
X026816Y002015D01*
X026859Y002043D01*
X026905Y002067D01*
X026952Y002088D01*
X027000Y002106D01*
X027049Y002121D01*
X027099Y002133D01*
X027150Y002141D01*
X027202Y002146D01*
X027253Y002148D01*
X019348Y003723D02*
X019350Y003775D01*
X019356Y003827D01*
X019366Y003878D01*
X019379Y003928D01*
X019397Y003978D01*
X019418Y004025D01*
X019442Y004071D01*
X019471Y004115D01*
X019502Y004157D01*
X019536Y004196D01*
X019573Y004233D01*
X019613Y004266D01*
X019656Y004297D01*
X019700Y004324D01*
X019746Y004348D01*
X019795Y004368D01*
X019844Y004384D01*
X019895Y004397D01*
X019946Y004406D01*
X019998Y004411D01*
X020050Y004412D01*
X020102Y004409D01*
X020154Y004402D01*
X020205Y004391D01*
X020255Y004377D01*
X020304Y004358D01*
X020351Y004336D01*
X020396Y004311D01*
X020440Y004282D01*
X020481Y004250D01*
X020520Y004215D01*
X020555Y004177D01*
X020588Y004136D01*
X020618Y004094D01*
X020644Y004049D01*
X020667Y004002D01*
X020686Y003953D01*
X020702Y003903D01*
X020714Y003853D01*
X020722Y003801D01*
X020726Y003749D01*
X020726Y003697D01*
X020722Y003645D01*
X020714Y003593D01*
X020702Y003543D01*
X020686Y003493D01*
X020667Y003444D01*
X020644Y003397D01*
X020618Y003352D01*
X020588Y003310D01*
X020555Y003269D01*
X020520Y003231D01*
X020481Y003196D01*
X020440Y003164D01*
X020396Y003135D01*
X020351Y003110D01*
X020304Y003088D01*
X020255Y003069D01*
X020205Y003055D01*
X020154Y003044D01*
X020102Y003037D01*
X020050Y003034D01*
X019998Y003035D01*
X019946Y003040D01*
X019895Y003049D01*
X019844Y003062D01*
X019795Y003078D01*
X019746Y003098D01*
X019700Y003122D01*
X019656Y003149D01*
X019613Y003180D01*
X019573Y003213D01*
X019536Y003250D01*
X019502Y003289D01*
X019471Y003331D01*
X019442Y003375D01*
X019418Y003421D01*
X019397Y003468D01*
X019379Y003518D01*
X019366Y003568D01*
X019356Y003619D01*
X019350Y003671D01*
X019348Y003723D01*
X019348Y007660D02*
X019350Y007712D01*
X019356Y007764D01*
X019366Y007815D01*
X019379Y007865D01*
X019397Y007915D01*
X019418Y007962D01*
X019442Y008008D01*
X019471Y008052D01*
X019502Y008094D01*
X019536Y008133D01*
X019573Y008170D01*
X019613Y008203D01*
X019656Y008234D01*
X019700Y008261D01*
X019746Y008285D01*
X019795Y008305D01*
X019844Y008321D01*
X019895Y008334D01*
X019946Y008343D01*
X019998Y008348D01*
X020050Y008349D01*
X020102Y008346D01*
X020154Y008339D01*
X020205Y008328D01*
X020255Y008314D01*
X020304Y008295D01*
X020351Y008273D01*
X020396Y008248D01*
X020440Y008219D01*
X020481Y008187D01*
X020520Y008152D01*
X020555Y008114D01*
X020588Y008073D01*
X020618Y008031D01*
X020644Y007986D01*
X020667Y007939D01*
X020686Y007890D01*
X020702Y007840D01*
X020714Y007790D01*
X020722Y007738D01*
X020726Y007686D01*
X020726Y007634D01*
X020722Y007582D01*
X020714Y007530D01*
X020702Y007480D01*
X020686Y007430D01*
X020667Y007381D01*
X020644Y007334D01*
X020618Y007289D01*
X020588Y007247D01*
X020555Y007206D01*
X020520Y007168D01*
X020481Y007133D01*
X020440Y007101D01*
X020396Y007072D01*
X020351Y007047D01*
X020304Y007025D01*
X020255Y007006D01*
X020205Y006992D01*
X020154Y006981D01*
X020102Y006974D01*
X020050Y006971D01*
X019998Y006972D01*
X019946Y006977D01*
X019895Y006986D01*
X019844Y006999D01*
X019795Y007015D01*
X019746Y007035D01*
X019700Y007059D01*
X019656Y007086D01*
X019613Y007117D01*
X019573Y007150D01*
X019536Y007187D01*
X019502Y007226D01*
X019471Y007268D01*
X019442Y007312D01*
X019418Y007358D01*
X019397Y007405D01*
X019379Y007455D01*
X019366Y007505D01*
X019356Y007556D01*
X019350Y007608D01*
X019348Y007660D01*
X040870Y001199D02*
X040907Y001163D01*
X040947Y001131D01*
X040989Y001101D01*
X041032Y001073D01*
X041078Y001049D01*
X041125Y001028D01*
X041173Y001010D01*
X041222Y000995D01*
X041272Y000983D01*
X041323Y000975D01*
X041375Y000970D01*
X041426Y000968D01*
X040149Y001917D02*
X040112Y001953D01*
X040072Y001985D01*
X040030Y002015D01*
X039987Y002043D01*
X039941Y002067D01*
X039894Y002088D01*
X039846Y002106D01*
X039797Y002121D01*
X039747Y002133D01*
X039696Y002141D01*
X039644Y002146D01*
X039593Y002148D01*
X043924Y000968D02*
X043975Y000970D01*
X044027Y000975D01*
X044078Y000983D01*
X044128Y000995D01*
X044177Y001010D01*
X044225Y001028D01*
X044272Y001049D01*
X044318Y001073D01*
X044361Y001101D01*
X044403Y001131D01*
X044443Y001163D01*
X044480Y001199D01*
X045201Y001917D02*
X045238Y001953D01*
X045278Y001985D01*
X045320Y002015D01*
X045363Y002043D01*
X045409Y002067D01*
X045456Y002088D01*
X045504Y002106D01*
X045553Y002121D01*
X045603Y002133D01*
X045654Y002141D01*
X045706Y002146D01*
X045757Y002148D01*
X055963Y003723D02*
X055965Y003775D01*
X055971Y003827D01*
X055981Y003878D01*
X055994Y003928D01*
X056012Y003978D01*
X056033Y004025D01*
X056057Y004071D01*
X056086Y004115D01*
X056117Y004157D01*
X056151Y004196D01*
X056188Y004233D01*
X056228Y004266D01*
X056271Y004297D01*
X056315Y004324D01*
X056361Y004348D01*
X056410Y004368D01*
X056459Y004384D01*
X056510Y004397D01*
X056561Y004406D01*
X056613Y004411D01*
X056665Y004412D01*
X056717Y004409D01*
X056769Y004402D01*
X056820Y004391D01*
X056870Y004377D01*
X056919Y004358D01*
X056966Y004336D01*
X057011Y004311D01*
X057055Y004282D01*
X057096Y004250D01*
X057135Y004215D01*
X057170Y004177D01*
X057203Y004136D01*
X057233Y004094D01*
X057259Y004049D01*
X057282Y004002D01*
X057301Y003953D01*
X057317Y003903D01*
X057329Y003853D01*
X057337Y003801D01*
X057341Y003749D01*
X057341Y003697D01*
X057337Y003645D01*
X057329Y003593D01*
X057317Y003543D01*
X057301Y003493D01*
X057282Y003444D01*
X057259Y003397D01*
X057233Y003352D01*
X057203Y003310D01*
X057170Y003269D01*
X057135Y003231D01*
X057096Y003196D01*
X057055Y003164D01*
X057011Y003135D01*
X056966Y003110D01*
X056919Y003088D01*
X056870Y003069D01*
X056820Y003055D01*
X056769Y003044D01*
X056717Y003037D01*
X056665Y003034D01*
X056613Y003035D01*
X056561Y003040D01*
X056510Y003049D01*
X056459Y003062D01*
X056410Y003078D01*
X056361Y003098D01*
X056315Y003122D01*
X056271Y003149D01*
X056228Y003180D01*
X056188Y003213D01*
X056151Y003250D01*
X056117Y003289D01*
X056086Y003331D01*
X056057Y003375D01*
X056033Y003421D01*
X056012Y003468D01*
X055994Y003518D01*
X055981Y003568D01*
X055971Y003619D01*
X055965Y003671D01*
X055963Y003723D01*
X055963Y007660D02*
X055965Y007712D01*
X055971Y007764D01*
X055981Y007815D01*
X055994Y007865D01*
X056012Y007915D01*
X056033Y007962D01*
X056057Y008008D01*
X056086Y008052D01*
X056117Y008094D01*
X056151Y008133D01*
X056188Y008170D01*
X056228Y008203D01*
X056271Y008234D01*
X056315Y008261D01*
X056361Y008285D01*
X056410Y008305D01*
X056459Y008321D01*
X056510Y008334D01*
X056561Y008343D01*
X056613Y008348D01*
X056665Y008349D01*
X056717Y008346D01*
X056769Y008339D01*
X056820Y008328D01*
X056870Y008314D01*
X056919Y008295D01*
X056966Y008273D01*
X057011Y008248D01*
X057055Y008219D01*
X057096Y008187D01*
X057135Y008152D01*
X057170Y008114D01*
X057203Y008073D01*
X057233Y008031D01*
X057259Y007986D01*
X057282Y007939D01*
X057301Y007890D01*
X057317Y007840D01*
X057329Y007790D01*
X057337Y007738D01*
X057341Y007686D01*
X057341Y007634D01*
X057337Y007582D01*
X057329Y007530D01*
X057317Y007480D01*
X057301Y007430D01*
X057282Y007381D01*
X057259Y007334D01*
X057233Y007289D01*
X057203Y007247D01*
X057170Y007206D01*
X057135Y007168D01*
X057096Y007133D01*
X057055Y007101D01*
X057011Y007072D01*
X056966Y007047D01*
X056919Y007025D01*
X056870Y007006D01*
X056820Y006992D01*
X056769Y006981D01*
X056717Y006974D01*
X056665Y006971D01*
X056613Y006972D01*
X056561Y006977D01*
X056510Y006986D01*
X056459Y006999D01*
X056410Y007015D01*
X056361Y007035D01*
X056315Y007059D01*
X056271Y007086D01*
X056228Y007117D01*
X056188Y007150D01*
X056151Y007187D01*
X056117Y007226D01*
X056086Y007268D01*
X056057Y007312D01*
X056033Y007358D01*
X056012Y007405D01*
X055994Y007455D01*
X055981Y007505D01*
X055971Y007556D01*
X055965Y007608D01*
X055963Y007660D01*
D11*
X032015Y005706D02*
X032015Y005066D01*
X031588Y005066D02*
X031588Y005706D01*
X031802Y005493D01*
X032015Y005706D01*
X031371Y005706D02*
X031371Y005066D01*
X030944Y005066D02*
X030944Y005706D01*
X030726Y005706D02*
X030406Y005706D01*
X030299Y005600D01*
X030299Y005386D01*
X030406Y005279D01*
X030726Y005279D01*
X030513Y005279D02*
X030299Y005066D01*
X030726Y005066D02*
X030726Y005706D01*
X029437Y005493D02*
X029223Y005706D01*
X029223Y005066D01*
X029010Y005066D02*
X029437Y005066D01*
X028792Y005173D02*
X028686Y005066D01*
X028472Y005066D01*
X028365Y005173D01*
X028365Y005386D01*
X028472Y005493D01*
X028579Y005493D01*
X028792Y005386D01*
X028792Y005706D01*
X028365Y005706D01*
X027503Y005706D02*
X027290Y005706D01*
X027397Y005706D02*
X027397Y005066D01*
X027503Y005066D02*
X027290Y005066D01*
X027074Y005066D02*
X027074Y005493D01*
X026753Y005493D01*
X026647Y005386D01*
X026647Y005066D01*
X026216Y005066D02*
X026002Y005493D01*
X025785Y005386D02*
X025678Y005493D01*
X025464Y005493D01*
X025358Y005386D01*
X025358Y005279D01*
X025785Y005279D01*
X025785Y005173D02*
X025785Y005386D01*
X026216Y005066D02*
X026429Y005493D01*
X025785Y005173D02*
X025678Y005066D01*
X025464Y005066D01*
X025140Y005066D02*
X025140Y005493D01*
X024926Y005493D02*
X024820Y005493D01*
X024926Y005493D02*
X025140Y005279D01*
X024496Y005173D02*
X024389Y005066D01*
X024496Y005173D02*
X024496Y005600D01*
X024603Y005493D02*
X024389Y005493D01*
X024173Y005386D02*
X024066Y005493D01*
X023853Y005493D01*
X023746Y005386D01*
X023746Y005279D01*
X024173Y005279D01*
X024173Y005173D02*
X024173Y005386D01*
X023529Y005279D02*
X023315Y005493D01*
X023208Y005493D01*
X023529Y005493D02*
X023529Y005066D01*
X023853Y005066D02*
X024066Y005066D01*
X024173Y005173D01*
X022347Y005173D02*
X022240Y005066D01*
X022027Y005066D01*
X021920Y005173D01*
X021702Y005173D02*
X021596Y005066D01*
X021275Y005066D01*
X021275Y005493D01*
X021058Y005493D02*
X021058Y005066D01*
X020521Y005066D02*
X020521Y005493D01*
X020521Y005279D02*
X020307Y005493D01*
X020200Y005493D01*
X019984Y005386D02*
X019877Y005493D01*
X019663Y005493D01*
X019557Y005386D01*
X019557Y005279D01*
X019984Y005279D01*
X019984Y005173D02*
X019984Y005386D01*
X019339Y005493D02*
X019019Y005493D01*
X018912Y005386D01*
X018912Y005066D01*
X018588Y005173D02*
X018481Y005066D01*
X018588Y005173D02*
X018588Y005600D01*
X018695Y005493D02*
X018481Y005493D01*
X017620Y005493D02*
X017620Y005600D01*
X017514Y005706D01*
X017300Y005706D01*
X017193Y005600D01*
X016976Y005386D02*
X016869Y005493D01*
X016655Y005493D01*
X016549Y005386D01*
X016549Y005279D01*
X016976Y005279D01*
X016976Y005173D02*
X016976Y005386D01*
X017193Y005279D02*
X017300Y005386D01*
X017514Y005386D01*
X017620Y005493D01*
X017193Y005279D02*
X017193Y005173D01*
X017300Y005066D01*
X017514Y005066D01*
X017620Y005173D01*
X016976Y005173D02*
X016869Y005066D01*
X016655Y005066D01*
X016331Y005066D02*
X016331Y005493D01*
X016011Y005493D01*
X015904Y005386D01*
X015904Y005066D01*
X015687Y005066D02*
X015366Y005066D01*
X015260Y005173D01*
X015366Y005279D01*
X015580Y005279D01*
X015687Y005386D01*
X015580Y005493D01*
X015260Y005493D01*
X015042Y005386D02*
X015042Y005173D01*
X014935Y005066D01*
X014722Y005066D01*
X014615Y005173D01*
X014615Y005386D01*
X014722Y005493D01*
X014935Y005493D01*
X015042Y005386D01*
X014398Y005279D02*
X014184Y005493D01*
X014077Y005493D01*
X014398Y005493D02*
X014398Y005066D01*
X013216Y005066D02*
X013216Y005706D01*
X012896Y005706D01*
X012789Y005600D01*
X012789Y005386D01*
X012896Y005279D01*
X013216Y005279D01*
X012571Y005173D02*
X012465Y005066D01*
X012251Y005066D01*
X012144Y005173D01*
X011927Y005066D02*
X011606Y005066D01*
X011500Y005173D01*
X011500Y005279D01*
X011606Y005386D01*
X011927Y005386D01*
X011606Y005386D02*
X011500Y005493D01*
X011500Y005600D01*
X011606Y005706D01*
X011927Y005706D01*
X011927Y005066D01*
X012571Y005173D02*
X012571Y005600D01*
X012465Y005706D01*
X012251Y005706D01*
X012144Y005600D01*
X010638Y005493D02*
X010424Y005066D01*
X010211Y005493D01*
X009993Y005493D02*
X009780Y005706D01*
X009780Y005066D01*
X009993Y005066D02*
X009566Y005066D01*
X019339Y005066D02*
X019339Y005493D01*
X020738Y005493D02*
X020844Y005493D01*
X021058Y005279D01*
X019984Y005173D02*
X019877Y005066D01*
X019663Y005066D01*
X021702Y005173D02*
X021702Y005493D01*
X021920Y005600D02*
X022027Y005706D01*
X022240Y005706D01*
X022347Y005600D01*
X022347Y005173D01*
X023639Y004656D02*
X023639Y004016D01*
X023852Y004229D01*
X024066Y004016D01*
X024066Y004656D01*
X023314Y004443D02*
X023101Y004443D01*
X022994Y004336D01*
X022994Y004016D01*
X023314Y004016D01*
X023421Y004123D01*
X023314Y004229D01*
X022994Y004229D01*
X022456Y004443D02*
X022350Y004336D01*
X022350Y004016D01*
X022132Y004123D02*
X022025Y004016D01*
X021705Y004016D01*
X021705Y003909D02*
X021705Y004443D01*
X022025Y004443D01*
X022132Y004336D01*
X022132Y004123D01*
X022777Y004016D02*
X022777Y004443D01*
X022456Y004443D01*
X024928Y004336D02*
X024928Y004016D01*
X025355Y004016D02*
X025355Y004443D01*
X025035Y004443D01*
X024928Y004336D01*
X025572Y004336D02*
X025572Y004229D01*
X025999Y004229D01*
X025999Y004123D02*
X025999Y004336D01*
X025893Y004443D01*
X025679Y004443D01*
X025572Y004336D01*
X026217Y004229D02*
X026217Y004123D01*
X026324Y004016D01*
X026644Y004016D01*
X026644Y004656D01*
X026324Y004656D01*
X026217Y004550D01*
X026217Y004443D01*
X026324Y004336D01*
X026644Y004336D01*
X026324Y004336D02*
X026217Y004229D01*
X025999Y004123D02*
X025893Y004016D01*
X025679Y004016D01*
X027506Y004123D02*
X027506Y004336D01*
X027613Y004443D01*
X027720Y004443D01*
X027933Y004336D01*
X027933Y004656D01*
X027506Y004656D01*
X028364Y004656D02*
X028578Y004443D01*
X028795Y004550D02*
X029222Y004123D01*
X029115Y004016D01*
X028902Y004016D01*
X028795Y004123D01*
X028795Y004550D01*
X028902Y004656D01*
X029115Y004656D01*
X029222Y004550D01*
X029222Y004123D01*
X029440Y004016D02*
X029867Y004016D01*
X029440Y004443D01*
X029440Y004550D01*
X029546Y004656D01*
X029760Y004656D01*
X029867Y004550D01*
X030727Y004443D02*
X030941Y004656D01*
X030727Y004443D02*
X030727Y004229D01*
X030941Y004016D01*
X031158Y004016D02*
X031479Y004016D01*
X031586Y004123D01*
X031586Y004336D01*
X031479Y004443D01*
X031158Y004443D01*
X031802Y004656D02*
X032015Y004443D01*
X032015Y004229D01*
X031802Y004016D01*
X031802Y003606D02*
X031802Y002966D01*
X032015Y002966D02*
X031588Y002966D01*
X031371Y002966D02*
X030944Y003606D01*
X030726Y003393D02*
X030513Y003606D01*
X030513Y002966D01*
X030726Y002966D02*
X030299Y002966D01*
X030082Y003073D02*
X029975Y002966D01*
X029761Y002966D01*
X029655Y003073D01*
X029655Y003179D01*
X029761Y003286D01*
X030082Y003286D01*
X030082Y003073D01*
X029437Y002966D02*
X029010Y003606D01*
X028792Y003393D02*
X028579Y003606D01*
X028579Y002966D01*
X028792Y002966D02*
X028365Y002966D01*
X028148Y003073D02*
X028041Y002966D01*
X027828Y002966D01*
X027721Y003073D01*
X027721Y003286D01*
X027828Y003393D01*
X027934Y003393D01*
X028148Y003286D01*
X028148Y003606D01*
X027721Y003606D01*
X027826Y004016D02*
X027933Y004123D01*
X027826Y004016D02*
X027613Y004016D01*
X027506Y004123D01*
X028151Y004016D02*
X028578Y004016D01*
X028364Y004016D02*
X028364Y004656D01*
X029655Y005386D02*
X030082Y005386D01*
X030944Y005386D02*
X031371Y005386D01*
X031802Y003606D02*
X032015Y003393D01*
X030082Y003286D02*
X029868Y003500D01*
X029655Y003606D01*
X021919Y003802D02*
X021812Y003802D01*
X021705Y003909D01*
D12*
X029207Y006190D02*
X030251Y006190D01*
X030251Y006745D01*
X030023Y006745D01*
X030023Y007315D01*
X030593Y006535D01*
X031163Y007318D01*
X031163Y006745D01*
X030935Y006745D01*
X030935Y006190D01*
X031976Y006190D01*
X031976Y006745D01*
X031763Y006745D01*
X031763Y007612D01*
X031976Y007612D01*
X031976Y008170D01*
X031157Y008170D01*
X030593Y007390D01*
X030029Y008170D01*
X029219Y008170D01*
X029219Y008158D01*
X030037Y008158D01*
X030108Y008060D02*
X029219Y008060D01*
X029219Y008158D02*
X029219Y008161D01*
X029219Y007609D01*
X029420Y007609D01*
X029420Y006748D01*
X029207Y006748D01*
X029207Y006190D01*
X029207Y006287D02*
X030251Y006287D01*
X030251Y006385D02*
X029207Y006385D01*
X029207Y006484D02*
X030251Y006484D01*
X030251Y006582D02*
X029207Y006582D01*
X029207Y006681D02*
X030251Y006681D01*
X030414Y006779D02*
X030771Y006779D01*
X030842Y006878D02*
X030342Y006878D01*
X030270Y006976D02*
X030914Y006976D01*
X030986Y007075D02*
X030198Y007075D01*
X030126Y007173D02*
X031057Y007173D01*
X031163Y007173D02*
X031763Y007173D01*
X031763Y007075D02*
X031163Y007075D01*
X031163Y006976D02*
X031763Y006976D01*
X031763Y006878D02*
X031163Y006878D01*
X031163Y006779D02*
X031763Y006779D01*
X031976Y006681D02*
X030935Y006681D01*
X030935Y006582D02*
X031976Y006582D01*
X031976Y006484D02*
X030935Y006484D01*
X030935Y006385D02*
X031976Y006385D01*
X031976Y006287D02*
X030935Y006287D01*
X030627Y006582D02*
X030558Y006582D01*
X030486Y006681D02*
X030699Y006681D01*
X030023Y006779D02*
X029420Y006779D01*
X029420Y006878D02*
X030023Y006878D01*
X030023Y006976D02*
X029420Y006976D01*
X029420Y007075D02*
X030023Y007075D01*
X030023Y007173D02*
X029420Y007173D01*
X029420Y007272D02*
X030023Y007272D01*
X030054Y007272D02*
X031129Y007272D01*
X031163Y007272D02*
X031763Y007272D01*
X031763Y007370D02*
X029420Y007370D01*
X029420Y007469D02*
X030535Y007469D01*
X030650Y007469D02*
X031763Y007469D01*
X031763Y007567D02*
X030721Y007567D01*
X030792Y007666D02*
X031976Y007666D01*
X031976Y007764D02*
X030863Y007764D01*
X030935Y007863D02*
X031976Y007863D01*
X031976Y007961D02*
X031006Y007961D01*
X031077Y008060D02*
X031976Y008060D01*
X031976Y008158D02*
X031148Y008158D01*
X030179Y007961D02*
X029219Y007961D01*
X029219Y007863D02*
X030251Y007863D01*
X030322Y007764D02*
X029219Y007764D01*
X029219Y007666D02*
X030393Y007666D01*
X030464Y007567D02*
X029420Y007567D01*
M02*
