  0
SECTION
  2
HEADER
  9
$ACADVER
  1
AC1009
  9
$FILLMODE
 70
0
  9
$EXTMIN
 10
-0.008000
 20
-0.179331
 30
0.000000
  9
$EXTMAX
 10
1.729331
 20
1.308000
 30
0.000000
  0
ENDSEC
  0
SECTION
  2
TABLES
  0
TABLE
  2
LTYPE
 70
1
  0
LTYPE
  2
CONTINUOUS
 70
64
  3
Solid line
 72
65
 73
0
 40
0
  0
ENDTAB
  0
TABLE
  2
LAYER
 70
255
  0
LAYER
  2
20
 70
64
 62
178
  6
CONTINUOUS
  0
LAYER
  2
31
 70
64
 62
251
  6
CONTINUOUS
  0
ENDTAB
  0
ENDSEC
  0
SECTION
  2
BLOCKS
  0
BLOCK
  8
0
  2
RECT
 70
64
 10
0.000000
 20
0.000000
 30
0.000000
  3
RECT
  0
SOLID
  8
0
 10
-0.500000
 20
-0.500000
 30
0.000000
 11
0.500000
 21
-0.500000
 31
0.000000
 12
-0.500000
 22
0.500000
 32
0.000000
 13
0.500000
 23
0.500000
 33
0.000000
  0
ENDBLK
  8
0
  0
BLOCK
  8
0
  2
PIE
 70
64
 10
0.000000
 20
0.000000
 30
0.000000
  3
PIE
  0
CIRCLE
  8
0
 10
0.000000
 20
0.000000
 30
0.000000
 40
0.500000
  0
ENDBLK
  8
0
  0
BLOCK
  8
0
  2
OCTAGONP
 70
64
 10
0.000000
 20
0.000000
 30
0.000000
  3
OCTAGONP
  0
POLYLINE
  8
0
 66
1
 10
0.000000
 20
0.000000
 30
0.000000
 40
0.000000
 41
0.000000
 70
1
  0
VERTEX
  8
0
 10
-0.500000
 20
-0.207107
 30
0.000000
  0
VERTEX
  8
0
 10
-0.500000
 20
0.207107
 30
0.000000
  0
VERTEX
  8
0
 10
-0.207107
 20
0.500000
 30
0.000000
  0
VERTEX
  8
0
 10
0.207107
 20
0.500000
 30
0.000000
  0
VERTEX
  8
0
 10
0.500000
 20
0.207107
 30
0.000000
  0
VERTEX
  8
0
 10
0.500000
 20
-0.207107
 30
0.000000
  0
VERTEX
  8
0
 10
0.207107
 20
-0.500000
 30
0.000000
  0
VERTEX
  8
0
 10
-0.207107
 20
-0.500000
 30
0.000000
  0
SEQEND
  8
0
  0
ENDBLK
  8
0
  0
BLOCK
  8
0
  2
SQUAREP
 70
64
 10
0.000000
 20
0.000000
 30
0.000000
  3
SQUAREP
  0
SOLID
  8
0
 10
-0.500000
 20
-0.500000
 30
0.000000
 11
0.500000
 21
-0.500000
 31
0.000000
 12
-0.500000
 22
0.500000
 32
0.000000
 13
0.500000
 23
0.500000
 33
0.000000
  0
ENDBLK
  8
0
  0
BLOCK
  8
0
  2
ROUNDP
 70
64
 10
0.000000
 20
0.000000
 30
0.000000
  3
ROUNDP
  0
CIRCLE
  8
0
 10
0.000000
 20
0.000000
 30
0.000000
 40
0.500000
  0
ENDBLK
  8
0
  0
BLOCK
  8
0
  2
ANNULUSP
 70
64
 10
0.000000
 20
0.000000
 30
0.000000
  3
ANNULUSP
  0
CIRCLE
  8
0
 10
0.000000
 20
0.000000
 30
0.000000
 40
0.500000
  0
ENDBLK
  8
0
  0
BLOCK
  8
0
  2
THERMALP
 70
64
 10
0.000000
 20
0.000000
 30
0.000000
  3
THERMALP
  0
LINE
  8
0
 10
-0.237868
 20
0.450000
 30
0.000000
 11
0.237868
 21
0.450000
 31
0.000000
  0
LINE
  8
0
 10
0.450000
 20
0.237868
 30
0.000000
 11
0.450000
 21
-0.237868
 31
0.000000
  0
LINE
  8
0
 10
0.237868
 20
-0.450000
 30
0.000000
 11
-0.237868
 21
-0.450000
 31
0.000000
  0
LINE
  8
0
 10
-0.450000
 20
-0.237868
 30
0.000000
 11
-0.450000
 21
0.237868
 31
0.000000
  0
ENDBLK
  8
0
  0
BLOCK
  8
0
  2
OCTAGONV
 70
64
 10
0.000000
 20
0.000000
 30
0.000000
  3
OCTAGONV
  0
POLYLINE
  8
0
 66
1
 10
0.000000
 20
0.000000
 30
0.000000
 40
0.000000
 41
0.000000
 70
1
  0
VERTEX
  8
0
 10
-0.500000
 20
-0.207107
 30
0.000000
  0
VERTEX
  8
0
 10
-0.500000
 20
0.207107
 30
0.000000
  0
VERTEX
  8
0
 10
-0.207107
 20
0.500000
 30
0.000000
  0
VERTEX
  8
0
 10
0.207107
 20
0.500000
 30
0.000000
  0
VERTEX
  8
0
 10
0.500000
 20
0.207107
 30
0.000000
  0
VERTEX
  8
0
 10
0.500000
 20
-0.207107
 30
0.000000
  0
VERTEX
  8
0
 10
0.207107
 20
-0.500000
 30
0.000000
  0
VERTEX
  8
0
 10
-0.207107
 20
-0.500000
 30
0.000000
  0
SEQEND
  8
0
  0
ENDBLK
  8
0
  0
BLOCK
  8
0
  2
SQUAREV
 70
64
 10
0.000000
 20
0.000000
 30
0.000000
  3
SQUAREV
  0
SOLID
  8
0
 10
-0.500000
 20
-0.500000
 30
0.000000
 11
0.500000
 21
-0.500000
 31
0.000000
 12
-0.500000
 22
0.500000
 32
0.000000
 13
0.500000
 23
0.500000
 33
0.000000
  0
ENDBLK
  8
0
  0
BLOCK
  8
0
  2
ROUNDV
 70
64
 10
0.000000
 20
0.000000
 30
0.000000
  3
ROUNDV
  0
CIRCLE
  8
0
 10
0.000000
 20
0.000000
 30
0.000000
 40
0.500000
  0
ENDBLK
  8
0
  0
BLOCK
  8
0
  2
ANNULUSV
 70
64
 10
0.000000
 20
0.000000
 30
0.000000
  3
ANNULUSV
  0
CIRCLE
  8
0
 10
0.000000
 20
0.000000
 30
0.000000
 40
0.500000
  0
ENDBLK
  8
0
  0
BLOCK
  8
0
  2
THERMALV
 70
64
 10
0.000000
 20
0.000000
 30
0.000000
  3
THERMALV
  0
LINE
  8
0
 10
-0.237868
 20
0.450000
 30
0.000000
 11
0.237868
 21
0.450000
 31
0.000000
  0
LINE
  8
0
 10
0.450000
 20
0.237868
 30
0.000000
 11
0.450000
 21
-0.237868
 31
0.000000
  0
LINE
  8
0
 10
0.237868
 20
-0.450000
 30
0.000000
 11
-0.237868
 21
-0.450000
 31
0.000000
  0
LINE
  8
0
 10
-0.450000
 20
-0.237868
 30
0.000000
 11
-0.450000
 21
0.237868
 31
0.000000
  0
ENDBLK
  8
0
  0
ENDSEC
  0
SECTION
  2
ENTITIES
  0
LINE
  8
20
 10
1.550000
 20
1.200000
 30
0.000000
 11
1.550000
 21
0.100000
 31
0.000000
  0
ARC
  8
20
 10
1.450000
 20
0.100000
 30
0.000000
 40
0.100000
 50
270.000000
 51
0.000000
  0
LINE
  8
20
 10
1.450000
 20
0.000000
 30
0.000000
 11
0.100000
 21
0.000000
 31
0.000000
  0
ARC
  8
20
 10
0.100000
 20
0.100000
 30
0.000000
 40
0.100000
 50
180.000000
 51
270.000000
  0
LINE
  8
20
 10
0.000000
 20
0.100000
 30
0.000000
 11
0.000000
 21
1.200000
 31
0.000000
  0
LINE
  8
20
 10
0.100000
 20
1.300000
 30
0.000000
 11
1.450000
 21
1.300000
 31
0.000000
  0
ARC
  8
20
 10
1.450000
 20
1.200000
 30
0.000000
 40
0.100000
 50
0.000000
 51
90.000000
  0
ARC
  8
20
 10
0.100000
 20
1.200000
 30
0.000000
 40
0.100000
 50
90.000000
 51
180.000000
  0
CIRCLE
  8
20
 10
0.145000
 20
0.540000
 30
0.000000
 40
0.062992
  0
INSERT
  8
31
  2
RECT
 10
0.681000
 20
1.010236
 30
0.000000
 41
0.044000
 42
0.016000
 43
1.000000
 50
0.000000
  0
INSERT
  8
31
  2
RECT
 10
0.681000
 20
0.978740
 30
0.000000
 41
0.044000
 42
0.016000
 43
1.000000
 50
0.000000
  0
INSERT
  8
31
  2
RECT
 10
0.681000
 20
0.947244
 30
0.000000
 41
0.044000
 42
0.016000
 43
1.000000
 50
0.000000
  0
INSERT
  8
31
  2
RECT
 10
0.681000
 20
0.915748
 30
0.000000
 41
0.044000
 42
0.016000
 43
1.000000
 50
0.000000
  0
INSERT
  8
31
  2
RECT
 10
0.681000
 20
0.884252
 30
0.000000
 41
0.044000
 42
0.016000
 43
1.000000
 50
0.000000
  0
INSERT
  8
31
  2
RECT
 10
0.681000
 20
0.852756
 30
0.000000
 41
0.044000
 42
0.016000
 43
1.000000
 50
0.000000
  0
INSERT
  8
31
  2
RECT
 10
0.681000
 20
0.821260
 30
0.000000
 41
0.044000
 42
0.016000
 43
1.000000
 50
0.000000
  0
INSERT
  8
31
  2
RECT
 10
0.681000
 20
0.789764
 30
0.000000
 41
0.044000
 42
0.016000
 43
1.000000
 50
0.000000
  0
INSERT
  8
31
  2
RECT
 10
0.739764
 20
0.731000
 30
0.000000
 41
0.016000
 42
0.044000
 43
1.000000
 50
0.000000
  0
INSERT
  8
31
  2
RECT
 10
0.771260
 20
0.731000
 30
0.000000
 41
0.016000
 42
0.044000
 43
1.000000
 50
0.000000
  0
INSERT
  8
31
  2
RECT
 10
0.802756
 20
0.731000
 30
0.000000
 41
0.016000
 42
0.044000
 43
1.000000
 50
0.000000
  0
INSERT
  8
31
  2
RECT
 10
0.834252
 20
0.731000
 30
0.000000
 41
0.016000
 42
0.044000
 43
1.000000
 50
0.000000
  0
INSERT
  8
31
  2
RECT
 10
0.865748
 20
0.731000
 30
0.000000
 41
0.016000
 42
0.044000
 43
1.000000
 50
0.000000
  0
INSERT
  8
31
  2
RECT
 10
0.897244
 20
0.731000
 30
0.000000
 41
0.016000
 42
0.044000
 43
1.000000
 50
0.000000
  0
INSERT
  8
31
  2
RECT
 10
0.928740
 20
0.731000
 30
0.000000
 41
0.016000
 42
0.044000
 43
1.000000
 50
0.000000
  0
INSERT
  8
31
  2
RECT
 10
0.960236
 20
0.731000
 30
0.000000
 41
0.016000
 42
0.044000
 43
1.000000
 50
0.000000
  0
INSERT
  8
31
  2
RECT
 10
1.019000
 20
0.789764
 30
0.000000
 41
0.044000
 42
0.016000
 43
1.000000
 50
0.000000
  0
INSERT
  8
31
  2
RECT
 10
1.019000
 20
0.821260
 30
0.000000
 41
0.044000
 42
0.016000
 43
1.000000
 50
0.000000
  0
INSERT
  8
31
  2
RECT
 10
1.019000
 20
0.852756
 30
0.000000
 41
0.044000
 42
0.016000
 43
1.000000
 50
0.000000
  0
INSERT
  8
31
  2
RECT
 10
1.019000
 20
0.884252
 30
0.000000
 41
0.044000
 42
0.016000
 43
1.000000
 50
0.000000
  0
INSERT
  8
31
  2
RECT
 10
1.019000
 20
0.915748
 30
0.000000
 41
0.044000
 42
0.016000
 43
1.000000
 50
0.000000
  0
INSERT
  8
31
  2
RECT
 10
1.019000
 20
0.947244
 30
0.000000
 41
0.044000
 42
0.016000
 43
1.000000
 50
0.000000
  0
INSERT
  8
31
  2
RECT
 10
1.019000
 20
0.978740
 30
0.000000
 41
0.044000
 42
0.016000
 43
1.000000
 50
0.000000
  0
INSERT
  8
31
  2
RECT
 10
1.019000
 20
1.010236
 30
0.000000
 41
0.044000
 42
0.016000
 43
1.000000
 50
0.000000
  0
INSERT
  8
31
  2
RECT
 10
0.960236
 20
1.069000
 30
0.000000
 41
0.016000
 42
0.044000
 43
1.000000
 50
0.000000
  0
INSERT
  8
31
  2
RECT
 10
0.928740
 20
1.069000
 30
0.000000
 41
0.016000
 42
0.044000
 43
1.000000
 50
0.000000
  0
INSERT
  8
31
  2
RECT
 10
0.897244
 20
1.069000
 30
0.000000
 41
0.016000
 42
0.044000
 43
1.000000
 50
0.000000
  0
INSERT
  8
31
  2
RECT
 10
0.865748
 20
1.069000
 30
0.000000
 41
0.016000
 42
0.044000
 43
1.000000
 50
0.000000
  0
INSERT
  8
31
  2
RECT
 10
0.834252
 20
1.069000
 30
0.000000
 41
0.016000
 42
0.044000
 43
1.000000
 50
0.000000
  0
INSERT
  8
31
  2
RECT
 10
0.802756
 20
1.069000
 30
0.000000
 41
0.016000
 42
0.044000
 43
1.000000
 50
0.000000
  0
INSERT
  8
31
  2
RECT
 10
0.771260
 20
1.069000
 30
0.000000
 41
0.016000
 42
0.044000
 43
1.000000
 50
0.000000
  0
INSERT
  8
31
  2
RECT
 10
0.739764
 20
1.069000
 30
0.000000
 41
0.016000
 42
0.044000
 43
1.000000
 50
0.000000
  0
INSERT
  8
31
  2
RECT
 10
1.150039
 20
0.715000
 30
0.000000
 41
0.068803
 42
0.056992
 43
1.000000
 50
180.000000
  0
INSERT
  8
31
  2
RECT
 10
1.279961
 20
0.715000
 30
0.000000
 41
0.068803
 42
0.056992
 43
1.000000
 50
180.000000
  0
INSERT
  8
31
  2
RECT
 10
0.115039
 20
0.710000
 30
0.000000
 41
0.068803
 42
0.056992
 43
1.000000
 50
180.000000
  0
INSERT
  8
31
  2
RECT
 10
0.244961
 20
0.710000
 30
0.000000
 41
0.068803
 42
0.056992
 43
1.000000
 50
180.000000
  0
INSERT
  8
31
  2
RECT
 10
0.564567
 20
0.560000
 30
0.000000
 41
0.025496
 42
0.041244
 43
1.000000
 50
0.000000
  0
INSERT
  8
31
  2
RECT
 10
0.635433
 20
0.560000
 30
0.000000
 41
0.025496
 42
0.041244
 43
1.000000
 50
0.000000
  0
INSERT
  8
31
  2
RECT
 10
0.500000
 20
0.485433
 30
0.000000
 41
0.025496
 42
0.041244
 43
1.000000
 50
270.000000
  0
INSERT
  8
31
  2
RECT
 10
0.500000
 20
0.414567
 30
0.000000
 41
0.025496
 42
0.041244
 43
1.000000
 50
270.000000
  0
INSERT
  8
31
  2
RECT
 10
0.148815
 20
0.887402
 30
0.000000
 41
0.015654
 42
0.041244
 43
1.000000
 50
270.000000
  0
INSERT
  8
31
  2
RECT
 10
0.148815
 20
0.850000
 30
0.000000
 41
0.015654
 42
0.041244
 43
1.000000
 50
270.000000
  0
INSERT
  8
31
  2
RECT
 10
0.148815
 20
0.812598
 30
0.000000
 41
0.015654
 42
0.041244
 43
1.000000
 50
270.000000
  0
INSERT
  8
31
  2
RECT
 10
0.251185
 20
0.812598
 30
0.000000
 41
0.015654
 42
0.041244
 43
1.000000
 50
270.000000
  0
INSERT
  8
31
  2
RECT
 10
0.251185
 20
0.887402
 30
0.000000
 41
0.015654
 42
0.041244
 43
1.000000
 50
270.000000
  0
INSERT
  8
31
  2
RECT
 10
1.102756
 20
0.100000
 30
0.000000
 41
0.021559
 42
0.060929
 43
1.000000
 50
0.000000
  0
INSERT
  8
31
  2
RECT
 10
1.150000
 20
0.100000
 30
0.000000
 41
0.021559
 42
0.060929
 43
1.000000
 50
0.000000
  0
INSERT
  8
31
  2
RECT
 10
1.197244
 20
0.100000
 30
0.000000
 41
0.021559
 42
0.060929
 43
1.000000
 50
0.000000
  0
INSERT
  8
31
  2
RECT
 10
0.552756
 20
0.720000
 30
0.000000
 41
0.021559
 42
0.060929
 43
1.000000
 50
0.000000
  0
INSERT
  8
31
  2
RECT
 10
0.600000
 20
0.720000
 30
0.000000
 41
0.021559
 42
0.060929
 43
1.000000
 50
0.000000
  0
INSERT
  8
31
  2
RECT
 10
0.647244
 20
0.720000
 30
0.000000
 41
0.021559
 42
0.060929
 43
1.000000
 50
0.000000
  0
INSERT
  8
31
  2
RECT
 10
1.255000
 20
1.000000
 30
0.000000
 41
0.024000
 42
0.054000
 43
1.000000
 50
0.000000
  0
INSERT
  8
31
  2
RECT
 10
1.255000
 20
0.800000
 30
0.000000
 41
0.024000
 42
0.054000
 43
1.000000
 50
0.000000
  0
INSERT
  8
31
  2
RECT
 10
1.105000
 20
1.000000
 30
0.000000
 41
0.024000
 42
0.054000
 43
1.000000
 50
0.000000
  0
INSERT
  8
31
  2
RECT
 10
1.105000
 20
0.800000
 30
0.000000
 41
0.024000
 42
0.054000
 43
1.000000
 50
0.000000
  0
INSERT
  8
31
  2
RECT
 10
1.350000
 20
0.954567
 30
0.000000
 41
0.025496
 42
0.041244
 43
1.000000
 50
90.000000
  0
INSERT
  8
31
  2
RECT
 10
1.350000
 20
1.025433
 30
0.000000
 41
0.025496
 42
0.041244
 43
1.000000
 50
90.000000
  0
INSERT
  8
31
  2
RECT
 10
0.750000
 20
0.207000
 30
0.000000
 41
0.020000
 42
0.074000
 43
1.000000
 50
0.000000
  0
INSERT
  8
31
  2
RECT
 10
0.800000
 20
0.207000
 30
0.000000
 41
0.020000
 42
0.074000
 43
1.000000
 50
0.000000
  0
INSERT
  8
31
  2
RECT
 10
0.850000
 20
0.207000
 30
0.000000
 41
0.020000
 42
0.074000
 43
1.000000
 50
0.000000
  0
INSERT
  8
31
  2
RECT
 10
0.900000
 20
0.207000
 30
0.000000
 41
0.020000
 42
0.074000
 43
1.000000
 50
0.000000
  0
INSERT
  8
31
  2
RECT
 10
0.950000
 20
0.207000
 30
0.000000
 41
0.020000
 42
0.074000
 43
1.000000
 50
0.000000
  0
INSERT
  8
31
  2
RECT
 10
1.000000
 20
0.207000
 30
0.000000
 41
0.020000
 42
0.074000
 43
1.000000
 50
0.000000
  0
INSERT
  8
31
  2
RECT
 10
1.050000
 20
0.207000
 30
0.000000
 41
0.020000
 42
0.074000
 43
1.000000
 50
0.000000
  0
INSERT
  8
31
  2
RECT
 10
1.100000
 20
0.207000
 30
0.000000
 41
0.020000
 42
0.074000
 43
1.000000
 50
0.000000
  0
INSERT
  8
31
  2
RECT
 10
1.150000
 20
0.207000
 30
0.000000
 41
0.020000
 42
0.074000
 43
1.000000
 50
0.000000
  0
INSERT
  8
31
  2
RECT
 10
1.150000
 20
0.593000
 30
0.000000
 41
0.020000
 42
0.074000
 43
1.000000
 50
0.000000
  0
INSERT
  8
31
  2
RECT
 10
1.100000
 20
0.593000
 30
0.000000
 41
0.020000
 42
0.074000
 43
1.000000
 50
0.000000
  0
INSERT
  8
31
  2
RECT
 10
1.050000
 20
0.593000
 30
0.000000
 41
0.020000
 42
0.074000
 43
1.000000
 50
0.000000
  0
INSERT
  8
31
  2
RECT
 10
1.000000
 20
0.593000
 30
0.000000
 41
0.020000
 42
0.074000
 43
1.000000
 50
0.000000
  0
INSERT
  8
31
  2
RECT
 10
0.950000
 20
0.593000
 30
0.000000
 41
0.020000
 42
0.074000
 43
1.000000
 50
0.000000
  0
INSERT
  8
31
  2
RECT
 10
0.900000
 20
0.593000
 30
0.000000
 41
0.020000
 42
0.074000
 43
1.000000
 50
0.000000
  0
INSERT
  8
31
  2
RECT
 10
0.850000
 20
0.593000
 30
0.000000
 41
0.020000
 42
0.074000
 43
1.000000
 50
0.000000
  0
INSERT
  8
31
  2
RECT
 10
0.800000
 20
0.593000
 30
0.000000
 41
0.020000
 42
0.074000
 43
1.000000
 50
0.000000
  0
INSERT
  8
31
  2
RECT
 10
0.750000
 20
0.593000
 30
0.000000
 41
0.020000
 42
0.074000
 43
1.000000
 50
0.000000
  0
INSERT
  8
31
  2
RECT
 10
0.577362
 20
0.175000
 30
0.000000
 41
0.017622
 42
0.080614
 43
1.000000
 50
90.000000
  0
INSERT
  8
31
  2
RECT
 10
0.577362
 20
0.225000
 30
0.000000
 41
0.017622
 42
0.080614
 43
1.000000
 50
90.000000
  0
INSERT
  8
31
  2
RECT
 10
0.577362
 20
0.275000
 30
0.000000
 41
0.017622
 42
0.080614
 43
1.000000
 50
90.000000
  0
INSERT
  8
31
  2
RECT
 10
0.577362
 20
0.325000
 30
0.000000
 41
0.017622
 42
0.080614
 43
1.000000
 50
90.000000
  0
INSERT
  8
31
  2
RECT
 10
0.372638
 20
0.325000
 30
0.000000
 41
0.017622
 42
0.080614
 43
1.000000
 50
90.000000
  0
INSERT
  8
31
  2
RECT
 10
0.372638
 20
0.275000
 30
0.000000
 41
0.017622
 42
0.080614
 43
1.000000
 50
90.000000
  0
INSERT
  8
31
  2
RECT
 10
0.372638
 20
0.225000
 30
0.000000
 41
0.017622
 42
0.080614
 43
1.000000
 50
90.000000
  0
INSERT
  8
31
  2
RECT
 10
0.372638
 20
0.175000
 30
0.000000
 41
0.017622
 42
0.080614
 43
1.000000
 50
90.000000
  0
ENDSEC
  0
EOF
