G75*
%MOIN*%
%OFA0B0*%
%FSLAX24Y24*%
%IPPOS*%
%LPD*%
%AMOC8*
5,1,8,0,0,1.08239X$1,22.5*
%
%ADD10C,0.1320*%
%ADD11C,0.1240*%
%ADD12C,0.1125*%
%ADD13C,0.0540*%
%ADD14C,0.0806*%
%ADD15C,0.0825*%
%ADD16C,0.0710*%
%ADD17R,0.0710X0.0710*%
%ADD18R,0.0800X0.0800*%
%ADD19C,0.0800*%
%ADD20C,0.0535*%
%ADD21OC8,0.0690*%
%ADD22OC8,0.0540*%
%ADD23C,0.0460*%
%ADD24C,0.0496*%
D10*
X007393Y026050D03*
X007393Y066650D03*
X007393Y070050D03*
X007393Y110650D03*
X048393Y110850D03*
X048393Y070050D03*
X048393Y066850D03*
X048393Y026050D03*
D11*
X048293Y034250D03*
X048293Y038250D03*
X048293Y047250D03*
X048293Y051250D03*
X048293Y055250D03*
X048293Y059250D03*
X048293Y063250D03*
X037493Y065750D03*
X033493Y065750D03*
X027493Y065750D03*
X023493Y065750D03*
X019493Y065750D03*
X007493Y056950D03*
X007493Y052950D03*
X007493Y046950D03*
X007493Y041950D03*
X007493Y037950D03*
X007493Y033950D03*
X007493Y029950D03*
X007493Y077450D03*
X007493Y081450D03*
X007493Y085450D03*
X007493Y090950D03*
X007493Y094950D03*
X007493Y098950D03*
X007493Y102950D03*
X007493Y106950D03*
X020493Y109750D03*
X027493Y109750D03*
X031493Y109750D03*
X035493Y109750D03*
X048293Y107250D03*
X048293Y103250D03*
X048293Y096750D03*
X048293Y092750D03*
D12*
X045423Y091920D03*
X045423Y093580D03*
X043253Y093580D03*
X043253Y091920D03*
X043253Y095920D03*
X043253Y097580D03*
X045423Y097580D03*
X045423Y095920D03*
X045423Y102420D03*
X045423Y104080D03*
X043253Y104080D03*
X043253Y102420D03*
X043253Y106420D03*
X043253Y108080D03*
X045423Y108080D03*
X045423Y106420D03*
X036323Y106880D03*
X034663Y106880D03*
X034663Y104710D03*
X036323Y104710D03*
X032323Y104710D03*
X030663Y104710D03*
X030663Y106880D03*
X032323Y106880D03*
X028323Y106880D03*
X026663Y106880D03*
X026663Y104710D03*
X028323Y104710D03*
X021323Y104710D03*
X019663Y104710D03*
X019663Y106880D03*
X021323Y106880D03*
X012533Y106120D03*
X012533Y107780D03*
X010363Y107780D03*
X010363Y106120D03*
X010363Y103780D03*
X010363Y102120D03*
X012533Y102120D03*
X012533Y103780D03*
X012533Y099780D03*
X012533Y098120D03*
X010363Y098120D03*
X010363Y099780D03*
X010363Y095780D03*
X010363Y094120D03*
X012533Y094120D03*
X012533Y095780D03*
X012533Y091780D03*
X012533Y090120D03*
X010363Y090120D03*
X010363Y091780D03*
X010363Y086280D03*
X010363Y084620D03*
X012533Y084620D03*
X012533Y086280D03*
X012533Y082280D03*
X012533Y080620D03*
X010363Y080620D03*
X010363Y082280D03*
X010363Y078280D03*
X010363Y076620D03*
X012533Y076620D03*
X012533Y078280D03*
X018663Y062880D03*
X020323Y062880D03*
X020323Y060710D03*
X018663Y060710D03*
X022663Y060710D03*
X024323Y060710D03*
X024323Y062880D03*
X022663Y062880D03*
X026663Y062880D03*
X028323Y062880D03*
X028323Y060710D03*
X026663Y060710D03*
X032663Y060710D03*
X034323Y060710D03*
X034323Y062880D03*
X032663Y062880D03*
X036663Y062880D03*
X038323Y062880D03*
X038323Y060710D03*
X036663Y060710D03*
X043253Y060080D03*
X043253Y058420D03*
X045423Y058420D03*
X045423Y060080D03*
X045423Y062420D03*
X045423Y064080D03*
X043253Y064080D03*
X043253Y062420D03*
X043253Y056080D03*
X043253Y054420D03*
X045423Y054420D03*
X045423Y056080D03*
X045423Y052080D03*
X045423Y050420D03*
X043253Y050420D03*
X043253Y052080D03*
X043253Y048080D03*
X043253Y046420D03*
X045423Y046420D03*
X045423Y048080D03*
X045423Y039080D03*
X045423Y037420D03*
X043253Y037420D03*
X043253Y039080D03*
X043253Y035080D03*
X043253Y033420D03*
X045423Y033420D03*
X045423Y035080D03*
X012533Y034780D03*
X012533Y033120D03*
X010363Y033120D03*
X010363Y034780D03*
X010363Y037120D03*
X010363Y038780D03*
X012533Y038780D03*
X012533Y037120D03*
X012533Y041120D03*
X012533Y042780D03*
X010363Y042780D03*
X010363Y041120D03*
X010363Y046120D03*
X010363Y047780D03*
X012533Y047780D03*
X012533Y046120D03*
X012533Y052120D03*
X012533Y053780D03*
X010363Y053780D03*
X010363Y052120D03*
X010363Y056120D03*
X010363Y057780D03*
X012533Y057780D03*
X012533Y056120D03*
X012533Y030780D03*
X012533Y029120D03*
X010363Y029120D03*
X010363Y030780D03*
D13*
X017653Y032850D02*
X018133Y032850D01*
X018133Y033850D02*
X017653Y033850D01*
X017653Y034850D02*
X018133Y034850D01*
X018133Y035850D02*
X017653Y035850D01*
X017653Y037850D02*
X018133Y037850D01*
X018133Y038850D02*
X017653Y038850D01*
X017653Y039850D02*
X018133Y039850D01*
X018133Y040850D02*
X017653Y040850D01*
X017653Y041850D02*
X018133Y041850D01*
X018133Y042850D02*
X017653Y042850D01*
X017653Y043850D02*
X018133Y043850D01*
X020653Y043850D02*
X021133Y043850D01*
X021133Y042850D02*
X020653Y042850D01*
X020653Y041850D02*
X021133Y041850D01*
X021133Y040850D02*
X020653Y040850D01*
X020653Y039850D02*
X021133Y039850D01*
X021133Y038850D02*
X020653Y038850D01*
X020653Y037850D02*
X021133Y037850D01*
X021133Y035850D02*
X020653Y035850D01*
X020653Y034850D02*
X021133Y034850D01*
X021133Y033850D02*
X020653Y033850D01*
X020653Y032850D02*
X021133Y032850D01*
D14*
X020893Y031350D03*
X017893Y030350D03*
D15*
X017893Y031350D03*
X020893Y030350D03*
D16*
X015893Y032850D03*
X022393Y036350D03*
X022393Y037350D03*
D17*
X015893Y031850D03*
D18*
X014893Y051850D03*
X038893Y057850D03*
X040393Y045350D03*
X040393Y032350D03*
X015393Y089850D03*
X040893Y091350D03*
X040893Y108850D03*
D19*
X040893Y107850D03*
X040893Y106850D03*
X040893Y105850D03*
X040893Y104850D03*
X040893Y103850D03*
X040893Y102850D03*
X040893Y101850D03*
X037393Y101850D03*
X036393Y101850D03*
X035393Y101850D03*
X034393Y101850D03*
X033393Y101850D03*
X032393Y101850D03*
X031393Y101850D03*
X030393Y101850D03*
X029393Y101850D03*
X028393Y101850D03*
X027393Y101850D03*
X026393Y101850D03*
X015393Y101850D03*
X015393Y100850D03*
X015393Y099850D03*
X015393Y098850D03*
X015393Y097850D03*
X015393Y096850D03*
X015393Y095850D03*
X015393Y094850D03*
X015393Y093850D03*
X015393Y092850D03*
X015393Y091850D03*
X015393Y090850D03*
X015393Y087350D03*
X015393Y086350D03*
X015393Y085350D03*
X015393Y084350D03*
X015393Y083350D03*
X015393Y082350D03*
X015393Y081350D03*
X015393Y080350D03*
X015393Y079350D03*
X015393Y078350D03*
X015393Y077350D03*
X015393Y076350D03*
X016393Y071350D03*
X017393Y071350D03*
X018393Y071350D03*
X019393Y071350D03*
X020393Y071350D03*
X021393Y071350D03*
X022393Y071350D03*
X023393Y071350D03*
X024393Y071350D03*
X025393Y071350D03*
X026393Y071350D03*
X027393Y071350D03*
X028393Y071350D03*
X029393Y071350D03*
X030393Y071350D03*
X031393Y071350D03*
X032393Y071350D03*
X033393Y071350D03*
X034393Y071350D03*
X035393Y071350D03*
X036393Y071350D03*
X037393Y071350D03*
X038393Y071350D03*
X039393Y071350D03*
X037893Y057850D03*
X036893Y057850D03*
X035893Y057850D03*
X034893Y057850D03*
X033893Y057850D03*
X032893Y057850D03*
X031893Y057850D03*
X029393Y057850D03*
X028393Y057850D03*
X027393Y057850D03*
X026393Y057850D03*
X025393Y057850D03*
X024393Y057850D03*
X023393Y057850D03*
X022393Y057850D03*
X021393Y057850D03*
X020393Y057850D03*
X019393Y057850D03*
X018393Y057850D03*
X014893Y057850D03*
X014893Y056850D03*
X014893Y055850D03*
X014893Y054850D03*
X014893Y053850D03*
X014893Y052850D03*
X014893Y058850D03*
X040393Y052350D03*
X040393Y051350D03*
X040393Y050350D03*
X040393Y049350D03*
X040393Y048350D03*
X040393Y047350D03*
X040393Y046350D03*
X040393Y039350D03*
X040393Y038350D03*
X040393Y037350D03*
X040393Y036350D03*
X040393Y035350D03*
X040393Y034350D03*
X040393Y033350D03*
X039393Y027350D03*
X038393Y027350D03*
X037393Y027350D03*
X036393Y027350D03*
X035393Y027350D03*
X034393Y027350D03*
X033393Y027350D03*
X032393Y027350D03*
X031393Y027350D03*
X030393Y027350D03*
X029393Y027350D03*
X028393Y027350D03*
X027393Y027350D03*
X026393Y027350D03*
X025393Y027350D03*
X024393Y027350D03*
X023393Y027350D03*
X022393Y027350D03*
X021393Y027350D03*
X020393Y027350D03*
X019393Y027350D03*
X018393Y027350D03*
X017393Y027350D03*
X016393Y027350D03*
X040893Y092350D03*
X040893Y093350D03*
X040893Y094350D03*
X040893Y095350D03*
X040893Y096350D03*
X040893Y097350D03*
X040893Y098350D03*
X015393Y102850D03*
X015393Y103850D03*
X015393Y104850D03*
X015393Y105850D03*
X015393Y106850D03*
X015393Y107850D03*
X015393Y108850D03*
D20*
X015893Y042150D03*
X015893Y040150D03*
X015893Y038150D03*
X015893Y036150D03*
D21*
X015393Y088850D03*
X026393Y088850D03*
D22*
X022893Y103350D03*
X022893Y106350D03*
D23*
X017293Y104550D03*
X016693Y106750D03*
X014093Y108350D03*
X009093Y102350D03*
X008893Y099750D03*
X011493Y100150D03*
X008793Y096750D03*
X006093Y100550D03*
X014293Y092950D03*
X016293Y095550D03*
X018093Y094150D03*
X019093Y095150D03*
X020693Y093950D03*
X021693Y092950D03*
X019893Y092750D03*
X020293Y091350D03*
X023493Y091150D03*
X025093Y089550D03*
X017293Y086750D03*
X014293Y088150D03*
X011293Y089150D03*
X013893Y084350D03*
X016493Y081950D03*
X014493Y080550D03*
X014493Y076550D03*
X024493Y061750D03*
X025493Y059150D03*
X026693Y058950D03*
X028893Y061950D03*
X033093Y056750D03*
X033093Y055150D03*
X035093Y055950D03*
X036893Y055950D03*
X036693Y054350D03*
X041493Y053350D03*
X041293Y050150D03*
X041893Y043350D03*
X038893Y041750D03*
X038493Y043150D03*
X041293Y036950D03*
X024293Y032350D03*
X022893Y030950D03*
X022693Y033950D03*
X021893Y034750D03*
X019893Y035550D03*
X013693Y049950D03*
X030493Y055150D03*
X038693Y059350D03*
X040493Y059550D03*
X040293Y061150D03*
X047493Y060350D03*
X042093Y092950D03*
X036693Y099950D03*
X035893Y099950D03*
X034893Y102550D03*
X033493Y104550D03*
X032493Y108750D03*
X039093Y105950D03*
X039893Y104150D03*
X041893Y106150D03*
X042893Y105150D03*
X038893Y100950D03*
D24*
X028583Y099070D03*
X026523Y100040D03*
X025893Y097850D03*
X023393Y099850D03*
X022483Y100490D03*
X021893Y101350D03*
X023583Y102580D03*
X014133Y091100D03*
X007793Y089600D03*
X007203Y089590D03*
X007183Y087950D03*
X007773Y087960D03*
X027393Y072850D03*
X036393Y048850D03*
X028393Y036850D03*
X031393Y033850D03*
X017393Y029350D03*
X009393Y027350D03*
M02*
