G75*
%MOIN*%
%OFA0B0*%
%FSLAX24Y24*%
%IPPOS*%
%LPD*%
%AMOC8*
5,1,8,0,0,1.08239X$1,22.5*
%
%ADD10C,0.0000*%
D10*
X001180Y001893D02*
X014680Y001893D01*
X014740Y001895D01*
X014801Y001900D01*
X014860Y001909D01*
X014919Y001922D01*
X014978Y001938D01*
X015035Y001958D01*
X015090Y001981D01*
X015145Y002008D01*
X015197Y002037D01*
X015248Y002070D01*
X015297Y002106D01*
X015343Y002144D01*
X015387Y002186D01*
X015429Y002230D01*
X015467Y002276D01*
X015503Y002325D01*
X015536Y002376D01*
X015565Y002428D01*
X015592Y002483D01*
X015615Y002538D01*
X015635Y002595D01*
X015651Y002654D01*
X015664Y002713D01*
X015673Y002772D01*
X015678Y002833D01*
X015680Y002893D01*
X015680Y013893D01*
X015678Y013953D01*
X015673Y014014D01*
X015664Y014073D01*
X015651Y014132D01*
X015635Y014191D01*
X015615Y014248D01*
X015592Y014303D01*
X015565Y014358D01*
X015536Y014410D01*
X015503Y014461D01*
X015467Y014510D01*
X015429Y014556D01*
X015387Y014600D01*
X015343Y014642D01*
X015297Y014680D01*
X015248Y014716D01*
X015197Y014749D01*
X015145Y014778D01*
X015090Y014805D01*
X015035Y014828D01*
X014978Y014848D01*
X014919Y014864D01*
X014860Y014877D01*
X014801Y014886D01*
X014740Y014891D01*
X014680Y014893D01*
X001180Y014893D01*
X001120Y014891D01*
X001059Y014886D01*
X001000Y014877D01*
X000941Y014864D01*
X000882Y014848D01*
X000825Y014828D01*
X000770Y014805D01*
X000715Y014778D01*
X000663Y014749D01*
X000612Y014716D01*
X000563Y014680D01*
X000517Y014642D01*
X000473Y014600D01*
X000431Y014556D01*
X000393Y014510D01*
X000357Y014461D01*
X000324Y014410D01*
X000295Y014358D01*
X000268Y014303D01*
X000245Y014248D01*
X000225Y014191D01*
X000209Y014132D01*
X000196Y014073D01*
X000187Y014014D01*
X000182Y013953D01*
X000180Y013893D01*
X000180Y002893D01*
X000182Y002833D01*
X000187Y002772D01*
X000196Y002713D01*
X000209Y002654D01*
X000225Y002595D01*
X000245Y002538D01*
X000268Y002483D01*
X000295Y002428D01*
X000324Y002376D01*
X000357Y002325D01*
X000393Y002276D01*
X000431Y002230D01*
X000473Y002186D01*
X000517Y002144D01*
X000563Y002106D01*
X000612Y002070D01*
X000663Y002037D01*
X000715Y002008D01*
X000770Y001981D01*
X000825Y001958D01*
X000882Y001938D01*
X000941Y001922D01*
X001000Y001909D01*
X001059Y001900D01*
X001120Y001895D01*
X001180Y001893D01*
X001000Y007293D02*
X001002Y007343D01*
X001008Y007393D01*
X001018Y007442D01*
X001032Y007490D01*
X001049Y007537D01*
X001070Y007582D01*
X001095Y007626D01*
X001123Y007667D01*
X001155Y007706D01*
X001189Y007743D01*
X001226Y007777D01*
X001266Y007807D01*
X001308Y007834D01*
X001352Y007858D01*
X001398Y007879D01*
X001445Y007895D01*
X001493Y007908D01*
X001543Y007917D01*
X001592Y007922D01*
X001643Y007923D01*
X001693Y007920D01*
X001742Y007913D01*
X001791Y007902D01*
X001839Y007887D01*
X001885Y007869D01*
X001930Y007847D01*
X001973Y007821D01*
X002014Y007792D01*
X002053Y007760D01*
X002089Y007725D01*
X002121Y007687D01*
X002151Y007647D01*
X002178Y007604D01*
X002201Y007560D01*
X002220Y007514D01*
X002236Y007466D01*
X002248Y007417D01*
X002256Y007368D01*
X002260Y007318D01*
X002260Y007268D01*
X002256Y007218D01*
X002248Y007169D01*
X002236Y007120D01*
X002220Y007072D01*
X002201Y007026D01*
X002178Y006982D01*
X002151Y006939D01*
X002121Y006899D01*
X002089Y006861D01*
X002053Y006826D01*
X002014Y006794D01*
X001973Y006765D01*
X001930Y006739D01*
X001885Y006717D01*
X001839Y006699D01*
X001791Y006684D01*
X001742Y006673D01*
X001693Y006666D01*
X001643Y006663D01*
X001592Y006664D01*
X001543Y006669D01*
X001493Y006678D01*
X001445Y006691D01*
X001398Y006707D01*
X001352Y006728D01*
X001308Y006752D01*
X001266Y006779D01*
X001226Y006809D01*
X001189Y006843D01*
X001155Y006880D01*
X001123Y006919D01*
X001095Y006960D01*
X001070Y007004D01*
X001049Y007049D01*
X001032Y007096D01*
X001018Y007144D01*
X001008Y007193D01*
X001002Y007243D01*
X001000Y007293D01*
M02*
