G75*
%MOIN*%
%OFA0B0*%
%FSLAX24Y24*%
%IPPOS*%
%LPD*%
%AMOC8*
5,1,8,0,0,1.08239X$1,22.5*
%
%ADD10R,0.0500X0.0220*%
%ADD11R,0.0220X0.0500*%
%ADD12C,0.0740*%
%ADD13R,0.0260X0.0800*%
%ADD14R,0.0866X0.0236*%
%ADD15R,0.0472X0.0217*%
%ADD16R,0.0800X0.0800*%
%ADD17C,0.0800*%
%ADD18C,0.0080*%
%ADD19R,0.0500X0.0250*%
%ADD20R,0.0472X0.0315*%
%ADD21R,0.0748X0.0630*%
%ADD22R,0.0300X0.0600*%
%ADD23R,0.0276X0.0669*%
%ADD24R,0.0315X0.0472*%
%ADD25R,0.0740X0.0740*%
%ADD26OC8,0.0740*%
%ADD27C,0.0160*%
%ADD28C,0.0376*%
%ADD29C,0.0240*%
%ADD30C,0.0200*%
%ADD31C,0.0337*%
%ADD32R,0.0376X0.0376*%
%ADD33R,0.0280X0.0280*%
%ADD34C,0.0320*%
%ADD35C,0.0500*%
%ADD36C,0.0400*%
%ADD37R,0.0337X0.0337*%
%ADD38C,0.0120*%
%ADD39C,0.0320*%
%ADD40C,0.0100*%
%ADD41C,0.0280*%
%ADD42OC8,0.0270*%
D10*
X006990Y009791D03*
X006990Y010106D03*
X006990Y010421D03*
X006990Y010736D03*
X006990Y011051D03*
X006990Y011366D03*
X006990Y011681D03*
X006990Y011996D03*
X010370Y011996D03*
X010370Y011681D03*
X010370Y011366D03*
X010370Y011051D03*
X010370Y010736D03*
X010370Y010421D03*
X010370Y010106D03*
X010370Y009791D03*
D11*
X009782Y009203D03*
X009467Y009203D03*
X009152Y009203D03*
X008837Y009203D03*
X008523Y009203D03*
X008208Y009203D03*
X007893Y009203D03*
X007578Y009203D03*
X007578Y012583D03*
X007893Y012583D03*
X008208Y012583D03*
X008523Y012583D03*
X008837Y012583D03*
X009152Y012583D03*
X009467Y012583D03*
X009782Y012583D03*
D12*
X009580Y013943D03*
X008580Y014043D03*
X007580Y013943D03*
X006580Y014043D03*
X004680Y013393D03*
X004680Y012393D03*
X004680Y011393D03*
X004680Y010393D03*
X004680Y009393D03*
X004680Y008393D03*
X010580Y014043D03*
X011580Y013943D03*
X012580Y014043D03*
X014730Y012893D03*
X014630Y011893D03*
X014730Y010893D03*
X014630Y009893D03*
X014730Y008893D03*
X014630Y007893D03*
X014730Y006893D03*
D13*
X011680Y007823D03*
X011180Y007823D03*
X010680Y007823D03*
X010180Y007823D03*
X009680Y007823D03*
X009180Y007823D03*
X008680Y007823D03*
X008180Y007823D03*
X007680Y007823D03*
X007680Y003963D03*
X008180Y003963D03*
X008680Y003963D03*
X009180Y003963D03*
X009680Y003963D03*
X010180Y003963D03*
X010680Y003963D03*
X011180Y003963D03*
X011680Y003963D03*
D14*
X005954Y004143D03*
X005954Y003643D03*
X005954Y004643D03*
X005954Y005143D03*
X003906Y005143D03*
X003906Y004643D03*
X003906Y004143D03*
X003906Y003643D03*
D15*
X002692Y010019D03*
X002692Y010767D03*
X001668Y010767D03*
X001668Y010393D03*
X001668Y010019D03*
D16*
X001680Y012393D03*
X001680Y003893D03*
D17*
X001680Y005271D03*
X001680Y013771D03*
D18*
X004380Y008893D02*
X004980Y008893D01*
X004180Y006543D02*
X004180Y006243D01*
X008080Y013693D02*
X008080Y014343D01*
D19*
X004180Y006593D03*
X004180Y006193D03*
D20*
X005180Y006039D03*
X005180Y006748D03*
X013680Y011439D03*
X013680Y012148D03*
D21*
X012980Y009043D03*
X011680Y009043D03*
X002630Y008993D03*
X001330Y008993D03*
D22*
X011230Y009893D03*
X012730Y009893D03*
X012730Y011893D03*
X011230Y011893D03*
D23*
X006652Y009093D03*
X006180Y009093D03*
X005708Y009093D03*
X011208Y002893D03*
X011680Y002893D03*
X012152Y002893D03*
D24*
X006534Y007493D03*
X005826Y007493D03*
D25*
X013580Y013943D03*
X014630Y005893D03*
X014630Y002643D03*
D26*
X013630Y002643D03*
X013630Y003643D03*
X014630Y003643D03*
X014630Y004643D03*
X013630Y004643D03*
D27*
X000830Y002207D02*
X000636Y002349D01*
X000494Y002544D01*
X000419Y002773D01*
X000410Y002893D01*
X000410Y013893D01*
X000419Y014014D01*
X000494Y014243D01*
X000636Y014438D01*
X000830Y014579D01*
X001060Y014654D01*
X001180Y014663D01*
X005942Y014663D01*
X005688Y014434D01*
X004432Y014434D01*
X004344Y014397D01*
X003844Y013897D01*
X003776Y013830D01*
X003739Y013741D01*
X003739Y010146D01*
X003684Y010091D01*
X003631Y009963D01*
X003631Y009824D01*
X003684Y009696D01*
X003782Y009598D01*
X003911Y009544D01*
X004049Y009544D01*
X004178Y009598D01*
X004199Y009619D01*
X004149Y009499D01*
X004149Y009288D01*
X004213Y009134D01*
X004029Y009134D01*
X004029Y009148D01*
X003935Y009242D01*
X003841Y009242D01*
X003784Y009299D01*
X003652Y009354D01*
X003164Y009354D01*
X003164Y009375D01*
X003070Y009469D01*
X003013Y009469D01*
X003013Y009768D01*
X003089Y009844D01*
X003089Y010194D01*
X002995Y010288D01*
X002876Y010288D01*
X002874Y010291D01*
X002756Y010340D01*
X002628Y010340D01*
X002510Y010291D01*
X002507Y010288D01*
X002389Y010288D01*
X002312Y010211D01*
X002316Y010228D01*
X002301Y010254D01*
X002301Y010567D01*
X002312Y010549D01*
X002345Y010515D01*
X002386Y010491D01*
X002432Y010479D01*
X002692Y010479D01*
X002952Y010479D01*
X002998Y010491D01*
X003039Y010515D01*
X003072Y010549D01*
X003096Y010590D01*
X003108Y010635D01*
X003108Y010767D01*
X002692Y010767D01*
X002692Y010479D01*
X002692Y010767D01*
X002692Y010767D01*
X002692Y010767D01*
X002276Y010767D01*
X002276Y010710D01*
X002249Y010736D01*
X002177Y010838D01*
X002177Y010859D01*
X002125Y010910D01*
X002083Y010970D01*
X002062Y010973D01*
X002047Y010988D01*
X002019Y010988D01*
X002001Y011007D01*
X002001Y011833D01*
X002147Y011833D01*
X002241Y011927D01*
X002241Y012860D01*
X002147Y012954D01*
X001213Y012954D01*
X001119Y012860D01*
X001119Y011927D01*
X001213Y011833D01*
X001359Y011833D01*
X001359Y011030D01*
X001279Y010950D01*
X001279Y011398D01*
X001185Y011492D01*
X000675Y011492D01*
X000581Y011398D01*
X000581Y010889D01*
X000649Y010821D01*
X000649Y010587D01*
X000692Y010484D01*
X000771Y010405D01*
X000783Y010393D01*
X000612Y010222D01*
X000595Y010222D01*
X000501Y010128D01*
X000501Y009658D01*
X000595Y009564D01*
X001065Y009564D01*
X001159Y009658D01*
X001159Y009975D01*
X001271Y010088D01*
X001271Y009844D01*
X001365Y009750D01*
X001971Y009750D01*
X001993Y009773D01*
X002003Y009773D01*
X002065Y009757D01*
X002091Y009773D01*
X002121Y009773D01*
X002167Y009818D01*
X002222Y009851D01*
X002229Y009880D01*
X002251Y009902D01*
X002251Y009966D01*
X002279Y010080D01*
X002295Y010096D01*
X002295Y009844D01*
X002371Y009768D01*
X002371Y009469D01*
X002189Y009469D01*
X002095Y009375D01*
X002095Y008612D01*
X002189Y008518D01*
X003070Y008518D01*
X003164Y008612D01*
X003164Y008633D01*
X003337Y008633D01*
X003425Y008544D01*
X003580Y008544D01*
X003608Y008533D01*
X003752Y008533D01*
X003780Y008544D01*
X003935Y008544D01*
X004029Y008639D01*
X004029Y008653D01*
X004213Y008653D01*
X004149Y008499D01*
X004149Y008288D01*
X004199Y008168D01*
X004178Y008189D01*
X004049Y008242D01*
X003911Y008242D01*
X003782Y008189D01*
X003684Y008091D01*
X003631Y007963D01*
X003631Y007824D01*
X003684Y007696D01*
X003782Y007598D01*
X003911Y007544D01*
X003988Y007544D01*
X004344Y007189D01*
X004432Y007153D01*
X005080Y007153D01*
X005167Y007066D01*
X005120Y007066D01*
X005071Y007114D01*
X004189Y007114D01*
X004089Y007014D01*
X003959Y006885D01*
X003959Y006879D01*
X003863Y006879D01*
X003769Y006785D01*
X003769Y006402D01*
X003778Y006393D01*
X003769Y006385D01*
X003769Y006134D01*
X002132Y006134D01*
X002044Y006097D01*
X001976Y006030D01*
X001778Y005832D01*
X001568Y005832D01*
X001362Y005747D01*
X001205Y005589D01*
X001119Y005383D01*
X001119Y005160D01*
X001205Y004954D01*
X001362Y004796D01*
X001568Y004711D01*
X001792Y004711D01*
X001998Y004796D01*
X002064Y004862D01*
X002521Y004405D01*
X002550Y004393D01*
X002521Y004381D01*
X002442Y004302D01*
X002241Y004101D01*
X002241Y004360D01*
X002147Y004454D01*
X001213Y004454D01*
X001119Y004360D01*
X001119Y003427D01*
X001213Y003333D01*
X002147Y003333D01*
X002241Y003427D01*
X002241Y003686D01*
X002271Y003655D01*
X002374Y003613D01*
X002486Y003613D01*
X002589Y003655D01*
X002796Y003863D01*
X003347Y003863D01*
X003313Y003828D01*
X003313Y003459D01*
X003407Y003364D01*
X004406Y003364D01*
X004444Y003403D01*
X004478Y003403D01*
X004486Y003406D01*
X004840Y003429D01*
X004925Y003344D01*
X005078Y003344D01*
X005031Y003298D01*
X005031Y002789D01*
X005125Y002694D01*
X005635Y002694D01*
X005663Y002723D01*
X006397Y002723D01*
X006425Y002694D01*
X006935Y002694D01*
X007029Y002789D01*
X007029Y003298D01*
X006935Y003392D01*
X006481Y003392D01*
X006491Y003403D01*
X006978Y003403D01*
X007066Y003439D01*
X007134Y003507D01*
X007350Y003723D01*
X007389Y003723D01*
X007389Y003497D01*
X007483Y003403D01*
X007877Y003403D01*
X007930Y003456D01*
X007983Y003403D01*
X008377Y003403D01*
X008430Y003456D01*
X008483Y003403D01*
X008877Y003403D01*
X008930Y003456D01*
X008983Y003403D01*
X009377Y003403D01*
X009430Y003456D01*
X009483Y003403D01*
X009877Y003403D01*
X009930Y003456D01*
X009983Y003403D01*
X010377Y003403D01*
X010430Y003456D01*
X010483Y003403D01*
X010877Y003403D01*
X010930Y003456D01*
X010967Y003419D01*
X010967Y003352D01*
X010909Y003295D01*
X010909Y002492D01*
X011003Y002398D01*
X011412Y002398D01*
X011444Y002430D01*
X011476Y002398D01*
X011884Y002398D01*
X011916Y002430D01*
X011948Y002398D01*
X012357Y002398D01*
X012451Y002492D01*
X012451Y002653D01*
X012478Y002653D01*
X012566Y002689D01*
X012816Y002939D01*
X012884Y003007D01*
X012921Y003095D01*
X012921Y003941D01*
X012884Y004030D01*
X012134Y004780D01*
X012066Y004847D01*
X011978Y004884D01*
X010882Y004884D01*
X010794Y004847D01*
X010544Y004597D01*
X010476Y004530D01*
X010467Y004507D01*
X010430Y004471D01*
X010377Y004524D01*
X009983Y004524D01*
X009930Y004471D01*
X009877Y004524D01*
X009483Y004524D01*
X009430Y004471D01*
X009377Y004524D01*
X008983Y004524D01*
X008930Y004471D01*
X008877Y004524D01*
X008483Y004524D01*
X008430Y004471D01*
X008393Y004507D01*
X008384Y004530D01*
X008134Y004780D01*
X008066Y004847D01*
X007978Y004884D01*
X007030Y004884D01*
X006634Y005280D01*
X006566Y005347D01*
X006501Y005374D01*
X006469Y005407D01*
X006485Y005423D01*
X006531Y005533D01*
X006531Y005564D01*
X006554Y005583D01*
X006567Y005583D01*
X006621Y005636D01*
X006680Y005683D01*
X006681Y005697D01*
X006691Y005706D01*
X006691Y005782D01*
X006699Y005857D01*
X006691Y005867D01*
X006691Y005956D01*
X007417Y006683D01*
X008451Y006683D01*
X008384Y006616D01*
X008384Y006434D01*
X008357Y006434D01*
X008302Y006489D01*
X008058Y006489D01*
X007884Y006316D01*
X007884Y006189D01*
X007658Y006189D01*
X007484Y006016D01*
X007484Y005771D01*
X007658Y005598D01*
X007902Y005598D01*
X007957Y005653D01*
X014099Y005653D01*
X014099Y005457D01*
X014193Y005363D01*
X015067Y005363D01*
X015119Y005415D01*
X015119Y005281D01*
X014931Y005093D01*
X014850Y005174D01*
X014410Y005174D01*
X014130Y004894D01*
X013850Y005174D01*
X013410Y005174D01*
X013099Y004863D01*
X013099Y004423D01*
X013379Y004143D01*
X013099Y003863D01*
X013099Y003423D01*
X013366Y003157D01*
X013080Y002871D01*
X013080Y002663D01*
X013610Y002663D01*
X013610Y002623D01*
X013080Y002623D01*
X013080Y002415D01*
X013372Y002123D01*
X001180Y002123D01*
X001060Y002133D01*
X000830Y002207D01*
X000826Y002210D02*
X013285Y002210D01*
X013127Y002369D02*
X000621Y002369D01*
X000506Y002527D02*
X010909Y002527D01*
X010909Y002686D02*
X000448Y002686D01*
X000414Y002844D02*
X005031Y002844D01*
X005031Y003003D02*
X000410Y003003D01*
X000410Y003161D02*
X005031Y003161D01*
X005053Y003320D02*
X000410Y003320D01*
X000410Y003478D02*
X001119Y003478D01*
X001119Y003637D02*
X000410Y003637D01*
X000410Y003795D02*
X001119Y003795D01*
X001119Y003954D02*
X000410Y003954D01*
X000410Y004112D02*
X001119Y004112D01*
X001119Y004271D02*
X000410Y004271D01*
X000410Y004429D02*
X001189Y004429D01*
X001482Y004746D02*
X000410Y004746D01*
X000410Y004588D02*
X002339Y004588D01*
X002497Y004429D02*
X002171Y004429D01*
X002241Y004271D02*
X002411Y004271D01*
X002252Y004112D02*
X002241Y004112D01*
X002241Y003637D02*
X002316Y003637D01*
X002241Y003478D02*
X003313Y003478D01*
X003313Y003637D02*
X002544Y003637D01*
X002729Y003795D02*
X003313Y003795D01*
X003906Y003643D02*
X004430Y003643D01*
X005180Y003693D01*
X004930Y004143D02*
X004430Y003643D01*
X004430Y004143D02*
X003906Y004143D01*
X004430Y004143D02*
X005180Y004893D01*
X005341Y004713D02*
X005341Y004643D01*
X005341Y004501D01*
X005353Y004456D01*
X005377Y004415D01*
X005407Y004384D01*
X005011Y004384D01*
X005341Y004713D01*
X005341Y004643D02*
X005954Y004643D01*
X005954Y004643D01*
X006567Y004643D01*
X006567Y004501D01*
X006554Y004456D01*
X006531Y004415D01*
X006497Y004381D01*
X006495Y004380D01*
X006547Y004328D01*
X006547Y003959D01*
X006482Y003893D01*
X006491Y003884D01*
X006830Y003884D01*
X007114Y004167D01*
X007202Y004204D01*
X007389Y004204D01*
X007389Y004403D01*
X006882Y004403D01*
X006794Y004439D01*
X006567Y004666D01*
X006567Y004643D01*
X005954Y004643D01*
X005341Y004643D01*
X005341Y004588D02*
X005215Y004588D01*
X005368Y004429D02*
X005056Y004429D01*
X004930Y004143D02*
X005954Y004143D01*
X005954Y003643D02*
X006930Y003643D01*
X007250Y003963D01*
X007680Y003963D01*
X007389Y004271D02*
X006547Y004271D01*
X006539Y004429D02*
X006818Y004429D01*
X006645Y004588D02*
X006567Y004588D01*
X006930Y004643D02*
X006430Y005143D01*
X005954Y005143D01*
X005976Y005422D02*
X005454Y005422D01*
X005401Y005369D01*
X005401Y005721D01*
X005483Y005721D01*
X005577Y005815D01*
X005577Y006263D01*
X005483Y006357D01*
X004877Y006357D01*
X004783Y006263D01*
X004783Y005815D01*
X004877Y005721D01*
X004959Y005721D01*
X004959Y005013D01*
X004500Y004554D01*
X004500Y004828D01*
X004435Y004893D01*
X004500Y004959D01*
X004500Y005328D01*
X004406Y005422D01*
X003407Y005422D01*
X003313Y005328D01*
X003313Y004959D01*
X003347Y004924D01*
X002796Y004924D01*
X002418Y005302D01*
X002339Y005381D01*
X002236Y005424D01*
X002224Y005424D01*
X002173Y005546D01*
X002280Y005653D01*
X003928Y005653D01*
X004016Y005689D01*
X004235Y005908D01*
X004497Y005908D01*
X004591Y006002D01*
X004591Y006385D01*
X004582Y006393D01*
X004591Y006402D01*
X004591Y006673D01*
X004783Y006673D01*
X004783Y006524D01*
X004877Y006429D01*
X005483Y006429D01*
X005577Y006524D01*
X005577Y006675D01*
X005632Y006653D01*
X006228Y006653D01*
X006251Y006662D01*
X005933Y006344D01*
X005870Y006344D01*
X005760Y006298D01*
X005675Y006214D01*
X005629Y006103D01*
X005629Y005983D01*
X005675Y005873D01*
X005760Y005788D01*
X005870Y005743D01*
X005966Y005743D01*
X005929Y005653D01*
X005929Y005533D01*
X005975Y005423D01*
X005976Y005422D01*
X005929Y005539D02*
X005401Y005539D01*
X005401Y005697D02*
X005948Y005697D01*
X005692Y005856D02*
X005577Y005856D01*
X005577Y006014D02*
X005629Y006014D01*
X005658Y006173D02*
X005577Y006173D01*
X005509Y006331D02*
X005840Y006331D01*
X006079Y006490D02*
X005543Y006490D01*
X005577Y006648D02*
X006237Y006648D01*
X006180Y006893D02*
X005680Y006893D01*
X005180Y007393D01*
X004480Y007393D01*
X003980Y007893D01*
X003659Y007758D02*
X002368Y007758D01*
X002359Y007780D02*
X002117Y008022D01*
X001801Y008153D01*
X001459Y008153D01*
X001143Y008022D01*
X000901Y007780D01*
X000770Y007464D01*
X000770Y007122D01*
X000901Y006806D01*
X001143Y006564D01*
X001459Y006433D01*
X001801Y006433D01*
X002117Y006564D01*
X002359Y006806D01*
X002490Y007122D01*
X002490Y007464D01*
X002359Y007780D01*
X002223Y007916D02*
X003631Y007916D01*
X003678Y008075D02*
X001990Y008075D01*
X001774Y008511D02*
X001728Y008498D01*
X001408Y008498D01*
X001408Y008916D01*
X001408Y009071D01*
X001253Y009071D01*
X001253Y009488D01*
X000933Y009488D01*
X000887Y009476D01*
X000846Y009452D01*
X000812Y009419D01*
X000789Y009378D01*
X000776Y009332D01*
X000776Y009071D01*
X001253Y009071D01*
X001253Y008916D01*
X000776Y008916D01*
X000776Y008655D01*
X000789Y008609D01*
X000812Y008568D01*
X000846Y008534D01*
X000887Y008511D01*
X000933Y008498D01*
X001253Y008498D01*
X001253Y008916D01*
X001408Y008916D01*
X001884Y008916D01*
X001884Y008655D01*
X001872Y008609D01*
X001848Y008568D01*
X001815Y008534D01*
X001774Y008511D01*
X001831Y008550D02*
X002156Y008550D01*
X002095Y008709D02*
X001884Y008709D01*
X001884Y008867D02*
X002095Y008867D01*
X002095Y009026D02*
X001408Y009026D01*
X001408Y009071D02*
X001884Y009071D01*
X001884Y009332D01*
X001872Y009378D01*
X001848Y009419D01*
X001815Y009452D01*
X001774Y009476D01*
X001728Y009488D01*
X001408Y009488D01*
X001408Y009071D01*
X001408Y009184D02*
X001253Y009184D01*
X001253Y009026D02*
X000410Y009026D01*
X000410Y009184D02*
X000776Y009184D01*
X000779Y009343D02*
X000410Y009343D01*
X000410Y009501D02*
X002371Y009501D01*
X002371Y009660D02*
X001159Y009660D01*
X001159Y009818D02*
X001297Y009818D01*
X001271Y009977D02*
X001160Y009977D01*
X000684Y010294D02*
X000410Y010294D01*
X000410Y010452D02*
X000724Y010452D01*
X000649Y010611D02*
X000410Y010611D01*
X000410Y010769D02*
X000649Y010769D01*
X000581Y010928D02*
X000410Y010928D01*
X000410Y011086D02*
X000581Y011086D01*
X000581Y011245D02*
X000410Y011245D01*
X000410Y011403D02*
X000587Y011403D01*
X000410Y011562D02*
X001359Y011562D01*
X001359Y011720D02*
X000410Y011720D01*
X000410Y011879D02*
X001167Y011879D01*
X001119Y012037D02*
X000410Y012037D01*
X000410Y012196D02*
X001119Y012196D01*
X001119Y012354D02*
X000410Y012354D01*
X000410Y012513D02*
X001119Y012513D01*
X001119Y012671D02*
X000410Y012671D01*
X000410Y012830D02*
X001119Y012830D01*
X001362Y013296D02*
X001568Y013211D01*
X001792Y013211D01*
X001998Y013296D01*
X002155Y013454D01*
X002241Y013660D01*
X002241Y013883D01*
X002155Y014089D01*
X001998Y014247D01*
X001792Y014332D01*
X001568Y014332D01*
X001362Y014247D01*
X001205Y014089D01*
X001119Y013883D01*
X001119Y013660D01*
X001205Y013454D01*
X001362Y013296D01*
X001353Y013305D02*
X000410Y013305D01*
X000410Y013147D02*
X003739Y013147D01*
X003739Y013305D02*
X002007Y013305D01*
X002160Y013464D02*
X003739Y013464D01*
X003739Y013622D02*
X002225Y013622D01*
X002241Y013781D02*
X003756Y013781D01*
X003886Y013939D02*
X002217Y013939D01*
X002146Y014098D02*
X004044Y014098D01*
X004203Y014256D02*
X001974Y014256D01*
X001386Y014256D02*
X000504Y014256D01*
X000447Y014098D02*
X001214Y014098D01*
X001143Y013939D02*
X000414Y013939D01*
X000410Y013781D02*
X001119Y013781D01*
X001135Y013622D02*
X000410Y013622D01*
X000410Y013464D02*
X001200Y013464D01*
X000410Y012988D02*
X003739Y012988D01*
X003739Y012830D02*
X002241Y012830D01*
X002241Y012671D02*
X003739Y012671D01*
X003739Y012513D02*
X002241Y012513D01*
X002241Y012354D02*
X003739Y012354D01*
X003739Y012196D02*
X002241Y012196D01*
X002241Y012037D02*
X003739Y012037D01*
X003739Y011879D02*
X002193Y011879D01*
X002001Y011720D02*
X003739Y011720D01*
X003739Y011562D02*
X002001Y011562D01*
X002001Y011403D02*
X003739Y011403D01*
X003739Y011245D02*
X002001Y011245D01*
X002001Y011086D02*
X003739Y011086D01*
X003739Y010928D02*
X003100Y010928D01*
X003096Y010945D02*
X003072Y010986D01*
X003039Y011020D01*
X002998Y011043D01*
X002952Y011056D01*
X002692Y011056D01*
X002692Y010767D01*
X002692Y010767D01*
X003108Y010767D01*
X003108Y010899D01*
X003096Y010945D01*
X003108Y010769D02*
X003739Y010769D01*
X003739Y010611D02*
X003101Y010611D01*
X002867Y010294D02*
X003739Y010294D01*
X003739Y010452D02*
X002301Y010452D01*
X002301Y010294D02*
X002517Y010294D01*
X002692Y010611D02*
X002692Y010611D01*
X002692Y010767D02*
X002276Y010767D01*
X002276Y010899D01*
X002288Y010945D01*
X002312Y010986D01*
X002345Y011020D01*
X002386Y011043D01*
X002432Y011056D01*
X002692Y011056D01*
X002692Y010767D01*
X002692Y010767D01*
X002692Y010769D02*
X002692Y010769D01*
X002692Y010928D02*
X002692Y010928D01*
X002283Y010928D02*
X002113Y010928D01*
X002226Y010769D02*
X002276Y010769D01*
X002253Y009977D02*
X002295Y009977D01*
X002321Y009818D02*
X002167Y009818D01*
X002095Y009343D02*
X001882Y009343D01*
X001884Y009184D02*
X002095Y009184D01*
X001408Y009343D02*
X001253Y009343D01*
X001253Y008867D02*
X001408Y008867D01*
X001408Y008709D02*
X001253Y008709D01*
X001253Y008550D02*
X001408Y008550D01*
X001270Y008075D02*
X000410Y008075D01*
X000410Y008233D02*
X003889Y008233D01*
X004071Y008233D02*
X004172Y008233D01*
X004149Y008392D02*
X000410Y008392D01*
X000410Y008550D02*
X000830Y008550D01*
X000776Y008709D02*
X000410Y008709D01*
X000410Y008867D02*
X000776Y008867D01*
X000501Y009660D02*
X000410Y009660D01*
X000410Y009818D02*
X000501Y009818D01*
X000501Y009977D02*
X000410Y009977D01*
X000410Y010135D02*
X000508Y010135D01*
X001279Y011086D02*
X001359Y011086D01*
X001359Y011245D02*
X001279Y011245D01*
X001273Y011403D02*
X001359Y011403D01*
X003089Y010135D02*
X003729Y010135D01*
X003637Y009977D02*
X003089Y009977D01*
X003063Y009818D02*
X003634Y009818D01*
X003720Y009660D02*
X003013Y009660D01*
X003013Y009501D02*
X004150Y009501D01*
X004149Y009343D02*
X003679Y009343D01*
X003992Y009184D02*
X004192Y009184D01*
X004380Y008893D02*
X003680Y008893D01*
X003941Y008550D02*
X004171Y008550D01*
X004680Y008393D02*
X005180Y008393D01*
X005826Y007748D01*
X005826Y007493D01*
X006144Y007441D02*
X006216Y007441D01*
X006216Y007599D02*
X006144Y007599D01*
X006144Y007758D02*
X006216Y007758D01*
X006216Y007796D02*
X006216Y007270D01*
X006144Y007198D01*
X006144Y007796D01*
X006050Y007890D01*
X006023Y007890D01*
X005962Y007952D01*
X005384Y008530D01*
X005316Y008597D01*
X005228Y008634D01*
X005155Y008634D01*
X005147Y008653D01*
X005228Y008653D01*
X005316Y008689D01*
X005384Y008757D01*
X005409Y008782D01*
X005409Y008692D01*
X005503Y008598D01*
X005535Y008598D01*
X005776Y008357D01*
X005844Y008289D01*
X005932Y008253D01*
X006828Y008253D01*
X006831Y008254D01*
X006831Y008224D01*
X006884Y008096D01*
X006982Y007998D01*
X007111Y007944D01*
X007249Y007944D01*
X007370Y007994D01*
X007370Y007823D01*
X007370Y007404D01*
X006993Y007404D01*
X006853Y007264D01*
X006853Y007796D01*
X006758Y007890D01*
X006310Y007890D01*
X006216Y007796D01*
X005997Y007916D02*
X007370Y007916D01*
X007370Y007823D02*
X007680Y007823D01*
X007370Y007823D01*
X007370Y007758D02*
X006853Y007758D01*
X006853Y007599D02*
X007370Y007599D01*
X007350Y007493D02*
X007080Y007493D01*
X006853Y007441D02*
X007370Y007441D01*
X007350Y007493D02*
X007680Y007823D01*
X007680Y007823D01*
X008180Y007823D02*
X008180Y008393D01*
X008480Y008643D01*
X008680Y008343D02*
X009130Y008893D01*
X009130Y009226D01*
X009152Y009203D01*
X009467Y009203D02*
X009480Y009191D01*
X009480Y008793D01*
X009680Y008593D01*
X009680Y007823D01*
X010180Y007823D02*
X010180Y009193D01*
X010180Y009601D01*
X010370Y009791D01*
X010440Y009520D02*
X010687Y009520D01*
X010781Y009614D01*
X010781Y009914D01*
X010788Y009926D01*
X010800Y009972D01*
X010800Y010106D01*
X010800Y010240D01*
X010788Y010285D01*
X010781Y010298D01*
X010781Y010544D01*
X010788Y010556D01*
X010800Y010602D01*
X010800Y010736D01*
X010800Y010810D01*
X010885Y010810D01*
X010974Y010847D01*
X011316Y011189D01*
X011384Y011257D01*
X011421Y011345D01*
X011421Y011433D01*
X011447Y011433D01*
X011541Y011527D01*
X011541Y012243D01*
X011837Y012243D01*
X011931Y012337D01*
X011931Y012750D01*
X011928Y012753D01*
X012528Y012753D01*
X012616Y012789D01*
X012684Y012857D01*
X013080Y013253D01*
X013178Y013253D01*
X013266Y013289D01*
X013390Y013413D01*
X013851Y013413D01*
X013843Y013404D01*
X013719Y013281D01*
X013719Y012485D01*
X013700Y012466D01*
X013377Y012466D01*
X013300Y012388D01*
X012936Y012388D01*
X012854Y012354D01*
X012513Y012354D01*
X012419Y012260D01*
X012419Y012147D01*
X012378Y012189D01*
X012249Y012242D01*
X012111Y012242D01*
X011982Y012189D01*
X011884Y012091D01*
X011831Y011963D01*
X011831Y011824D01*
X011884Y011696D01*
X011982Y011598D01*
X012111Y011544D01*
X012249Y011544D01*
X012378Y011598D01*
X012419Y011639D01*
X012419Y011527D01*
X012513Y011433D01*
X012947Y011433D01*
X013041Y011527D01*
X013041Y011864D01*
X013084Y011907D01*
X013300Y011907D01*
X013377Y011829D01*
X013983Y011829D01*
X014077Y011924D01*
X014077Y012247D01*
X014141Y012310D01*
X014141Y013106D01*
X014617Y013583D01*
X014793Y013583D01*
X015119Y013256D01*
X015119Y013255D01*
X015031Y013343D01*
X014836Y013424D01*
X014624Y013424D01*
X014429Y013343D01*
X014280Y013194D01*
X014199Y012999D01*
X014199Y012788D01*
X014280Y012593D01*
X014429Y012443D01*
X014500Y012414D01*
X014329Y012343D01*
X014180Y012194D01*
X014099Y011999D01*
X014099Y011788D01*
X014124Y011728D01*
X014076Y011680D01*
X014060Y011707D01*
X014027Y011740D01*
X013986Y011764D01*
X013940Y011776D01*
X013680Y011776D01*
X013420Y011776D01*
X013374Y011764D01*
X013333Y011740D01*
X013300Y011707D01*
X013276Y011666D01*
X013264Y011620D01*
X013264Y011439D01*
X013680Y011439D01*
X013680Y011439D01*
X013680Y011776D01*
X013680Y011439D01*
X013680Y011439D01*
X013264Y011439D01*
X013264Y011334D01*
X012232Y011334D01*
X012144Y011297D01*
X012076Y011230D01*
X011476Y010630D01*
X011465Y010604D01*
X011425Y010564D01*
X011379Y010453D01*
X011379Y010354D01*
X011013Y010354D01*
X010919Y010260D01*
X010919Y009527D01*
X011013Y009433D01*
X011141Y009433D01*
X011139Y009428D01*
X011126Y009382D01*
X011126Y009121D01*
X011603Y009121D01*
X011603Y009538D01*
X011541Y009538D01*
X011541Y010126D01*
X011620Y010093D01*
X011740Y010093D01*
X011850Y010138D01*
X011935Y010223D01*
X011981Y010333D01*
X011981Y010453D01*
X011981Y010453D01*
X012260Y010733D01*
X012231Y010663D01*
X012231Y010524D01*
X012284Y010396D01*
X012339Y010341D01*
X012339Y009995D01*
X012376Y009907D01*
X012419Y009864D01*
X012419Y009527D01*
X012483Y009463D01*
X012445Y009425D01*
X012445Y008662D01*
X012539Y008568D01*
X013250Y008568D01*
X013239Y008541D01*
X013239Y007793D01*
X012780Y007334D01*
X011948Y007334D01*
X011971Y007357D01*
X011971Y008290D01*
X011877Y008384D01*
X011483Y008384D01*
X011430Y008331D01*
X011377Y008384D01*
X010991Y008384D01*
X011009Y008428D01*
X011009Y008559D01*
X010959Y008680D01*
X010866Y008772D01*
X010745Y008822D01*
X010615Y008822D01*
X010494Y008772D01*
X010421Y008699D01*
X010421Y008983D01*
X010515Y008983D01*
X010560Y008938D01*
X010670Y008893D01*
X010790Y008893D01*
X010900Y008938D01*
X010985Y009023D01*
X011031Y009133D01*
X011031Y009253D01*
X010985Y009364D01*
X010900Y009448D01*
X010790Y009494D01*
X010670Y009494D01*
X010560Y009448D01*
X010515Y009404D01*
X010421Y009404D01*
X010421Y009501D01*
X010440Y009520D01*
X010421Y009501D02*
X010945Y009501D01*
X010919Y009660D02*
X010781Y009660D01*
X010781Y009818D02*
X010919Y009818D01*
X010919Y009977D02*
X010800Y009977D01*
X010800Y010106D02*
X010370Y010106D01*
X010370Y010106D01*
X009940Y010106D01*
X009940Y010180D01*
X009305Y010180D01*
X009216Y010217D01*
X008935Y010498D01*
X008858Y010498D01*
X008684Y010671D01*
X008684Y010853D01*
X008532Y010853D01*
X008444Y010889D01*
X008376Y010957D01*
X008208Y011125D01*
X007420Y011125D01*
X007420Y011051D01*
X006990Y011051D01*
X006990Y011051D01*
X007423Y011051D01*
X007480Y010993D01*
X007480Y010593D01*
X007280Y010393D01*
X007018Y010393D01*
X006990Y010421D01*
X007420Y010421D01*
X007420Y010555D01*
X007408Y010600D01*
X007401Y010613D01*
X007401Y010859D01*
X007408Y010871D01*
X007420Y010917D01*
X007420Y011051D01*
X006990Y011051D01*
X006990Y011366D02*
X006652Y011366D01*
X006480Y011193D01*
X006480Y010793D01*
X006580Y010693D01*
X006947Y010693D01*
X006990Y010736D01*
X006990Y010421D02*
X006990Y010421D01*
X007420Y010421D01*
X007420Y010334D01*
X007428Y010334D01*
X007516Y010297D01*
X007584Y010230D01*
X007684Y010130D01*
X007721Y010041D01*
X007721Y009645D01*
X007708Y009614D01*
X007967Y009614D01*
X007967Y009681D01*
X007925Y009723D01*
X007879Y009833D01*
X007879Y009953D01*
X007925Y010064D01*
X008010Y010148D01*
X008120Y010194D01*
X008229Y010194D01*
X008229Y010203D01*
X008275Y010314D01*
X008360Y010398D01*
X008470Y010444D01*
X008590Y010444D01*
X008700Y010398D01*
X008785Y010314D01*
X008831Y010203D01*
X008831Y010178D01*
X008870Y010194D01*
X008990Y010194D01*
X009100Y010148D01*
X009185Y010064D01*
X009231Y009953D01*
X009231Y009833D01*
X009185Y009723D01*
X009100Y009638D01*
X009078Y009629D01*
X009078Y009614D01*
X009491Y009614D01*
X009484Y009621D01*
X009484Y009866D01*
X009658Y010039D01*
X009902Y010039D01*
X009940Y010001D01*
X009940Y010106D01*
X010370Y010106D01*
X010800Y010106D01*
X010800Y010135D02*
X010919Y010135D01*
X010953Y010294D02*
X010783Y010294D01*
X010880Y010293D02*
X010680Y010093D01*
X010383Y010093D01*
X010370Y010106D01*
X010370Y010106D01*
X010193Y010106D01*
X010180Y010093D01*
X010280Y010093D01*
X009940Y010135D02*
X009113Y010135D01*
X009139Y010294D02*
X008793Y010294D01*
X008880Y010393D02*
X008580Y010693D01*
X008684Y010769D02*
X007401Y010769D01*
X007402Y010611D02*
X008744Y010611D01*
X008880Y010393D02*
X008980Y010393D01*
X009280Y010093D01*
X009221Y009977D02*
X009595Y009977D01*
X009484Y009818D02*
X009224Y009818D01*
X009122Y009660D02*
X009484Y009660D01*
X009782Y009691D02*
X009780Y009743D01*
X009782Y009691D02*
X009782Y009203D01*
X010421Y008867D02*
X011126Y008867D01*
X011126Y008966D02*
X011126Y008705D01*
X011139Y008659D01*
X011162Y008618D01*
X011196Y008584D01*
X011237Y008561D01*
X011283Y008548D01*
X011603Y008548D01*
X011603Y008966D01*
X011126Y008966D01*
X010986Y009026D02*
X011603Y009026D01*
X011603Y008966D02*
X011603Y009121D01*
X011758Y009121D01*
X011758Y009538D01*
X012078Y009538D01*
X012124Y009526D01*
X012165Y009502D01*
X012198Y009469D01*
X012222Y009428D01*
X012234Y009382D01*
X012234Y009121D01*
X011758Y009121D01*
X011758Y008966D01*
X012234Y008966D01*
X012234Y008705D01*
X012222Y008659D01*
X012198Y008618D01*
X012165Y008584D01*
X012124Y008561D01*
X012078Y008548D01*
X011758Y008548D01*
X011758Y008966D01*
X011603Y008966D01*
X011603Y008867D02*
X011758Y008867D01*
X011758Y008709D02*
X011603Y008709D01*
X011603Y008550D02*
X011758Y008550D01*
X012085Y008550D02*
X013243Y008550D01*
X013239Y008392D02*
X010994Y008392D01*
X011009Y008550D02*
X011275Y008550D01*
X011126Y008709D02*
X010930Y008709D01*
X010680Y008493D02*
X010680Y007823D01*
X009880Y007093D02*
X012880Y007093D01*
X013480Y007693D01*
X013480Y008493D01*
X014630Y009643D01*
X014630Y009893D01*
X013880Y009993D02*
X014730Y010843D01*
X014730Y010893D01*
X014280Y011393D02*
X014280Y011543D01*
X014630Y011893D01*
X014099Y011879D02*
X014032Y011879D01*
X014047Y011720D02*
X014117Y011720D01*
X014115Y012037D02*
X014077Y012037D01*
X014077Y012196D02*
X014182Y012196D01*
X014141Y012354D02*
X014356Y012354D01*
X014360Y012513D02*
X014141Y012513D01*
X014141Y012671D02*
X014248Y012671D01*
X014199Y012830D02*
X014141Y012830D01*
X014141Y012988D02*
X014199Y012988D01*
X014182Y013147D02*
X014261Y013147D01*
X014340Y013305D02*
X014391Y013305D01*
X014499Y013464D02*
X014911Y013464D01*
X015069Y013305D02*
X015070Y013305D01*
X013744Y013305D02*
X013282Y013305D01*
X013130Y013493D02*
X013580Y013943D01*
X013130Y013493D02*
X012980Y013493D01*
X012480Y012993D01*
X011380Y012993D01*
X010830Y012393D01*
X010830Y011793D01*
X010667Y011681D01*
X010370Y011681D01*
X010370Y011996D02*
X010370Y012583D01*
X011180Y013393D01*
X012280Y013393D01*
X012580Y013693D01*
X012580Y014043D01*
X012974Y013147D02*
X013719Y013147D01*
X013719Y012988D02*
X012815Y012988D01*
X012684Y012857D02*
X012684Y012857D01*
X012657Y012830D02*
X013719Y012830D01*
X013719Y012671D02*
X011931Y012671D01*
X011931Y012513D02*
X013719Y012513D01*
X013680Y012148D02*
X012984Y012148D01*
X012730Y011893D01*
X012180Y011893D01*
X011831Y011879D02*
X011541Y011879D01*
X011541Y012037D02*
X011862Y012037D01*
X011999Y012196D02*
X011541Y012196D01*
X011230Y012343D02*
X011230Y011893D01*
X011180Y011843D01*
X011180Y011393D01*
X010837Y011051D01*
X010370Y011051D01*
X010327Y011093D01*
X008580Y011093D01*
X008308Y011366D01*
X006990Y011366D01*
X006990Y011681D02*
X007467Y011681D01*
X007680Y011893D01*
X007780Y011893D01*
X007880Y011793D01*
X008523Y012151D02*
X008680Y011993D01*
X009680Y011993D01*
X009782Y012583D02*
X010080Y012881D01*
X010080Y013093D01*
X010280Y013293D01*
X010680Y013293D01*
X011330Y013943D01*
X011580Y013943D01*
X010580Y014043D02*
X010430Y013843D01*
X009480Y012893D01*
X009480Y012596D01*
X009467Y012583D01*
X009180Y012611D02*
X009152Y012583D01*
X009180Y012611D02*
X009180Y013093D01*
X009580Y013493D01*
X009580Y013943D01*
X008880Y013393D02*
X008880Y012626D01*
X008837Y012583D01*
X008523Y012583D02*
X008523Y013351D01*
X008080Y013693D01*
X008080Y013293D02*
X008180Y013193D01*
X008180Y012611D01*
X008208Y012583D01*
X008523Y012583D02*
X008523Y012151D01*
X008880Y011693D02*
X009208Y011366D01*
X010370Y011366D01*
X011055Y010928D02*
X011774Y010928D01*
X011933Y011086D02*
X011213Y011086D01*
X011372Y011245D02*
X012091Y011245D01*
X012280Y011093D02*
X013980Y011093D01*
X014280Y011393D01*
X013680Y011562D02*
X013680Y011562D01*
X013680Y011720D02*
X013680Y011720D01*
X013313Y011720D02*
X013041Y011720D01*
X013041Y011562D02*
X013264Y011562D01*
X013264Y011403D02*
X011421Y011403D01*
X011541Y011562D02*
X012069Y011562D01*
X012291Y011562D02*
X012419Y011562D01*
X012280Y011093D02*
X011680Y010493D01*
X011680Y010393D01*
X011843Y010135D02*
X012339Y010135D01*
X012347Y009977D02*
X011541Y009977D01*
X011541Y009818D02*
X012419Y009818D01*
X012419Y009660D02*
X011541Y009660D01*
X011603Y009501D02*
X011758Y009501D01*
X011758Y009343D02*
X011603Y009343D01*
X011603Y009184D02*
X011758Y009184D01*
X011758Y009026D02*
X012445Y009026D01*
X012445Y009184D02*
X012234Y009184D01*
X012234Y009343D02*
X012445Y009343D01*
X012445Y009501D02*
X012166Y009501D01*
X012680Y009893D02*
X012730Y009893D01*
X012580Y010043D01*
X012580Y010593D01*
X012261Y010452D02*
X011981Y010452D01*
X011964Y010294D02*
X012339Y010294D01*
X012231Y010611D02*
X012138Y010611D01*
X011616Y010769D02*
X010800Y010769D01*
X010800Y010736D02*
X010370Y010736D01*
X010370Y010736D01*
X009940Y010736D01*
X009940Y010853D01*
X009276Y010853D01*
X009276Y010838D01*
X009452Y010662D01*
X009940Y010662D01*
X009940Y010736D01*
X010370Y010736D01*
X010370Y010736D01*
X010837Y010736D01*
X010930Y010493D01*
X010880Y010293D01*
X010781Y010452D02*
X011379Y010452D01*
X011468Y010611D02*
X010800Y010611D01*
X010800Y010736D02*
X010370Y010736D01*
X010370Y010421D02*
X009352Y010421D01*
X008980Y010793D01*
X008981Y010452D02*
X007420Y010452D01*
X007520Y010294D02*
X008267Y010294D01*
X008523Y010136D02*
X008530Y010143D01*
X008523Y010136D02*
X008523Y009203D01*
X008837Y009203D02*
X008837Y009751D01*
X008930Y009893D01*
X008208Y009721D02*
X008208Y009203D01*
X007893Y009203D02*
X007893Y008706D01*
X007780Y008593D01*
X007578Y008891D02*
X007280Y008593D01*
X007280Y008493D01*
X007180Y008393D01*
X007180Y008293D01*
X006905Y008075D02*
X005839Y008075D01*
X005962Y007952D02*
X005962Y007952D01*
X005680Y008233D02*
X006831Y008233D01*
X006780Y008493D02*
X007080Y008793D01*
X007080Y009293D01*
X007480Y009693D01*
X007480Y009993D01*
X007380Y010093D01*
X007003Y010093D01*
X006990Y010106D01*
X006990Y009791D02*
X006652Y009453D01*
X006652Y009093D01*
X006180Y009093D02*
X006180Y009593D01*
X006180Y009693D01*
X005830Y009993D01*
X005780Y009993D01*
X005280Y009493D01*
X005280Y008993D01*
X005180Y008893D01*
X004980Y008893D01*
X005336Y008709D02*
X005409Y008709D01*
X005363Y008550D02*
X005583Y008550D01*
X005522Y008392D02*
X005741Y008392D01*
X005980Y008493D02*
X006780Y008493D01*
X005980Y008493D02*
X005708Y008766D01*
X005708Y009093D01*
X006180Y009593D02*
X006480Y009893D01*
X006480Y010593D01*
X006580Y010693D01*
X007420Y010928D02*
X008405Y010928D01*
X008247Y011086D02*
X007420Y011086D01*
X007678Y010135D02*
X007997Y010135D01*
X007889Y009977D02*
X007721Y009977D01*
X007721Y009818D02*
X007886Y009818D01*
X007967Y009660D02*
X007721Y009660D01*
X007578Y009203D02*
X007578Y008891D01*
X008208Y009721D02*
X008180Y009893D01*
X009344Y010769D02*
X009940Y010769D01*
X011541Y011720D02*
X011874Y011720D01*
X012361Y012196D02*
X012419Y012196D01*
X012854Y012354D02*
X011931Y012354D01*
X011630Y012543D02*
X011430Y012543D01*
X011230Y012343D01*
X013056Y011879D02*
X013328Y011879D01*
X011126Y009343D02*
X010994Y009343D01*
X011031Y009184D02*
X011126Y009184D01*
X010430Y008709D02*
X010421Y008709D01*
X009280Y008493D02*
X009180Y008393D01*
X009180Y007823D01*
X008680Y007823D02*
X008680Y008343D01*
X009530Y006793D02*
X013480Y006793D01*
X013480Y007293D01*
X013880Y007693D01*
X013880Y008293D01*
X014480Y008893D01*
X014730Y008893D01*
X014630Y007893D02*
X014080Y007343D01*
X014080Y006893D01*
X013680Y006493D01*
X008680Y006493D01*
X008384Y006490D02*
X007224Y006490D01*
X007066Y006331D02*
X007900Y006331D01*
X007641Y006173D02*
X006907Y006173D01*
X006749Y006014D02*
X007484Y006014D01*
X007484Y005856D02*
X006699Y005856D01*
X006682Y005697D02*
X007558Y005697D01*
X007780Y005893D02*
X014630Y005893D01*
X014099Y005539D02*
X006531Y005539D01*
X006495Y005380D02*
X014176Y005380D01*
X014299Y005063D02*
X013961Y005063D01*
X014119Y004905D02*
X014141Y004905D01*
X013299Y005063D02*
X006850Y005063D01*
X006692Y005222D02*
X015061Y005222D01*
X015084Y005380D02*
X015119Y005380D01*
X013880Y006193D02*
X008180Y006193D01*
X008417Y006648D02*
X007383Y006648D01*
X007480Y006493D02*
X007180Y006193D01*
X007180Y005193D01*
X007009Y004905D02*
X013141Y004905D01*
X013099Y004746D02*
X012167Y004746D01*
X012326Y004588D02*
X013099Y004588D01*
X013099Y004429D02*
X012484Y004429D01*
X012643Y004271D02*
X013252Y004271D01*
X013348Y004112D02*
X012801Y004112D01*
X012915Y003954D02*
X013190Y003954D01*
X013099Y003795D02*
X012921Y003795D01*
X012921Y003637D02*
X013099Y003637D01*
X013099Y003478D02*
X012921Y003478D01*
X012921Y003320D02*
X013203Y003320D01*
X013361Y003161D02*
X012921Y003161D01*
X012880Y003003D02*
X013212Y003003D01*
X013080Y002844D02*
X012721Y002844D01*
X012558Y002686D02*
X013080Y002686D01*
X013080Y002527D02*
X012451Y002527D01*
X012430Y002893D02*
X012152Y002893D01*
X012430Y002893D02*
X012680Y003143D01*
X012680Y003893D01*
X011930Y004643D01*
X010930Y004643D01*
X010680Y004393D01*
X010680Y003963D01*
X011180Y003963D02*
X011208Y003936D01*
X011208Y002893D01*
X010909Y002844D02*
X007029Y002844D01*
X007029Y003003D02*
X010909Y003003D01*
X010909Y003161D02*
X007029Y003161D01*
X007007Y003320D02*
X010934Y003320D01*
X011680Y002893D02*
X011680Y003963D01*
X012000Y003643D01*
X012180Y003643D01*
X010693Y004746D02*
X008167Y004746D01*
X008326Y004588D02*
X010534Y004588D01*
X008180Y004393D02*
X008180Y003963D01*
X008180Y004393D02*
X007930Y004643D01*
X006930Y004643D01*
X007059Y004112D02*
X006547Y004112D01*
X006543Y003954D02*
X006900Y003954D01*
X007264Y003637D02*
X007389Y003637D01*
X007408Y003478D02*
X007105Y003478D01*
X005954Y004643D02*
X005954Y004643D01*
X005412Y005380D02*
X005401Y005380D01*
X004959Y005380D02*
X004448Y005380D01*
X004500Y005222D02*
X004959Y005222D01*
X004959Y005063D02*
X004500Y005063D01*
X004446Y004905D02*
X004851Y004905D01*
X004693Y004746D02*
X004500Y004746D01*
X004500Y004588D02*
X004534Y004588D01*
X004959Y005539D02*
X002176Y005539D01*
X002340Y005380D02*
X003365Y005380D01*
X003313Y005222D02*
X002498Y005222D01*
X002657Y005063D02*
X003313Y005063D01*
X004024Y005697D02*
X004959Y005697D01*
X004783Y005856D02*
X004183Y005856D01*
X003880Y005893D02*
X004180Y006193D01*
X003769Y006173D02*
X000410Y006173D01*
X000410Y006014D02*
X001961Y006014D01*
X001802Y005856D02*
X000410Y005856D01*
X000410Y005697D02*
X001313Y005697D01*
X001184Y005539D02*
X000410Y005539D01*
X000410Y005380D02*
X001119Y005380D01*
X001119Y005222D02*
X000410Y005222D01*
X000410Y005063D02*
X001159Y005063D01*
X001253Y004905D02*
X000410Y004905D01*
X001680Y005271D02*
X001680Y005393D01*
X002180Y005893D01*
X003880Y005893D01*
X003769Y006331D02*
X000410Y006331D01*
X000410Y006490D02*
X001323Y006490D01*
X001059Y006648D02*
X000410Y006648D01*
X000410Y006807D02*
X000901Y006807D01*
X000835Y006965D02*
X000410Y006965D01*
X000410Y007124D02*
X000770Y007124D01*
X000770Y007282D02*
X000410Y007282D01*
X000410Y007441D02*
X000770Y007441D01*
X000826Y007599D02*
X000410Y007599D01*
X000410Y007758D02*
X000892Y007758D01*
X001037Y007916D02*
X000410Y007916D01*
X001937Y006490D02*
X003769Y006490D01*
X003769Y006648D02*
X002201Y006648D01*
X002359Y006807D02*
X003791Y006807D01*
X004040Y006965D02*
X002425Y006965D01*
X002490Y007124D02*
X005109Y007124D01*
X004783Y006648D02*
X004591Y006648D01*
X004591Y006490D02*
X004817Y006490D01*
X004851Y006331D02*
X004591Y006331D01*
X004591Y006173D02*
X004783Y006173D01*
X004783Y006014D02*
X004591Y006014D01*
X004251Y007282D02*
X002490Y007282D01*
X002490Y007441D02*
X004092Y007441D01*
X003781Y007599D02*
X002434Y007599D01*
X003103Y008550D02*
X003419Y008550D01*
X004680Y009393D02*
X004680Y009593D01*
X005680Y010593D01*
X005680Y012593D01*
X006130Y013043D01*
X007880Y013043D01*
X007880Y012596D01*
X007893Y012583D01*
X007578Y012583D02*
X007270Y012583D01*
X007180Y012493D01*
X006990Y011996D02*
X006282Y011996D01*
X006180Y011893D01*
X005380Y012693D02*
X005980Y013293D01*
X008080Y013293D01*
X008580Y013693D02*
X008880Y013393D01*
X008580Y013693D02*
X008580Y014043D01*
X008080Y014343D02*
X007680Y014643D01*
X006280Y014643D01*
X005780Y014193D01*
X004480Y014193D01*
X003980Y013693D01*
X003980Y009893D01*
X004680Y010393D02*
X005080Y010393D01*
X005380Y010693D01*
X005380Y012693D01*
X004386Y014415D02*
X000619Y014415D01*
X000822Y014573D02*
X005842Y014573D01*
X012234Y008867D02*
X012445Y008867D01*
X012445Y008709D02*
X012234Y008709D01*
X011971Y008233D02*
X013239Y008233D01*
X013239Y008075D02*
X011971Y008075D01*
X011971Y007916D02*
X013239Y007916D01*
X013204Y007758D02*
X011971Y007758D01*
X011971Y007599D02*
X013046Y007599D01*
X012887Y007441D02*
X011971Y007441D01*
X013880Y006193D02*
X014580Y006893D01*
X014730Y006893D01*
X014630Y007843D02*
X014630Y007893D01*
X006871Y007282D02*
X006853Y007282D01*
X006534Y007248D02*
X006534Y007493D01*
X006534Y007248D02*
X006180Y006893D01*
X006144Y007282D02*
X006216Y007282D01*
X005384Y008530D02*
X005384Y008530D01*
X002180Y004746D02*
X001878Y004746D01*
D28*
X002880Y005393D03*
X002880Y006393D03*
X003980Y007893D03*
X003980Y009893D03*
X003380Y010893D03*
X007180Y012493D03*
X007880Y011793D03*
X009680Y011993D03*
X012180Y011893D03*
X012580Y010593D03*
X013880Y009993D03*
X012880Y007893D03*
X012280Y007593D03*
X012280Y005393D03*
X011680Y005393D03*
X012880Y005393D03*
X009680Y004793D03*
X009080Y004793D03*
X009080Y003093D03*
X009680Y003093D03*
X007180Y005193D03*
X006880Y004193D03*
X007180Y008293D03*
X007780Y008593D03*
D29*
X003380Y010893D02*
X003254Y010767D01*
X002692Y010767D01*
X001680Y010779D02*
X001668Y010767D01*
X001668Y010393D02*
X001180Y010393D01*
X000830Y010043D01*
X000830Y009893D01*
X001180Y010393D02*
X000930Y010643D01*
X000930Y011143D01*
X001680Y005271D02*
X001808Y005143D01*
X002180Y005143D01*
X002680Y004643D01*
X003906Y004643D01*
X003906Y004143D02*
X002680Y004143D01*
X002430Y003893D01*
X012980Y009043D02*
X013280Y009344D01*
X013280Y010543D01*
X013480Y010743D01*
D30*
X010180Y010093D02*
X009280Y010093D01*
D31*
X010680Y008493D03*
X013480Y010743D03*
X007480Y006493D03*
X007080Y007493D03*
X003230Y008393D03*
X003230Y009593D03*
X006180Y011893D03*
D32*
X003680Y008893D03*
X000930Y011143D03*
X005180Y003693D03*
X005380Y003043D03*
X006680Y003043D03*
X012180Y003643D03*
D33*
X005830Y009993D03*
X011630Y012543D03*
D34*
X002692Y010019D02*
X002692Y009056D01*
X001680Y010779D02*
X001680Y012393D01*
X005380Y003043D02*
X006680Y003043D01*
D35*
X002630Y008993D02*
X002692Y009056D01*
D36*
X002630Y008993D02*
X003580Y008993D01*
X003680Y008893D01*
D37*
X000830Y009893D03*
D38*
X001668Y010019D02*
X001694Y009993D01*
X002030Y009993D01*
X002080Y010193D01*
X002080Y010593D01*
X001956Y010767D01*
X001668Y010767D01*
X004280Y006893D02*
X004180Y006793D01*
X004180Y006593D01*
X004280Y006893D02*
X004980Y006893D01*
X005126Y006748D01*
X005180Y006748D01*
X005180Y006039D02*
X005180Y004893D01*
D39*
X009280Y008493D03*
X008480Y008643D03*
D40*
X009180Y007823D02*
X009180Y007393D01*
X008980Y007193D01*
X007080Y007193D01*
X005930Y006043D01*
X006230Y005593D02*
X006480Y005793D01*
X006480Y006043D01*
X007330Y006893D01*
X009080Y006893D01*
X009680Y007493D01*
X009680Y007823D01*
X010180Y009193D02*
X010730Y009193D01*
X013680Y012148D02*
X013930Y012398D01*
X013930Y013193D01*
X014530Y013793D01*
X014880Y013793D01*
X015330Y013343D01*
X015330Y005193D01*
X014780Y004643D01*
X014630Y004643D01*
D41*
X010730Y009193D03*
X011680Y010393D03*
X008930Y009893D03*
X008530Y010143D03*
X008180Y009893D03*
X005930Y006043D03*
X006230Y005593D03*
D42*
X007780Y005893D03*
X008180Y006193D03*
X008680Y006493D03*
X009530Y006793D03*
X009880Y007093D03*
X009780Y009743D03*
X008980Y010793D03*
X008880Y011693D03*
M02*
