G75*
%MOIN*%
%OFA0B0*%
%FSLAX24Y24*%
%IPPOS*%
%LPD*%
%AMOC8*
5,1,8,0,0,1.08239X$1,22.5*
%
%ADD10R,0.0500X0.0220*%
%ADD11R,0.0220X0.0500*%
%ADD12R,0.0260X0.0800*%
%ADD13R,0.0866X0.0236*%
%ADD14R,0.0472X0.0217*%
%ADD15R,0.0472X0.0315*%
%ADD16R,0.0748X0.0630*%
%ADD17R,0.0300X0.0600*%
%ADD18R,0.0276X0.0669*%
%ADD19R,0.0315X0.0472*%
D10*
X006990Y009791D03*
X006990Y010106D03*
X006990Y010421D03*
X006990Y010736D03*
X006990Y011051D03*
X006990Y011366D03*
X006990Y011681D03*
X006990Y011996D03*
X010370Y011996D03*
X010370Y011681D03*
X010370Y011366D03*
X010370Y011051D03*
X010370Y010736D03*
X010370Y010421D03*
X010370Y010106D03*
X010370Y009791D03*
D11*
X009782Y009203D03*
X009467Y009203D03*
X009152Y009203D03*
X008837Y009203D03*
X008523Y009203D03*
X008208Y009203D03*
X007893Y009203D03*
X007578Y009203D03*
X007578Y012583D03*
X007893Y012583D03*
X008208Y012583D03*
X008523Y012583D03*
X008837Y012583D03*
X009152Y012583D03*
X009467Y012583D03*
X009782Y012583D03*
D12*
X009680Y007823D03*
X010180Y007823D03*
X010680Y007823D03*
X011180Y007823D03*
X011680Y007823D03*
X009180Y007823D03*
X008680Y007823D03*
X008180Y007823D03*
X007680Y007823D03*
X007680Y003963D03*
X008180Y003963D03*
X008680Y003963D03*
X009180Y003963D03*
X009680Y003963D03*
X010180Y003963D03*
X010680Y003963D03*
X011180Y003963D03*
X011680Y003963D03*
D13*
X003906Y003643D03*
X003906Y004143D03*
X003906Y004643D03*
X003906Y005143D03*
X005954Y005143D03*
X005954Y004643D03*
X005954Y004143D03*
X005954Y003643D03*
D14*
X002692Y010019D03*
X002692Y010767D03*
X001668Y010767D03*
X001668Y010393D03*
X001668Y010019D03*
D15*
X005180Y006748D03*
X005180Y006039D03*
X013680Y011439D03*
X013680Y012148D03*
D16*
X012980Y009043D03*
X011680Y009043D03*
X002630Y008993D03*
X001330Y008993D03*
D17*
X011230Y009893D03*
X012730Y009893D03*
X012730Y011893D03*
X011230Y011893D03*
D18*
X006652Y009093D03*
X006180Y009093D03*
X005708Y009093D03*
X011208Y002893D03*
X011680Y002893D03*
X012152Y002893D03*
D19*
X006534Y007493D03*
X005826Y007493D03*
M02*
