%
M48
M72
T01C0.0130
T02C0.0140
T03C0.0180
T04C0.0197
T05C0.0236
T06C0.0400
T07C0.0472
T08C0.1260
%
T01
X7780Y5893
X8180Y6193
X8680Y6493
X9530Y6793
X9880Y7093
X9780Y9743
X8980Y10793
X8880Y11693
T02
X8530Y10143
X8180Y9893
X8930Y9893
X10730Y9193
X11680Y10393
X11630Y12543
X5830Y9993
X5930Y6043
X6230Y5593
T03
X9280Y8493
X8480Y8643
T04
X7080Y7493
X7480Y6493
X10680Y8493
X13480Y10743
X6180Y11893
X3230Y9593
X3230Y8393
X830Y9893
T05
X930Y11143
X3380Y10893
X3980Y9893
X3680Y8893
X3980Y7893
X2880Y6393
X2880Y5393
X5180Y3693
X5380Y3043
X6680Y3043
X6880Y4193
X7180Y5193
X9080Y4793
X9680Y4793
X9680Y3093
X9080Y3093
X11680Y5393
X12280Y5393
X12880Y5393
X12180Y3643
X12280Y7593
X12880Y7893
X13880Y9993
X12580Y10593
X12180Y11893
X9680Y11993
X7880Y11793
X7180Y12493
X7780Y8593
X7180Y8293
T06
X4680Y8393
X4680Y9393
X4680Y10393
X4680Y11393
X4680Y12393
X4680Y13393
X6580Y14043
X7580Y13943
X8580Y14043
X9580Y13943
X10580Y14043
X11580Y13943
X12580Y14043
X13580Y13943
X14730Y12893
X14630Y11893
X14730Y10893
X14630Y9893
X14730Y8893
X14630Y7893
X14730Y6893
X14630Y5893
X14630Y4643
X14630Y3643
X13630Y3643
X13630Y4643
X13630Y2643
X14630Y2643
T07
X1680Y3893
X1680Y5271
X1680Y12393
X1680Y13771
T08
X1630Y7293
M30
