G75*
%MOIN*%
%OFA0B0*%
%FSLAX24Y24*%
%IPPOS*%
%LPD*%
%AMOC8*
5,1,8,0,0,1.08239X$1,22.5*
%
%ADD10C,0.1320*%
%ADD11R,0.0560X0.0280*%
%ADD12R,0.0280X0.0560*%
%ADD13C,0.0800*%
%ADD14R,0.0320X0.0860*%
%ADD15R,0.0926X0.0296*%
%ADD16R,0.0532X0.0277*%
%ADD17R,0.0860X0.0860*%
%ADD18C,0.0860*%
%ADD19R,0.0560X0.0310*%
%ADD20R,0.0532X0.0375*%
%ADD21R,0.0808X0.0690*%
%ADD22R,0.0360X0.0660*%
%ADD23R,0.0336X0.0729*%
%ADD24R,0.0375X0.0532*%
%ADD25R,0.0800X0.0800*%
%ADD26OC8,0.0800*%
%ADD27C,0.0436*%
%ADD28C,0.0397*%
%ADD29R,0.0436X0.0436*%
%ADD30R,0.0340X0.0340*%
%ADD31R,0.0397X0.0397*%
%ADD32C,0.0380*%
%ADD33C,0.0340*%
%ADD34OC8,0.0330*%
D10*
X001630Y007293D03*
D11*
X006990Y009791D03*
X006990Y010106D03*
X006990Y010421D03*
X006990Y010736D03*
X006990Y011051D03*
X006990Y011366D03*
X006990Y011681D03*
X006990Y011996D03*
X010370Y011996D03*
X010370Y011681D03*
X010370Y011366D03*
X010370Y011051D03*
X010370Y010736D03*
X010370Y010421D03*
X010370Y010106D03*
X010370Y009791D03*
D12*
X009782Y009203D03*
X009467Y009203D03*
X009152Y009203D03*
X008837Y009203D03*
X008523Y009203D03*
X008208Y009203D03*
X007893Y009203D03*
X007578Y009203D03*
X007578Y012583D03*
X007893Y012583D03*
X008208Y012583D03*
X008523Y012583D03*
X008837Y012583D03*
X009152Y012583D03*
X009467Y012583D03*
X009782Y012583D03*
D13*
X009580Y013943D03*
X008580Y014043D03*
X007580Y013943D03*
X006580Y014043D03*
X004680Y013393D03*
X004680Y012393D03*
X004680Y011393D03*
X004680Y010393D03*
X004680Y009393D03*
X004680Y008393D03*
X010580Y014043D03*
X011580Y013943D03*
X012580Y014043D03*
X014730Y012893D03*
X014630Y011893D03*
X014730Y010893D03*
X014630Y009893D03*
X014730Y008893D03*
X014630Y007893D03*
X014730Y006893D03*
D14*
X011680Y007823D03*
X011180Y007823D03*
X010680Y007823D03*
X010180Y007823D03*
X009680Y007823D03*
X009180Y007823D03*
X008680Y007823D03*
X008180Y007823D03*
X007680Y007823D03*
X007680Y003963D03*
X008180Y003963D03*
X008680Y003963D03*
X009180Y003963D03*
X009680Y003963D03*
X010180Y003963D03*
X010680Y003963D03*
X011180Y003963D03*
X011680Y003963D03*
D15*
X003906Y003643D03*
X003906Y004143D03*
X003906Y004643D03*
X003906Y005143D03*
X005954Y005143D03*
X005954Y004643D03*
X005954Y004143D03*
X005954Y003643D03*
D16*
X002692Y010019D03*
X002692Y010767D03*
X001668Y010767D03*
X001668Y010393D03*
X001668Y010019D03*
D17*
X001680Y012393D03*
X001680Y003893D03*
D18*
X001680Y005271D03*
X001680Y013771D03*
D19*
X004180Y006593D03*
X004180Y006193D03*
D20*
X005180Y006039D03*
X005180Y006748D03*
X013680Y011439D03*
X013680Y012148D03*
D21*
X012980Y009043D03*
X011680Y009043D03*
X002630Y008993D03*
X001330Y008993D03*
D22*
X011230Y009893D03*
X012730Y009893D03*
X012730Y011893D03*
X011230Y011893D03*
D23*
X006652Y009093D03*
X006180Y009093D03*
X005708Y009093D03*
X011208Y002893D03*
X011680Y002893D03*
X012152Y002893D03*
D24*
X006534Y007493D03*
X005826Y007493D03*
D25*
X013580Y013943D03*
X014630Y005893D03*
X014630Y002643D03*
D26*
X013630Y002643D03*
X013630Y003643D03*
X014630Y003643D03*
X014630Y004643D03*
X013630Y004643D03*
D27*
X012880Y005393D03*
X012280Y005393D03*
X011680Y005393D03*
X009680Y004793D03*
X009080Y004793D03*
X009080Y003093D03*
X009680Y003093D03*
X007180Y005193D03*
X006880Y004193D03*
X002880Y005393D03*
X002880Y006393D03*
X003980Y007893D03*
X003980Y009893D03*
X003380Y010893D03*
X007180Y012493D03*
X007880Y011793D03*
X009680Y011993D03*
X012180Y011893D03*
X012580Y010593D03*
X013880Y009993D03*
X012880Y007893D03*
X012280Y007593D03*
X007780Y008593D03*
X007180Y008293D03*
D28*
X007080Y007493D03*
X007480Y006493D03*
X010680Y008493D03*
X013480Y010743D03*
X006180Y011893D03*
X003230Y009593D03*
X003230Y008393D03*
D29*
X003680Y008893D03*
X000930Y011143D03*
X005180Y003693D03*
X005380Y003043D03*
X006680Y003043D03*
X012180Y003643D03*
D30*
X005830Y009993D03*
X011630Y012543D03*
D31*
X000830Y009893D03*
D32*
X008480Y008643D03*
X009280Y008493D03*
D33*
X008930Y009893D03*
X008530Y010143D03*
X008180Y009893D03*
X010730Y009193D03*
X011680Y010393D03*
X006230Y005593D03*
X005930Y006043D03*
D34*
X007780Y005893D03*
X008180Y006193D03*
X008680Y006493D03*
X009530Y006793D03*
X009880Y007093D03*
X009780Y009743D03*
X008980Y010793D03*
X008880Y011693D03*
M02*
